SplineFontDB: 3.2
FontName: VictorFPro-Italic
FullName: Victor F Pro Italic
FamilyName: Victor F Pro
Weight: Regular
Copyright: Source Code Pro: Copyright 2010, 2012 Adobe Systems Incorporated (http://www.adobe.com/), with Reserved Font Name `Source'. Victor Mono: Copyright (c) 2019 by Rune Bjrneras. All rights reserved.
Version: 1.0
ItalicAngle: -11
UnderlinePosition: -100
UnderlineWidth: 50
Ascent: 750
Descent: 250
InvalidEm: 0
sfntRevision: 0x00010000
LayerCount: 2
Layer: 0 1 "Back" 1
Layer: 1 1 "Fore" 0
XUID: [1021 685 -1151724439 8910809]
StyleMap: 0x0001
FSType: 0
OS2Version: 3
OS2_WeightWidthSlopeOnly: 0
OS2_UseTypoMetrics: 0
CreationTime: 1465456870
ModificationTime: 1606071282
PfmFamily: 17
TTFWeight: 400
TTFWidth: 5
LineGap: 0
VLineGap: 0
Panose: 2 11 5 9 3 4 3 9 2 4
OS2TypoAscent: 750
OS2TypoAOffset: 0
OS2TypoDescent: -250
OS2TypoDOffset: 0
OS2TypoLinegap: 0
OS2WinAscent: 984
OS2WinAOffset: 0
OS2WinDescent: 273
OS2WinDOffset: 0
HheadAscent: 984
HheadAOffset: 0
HheadDescent: -273
HheadDOffset: 0
OS2SubXSize: 650
OS2SubYSize: 600
OS2SubXOff: -15
OS2SubYOff: 75
OS2SupXSize: 650
OS2SupYSize: 600
OS2SupXOff: 68
OS2SupYOff: 350
OS2StrikeYSize: 50
OS2StrikeYPos: 288
OS2CapHeight: 660
OS2XHeight: 480
OS2Vendor: 'ADBO'
OS2CodePages: 60000193.00000000
OS2UnicodeRanges: 20000077.02003803.00000000.00000000
Lookup: 1 0 0 "'ss02' Style Set 2 lookup 0" { "'ss02' Style Set 2 lookup 0 subtable"  } ['cv01' ('DFLT' <'dflt' > 'cyrl' <'dflt' > 'grek' <'dflt' > 'latn' <'NSM ' 'SKS ' 'dflt' > ) 'salt' ('DFLT' <'dflt' > 'cyrl' <'dflt' > 'grek' <'dflt' > 'latn' <'NSM ' 'SKS ' 'dflt' > ) 'ss02' ('DFLT' <'dflt' > 'cyrl' <'dflt' > 'grek' <'dflt' > 'latn' <'NSM ' 'SKS ' 'dflt' > ) ]

StartChar: .notdef
Encoding: 1114112 -1 0
Width: 600
Flags: W
LayerCount: 2
Fore
SplineSet
65 0 m 1,0,-1
 65 660 l 1,1,-1
 535 660 l 1,2,-1
 535 0 l 1,3,-1
 65 0 l 1,0,-1
165 55 m 1,4,-1
 432 55 l 1,5,-1
 356 193 l 1,6,-1
 302 295 l 1,7,-1
 298 295 l 1,8,-1
 243 193 l 1,9,-1
 165 55 l 1,4,-1
127 105 m 1,10,-1
 257 340 l 1,11,-1
 127 577 l 1,12,-1
 127 105 l 1,10,-1
298 385 m 1,13,-1
 302 385 l 1,14,-1
 351 478 l 1,15,-1
 421 603 l 1,16,-1
 177 603 l 1,17,-1
 247 478 l 1,18,-1
 298 385 l 1,13,-1
343 340 m 1,19,-1
 472 105 l 1,20,-1
 472 577 l 1,21,-1
 343 340 l 1,19,-1
EndSplineSet
Validated: 1
EndChar

StartChar: A
Encoding: 65 65 2
Width: 600
GlyphClass: 2
Flags: W
LayerCount: 2
Fore
SplineSet
482 0 m 1,0,-1
 405 0 l 1,1,-1
 394 154.700195312 l 1,2,-1
 164 154.700195312 l 1,3,-1
 76 0 l 1,4,-1
 -4 0 l 1,5,-1
 352 617.950195312 l 1,6,-1
 434 617.950195312 l 1,7,-1
 482 0 l 1,0,-1
369 510.849609375 m 1,8,-1
 199 215.049804688 l 1,9,-1
 390 215.049804688 l 1,10,-1
 369 510.849609375 l 1,8,-1
EndSplineSet
Validated: 1
EndChar

StartChar: B
Encoding: 66 66 3
Width: 600
VWidth: 1100
GlyphClass: 2
Flags: W
HStem: 0 65.45<112 247> 326.4 66.3<177 313 193 313 313 329> 614.55 65.45<249 249 249 376>
VStem: 451 83 500 84
LayerCount: 2
Fore
SplineSet
247 0 m 2,0,-1
 11 0 l 1,1,-1
 181 680 l 1,2,-1
 385 680 l 2,3,4
 514 680 514 680 557 639.200195312 c 128,-1,5
 600 598.400390625 600 598.400390625 575 499.799804688 c 0,6,7
 561 442 561 442 537 413.099609375 c 128,-1,8
 513 384.200195312 513 384.200195312 462 362.950195312 c 1,9,10
 514 343.400390625 514 343.400390625 528 306 c 128,-1,11
 542 268.599609375 542 268.599609375 523 191.25 c 0,12,13
 496 83.2998046875 496 83.2998046875 436 41.650390625 c 128,-1,14
 376 0 376 0 247 0 c 2,0,-1
249 614.549804688 m 1,15,-1
 193 392.700195312 l 1,16,-1
 313 392.700195312 l 2,17,18
 402 392.700195312 402 392.700195312 439 416.5 c 128,-1,19
 476 440.299804688 476 440.299804688 494 510.849609375 c 0,20,21
 509 572.049804688 509 572.049804688 485.5 593.299804688 c 128,-1,22
 462 614.549804688 462 614.549804688 376 614.549804688 c 2,23,-1
 249 614.549804688 l 1,15,-1
177 326.400390625 m 1,24,-1
 112 65.4501953125 l 1,25,-1
 256 65.4501953125 l 2,26,27
 342 65.4501953125 342 65.4501953125 382 94.775390625 c 128,-1,28
 422 124.099609375 422 124.099609375 442 202.299804688 c 0,29,30
 461 279.650390625 461 279.650390625 438.5 303.025390625 c 128,-1,31
 416 326.400390625 416 326.400390625 329 326.400390625 c 2,32,-1
 177 326.400390625 l 1,24,-1
EndSplineSet
Validated: 33
EndChar

StartChar: C
Encoding: 67 67 4
Width: 600
VWidth: 1100
GlyphClass: 2
Flags: W
HStem: -11.9 65.45<191.5 301 191.5 318.5> 626.45 65.45<345 454.5>
VStem: 49 83 529 82<511.7 529.55>
LayerCount: 2
Fore
SplineSet
254 -11.900390625 m 0,0,1
 105 -11.900390625 105 -11.900390625 66.5 68.849609375 c 128,-1,2
 28 149.599609375 28 149.599609375 78 346.799804688 c 0,3,4
 127 540.599609375 127 540.599609375 200 616.25 c 128,-1,5
 273 691.900390625 273 691.900390625 415 691.900390625 c 0,6,7
 516 691.900390625 516 691.900390625 559.5 655.775390625 c 128,-1,8
 603 619.650390625 603 619.650390625 611 529.549804688 c 1,9,-1
 529 511.700195312 l 1,10,11
 522 581.400390625 522 581.400390625 498.5 603.924804688 c 128,-1,12
 475 626.450195312 475 626.450195312 413 626.450195312 c 0,13,14
 311 626.450195312 311 626.450195312 255.5 563.125 c 128,-1,15
 200 499.799804688 200 499.799804688 159 334.900390625 c 0,16,17
 118 173.400390625 118 173.400390625 138.5 113.474609375 c 128,-1,18
 159 53.5498046875 159 53.5498046875 256 53.5498046875 c 0,19,20
 323 53.5498046875 323 53.5498046875 361 78.2001953125 c 128,-1,21
 399 102.849609375 399 102.849609375 441 170.849609375 c 1,22,-1
 517 142.799804688 l 1,23,24
 464 54.400390625 464 54.400390625 407.5 21.25 c 128,-1,25
 351 -11.900390625 351 -11.900390625 254 -11.900390625 c 0,0,1
EndSplineSet
Validated: 33
EndChar

StartChar: D
Encoding: 68 68 5
Width: 600
VWidth: 1100
GlyphClass: 2
Flags: W
HStem: 0 65.45<103 251> 614.55 65.45<239 405 239 239>
VStem: 521 83
LayerCount: 2
Fore
SplineSet
172 680 m 1,0,-1
 414 680 l 2,1,2
 552 680 552 680 588 602.224609375 c 128,-1,3
 624 524.450195312 624 524.450195312 576 334.049804688 c 0,4,5
 528 146.200195312 528 146.200195312 458 73.099609375 c 128,-1,6
 388 0 388 0 251 0 c 2,7,-1
 2 0 l 1,8,-1
 172 680 l 1,0,-1
495 345.950195312 m 0,9,10
 534 499.799804688 534 499.799804688 515 557.174804688 c 128,-1,11
 496 614.549804688 496 614.549804688 405 614.549804688 c 2,12,-1
 239 614.549804688 l 1,13,-1
 103 65.4501953125 l 1,14,-1
 260 65.4501953125 l 2,15,16
 353 65.4501953125 353 65.4501953125 404 126.224609375 c 128,-1,17
 455 187 455 187 495 345.950195312 c 0,9,10
EndSplineSet
Validated: 33
EndChar

StartChar: E
Encoding: 69 69 6
Width: 600
VWidth: 1100
GlyphClass: 2
Flags: W
HStem: 0 65.45<120 478> 326.4 66.3<203 425 183 441> 614.55 65.45<256 631 256 256>
VStem: 20 627
LayerCount: 2
Fore
SplineSet
647 680 m 1,0,-1
 631 614.549804688 l 1,1,-1
 256 614.549804688 l 1,2,-1
 203 392.700195312 l 1,3,-1
 441 392.700195312 l 1,4,-1
 425 326.400390625 l 1,5,-1
 183 326.400390625 l 1,6,-1
 120 65.4501953125 l 1,7,-1
 494 65.4501953125 l 1,8,-1
 478 0 l 1,9,-1
 20 0 l 1,10,-1
 189 680 l 1,11,-1
 647 680 l 1,0,-1
EndSplineSet
Validated: 1
EndChar

StartChar: F
Encoding: 70 70 7
Width: 600
VWidth: 1100
GlyphClass: 2
Flags: W
HStem: 0 17.85G<20 104 20 20> 287.3 66.3<193 417 175 432> 614.55 65.45<257 632 257 257>
VStem: 20 628
LayerCount: 2
Fore
SplineSet
648 680 m 1,0,-1
 632 614.549804688 l 1,1,-1
 257 614.549804688 l 1,2,-1
 193 353.599609375 l 1,3,-1
 432 353.599609375 l 1,4,-1
 417 287.299804688 l 1,5,-1
 175 287.299804688 l 1,6,-1
 104 0 l 1,7,-1
 20 0 l 1,8,-1
 190 680 l 1,9,-1
 648 680 l 1,0,-1
EndSplineSet
Validated: 1
EndChar

StartChar: G
Encoding: 71 71 8
Width: 600
VWidth: 1100
GlyphClass: 2
Flags: W
HStem: -11.9 65.45<192 302.5 192 322> 287.3 66.3<314 473 299 572> 626.45 65.45<345.5 461.5>
VStem: 44 83 540 82<500.65 511.7>
LayerCount: 2
Fore
SplineSet
258 -11.900390625 m 0,0,1
 153 -11.900390625 153 -11.900390625 103 20.8251953125 c 128,-1,2
 53 53.5498046875 53 53.5498046875 44.5 133.025390625 c 128,-1,3
 36 212.5 36 212.5 73 345.950195312 c 0,4,5
 123 544 123 544 196.5 617.950195312 c 128,-1,6
 270 691.900390625 270 691.900390625 419 691.900390625 c 0,7,8
 529 691.900390625 529 691.900390625 573 652.799804688 c 128,-1,9
 617 613.700195312 617 613.700195312 622 511.700195312 c 1,10,-1
 540 500.650390625 l 1,11,12
 536 573.75 536 573.75 510 600.099609375 c 128,-1,13
 484 626.450195312 484 626.450195312 417 626.450195312 c 0,14,15
 310 626.450195312 310 626.450195312 252.5 563.125 c 128,-1,16
 195 499.799804688 195 499.799804688 154 334.049804688 c 0,17,18
 113 172.549804688 113 172.549804688 135.5 113.049804688 c 128,-1,19
 158 53.5498046875 158 53.5498046875 260 53.5498046875 c 0,20,21
 323 53.5498046875 323 53.5498046875 362 75.650390625 c 128,-1,22
 401 97.75 401 97.75 437 152.150390625 c 1,23,-1
 473 287.299804688 l 1,24,-1
 299 287.299804688 l 1,25,-1
 314 353.599609375 l 1,26,-1
 572 353.599609375 l 1,27,-1
 519 136.849609375 l 1,28,29
 465 51 465 51 409.5 19.5498046875 c 128,-1,30
 354 -11.900390625 354 -11.900390625 258 -11.900390625 c 0,0,1
EndSplineSet
Validated: 33
EndChar

StartChar: H
Encoding: 72 72 9
Width: 600
VWidth: 1100
GlyphClass: 2
Flags: W
HStem: 0 17.85G<1 85 1 1 383 467 383 383> 326.4 66.3<183 465 167 481> 663 17G<171 255 255 255 553 637 637 637>
VStem: 1 636
LayerCount: 2
Fore
SplineSet
481 392.700195312 m 1,0,-1
 553 680 l 1,1,-1
 637 680 l 1,2,-1
 467 0 l 1,3,-1
 383 0 l 1,4,-1
 465 326.400390625 l 1,5,-1
 167 326.400390625 l 1,6,-1
 85 0 l 1,7,-1
 1 0 l 1,8,-1
 171 680 l 1,9,-1
 255 680 l 1,10,-1
 183 392.700195312 l 1,11,-1
 481 392.700195312 l 1,0,-1
EndSplineSet
Validated: 1
EndChar

StartChar: I
Encoding: 73 73 10
Width: 600
VWidth: 1100
GlyphClass: 2
Flags: W
HStem: 0 65.45<47 208 292 438 30 208> 614.55 65.45<200 346 184 608 430 592 430 430>
VStem: 30 578
LayerCount: 2
Fore
SplineSet
608 680 m 1,0,-1
 592 614.549804688 l 1,1,-1
 430 614.549804688 l 1,2,-1
 292 65.4501953125 l 1,3,-1
 455 65.4501953125 l 1,4,-1
 438 0 l 1,5,-1
 30 0 l 1,6,-1
 47 65.4501953125 l 1,7,-1
 208 65.4501953125 l 1,8,-1
 346 614.549804688 l 1,9,-1
 184 614.549804688 l 1,10,-1
 200 680 l 1,11,-1
 608 680 l 1,0,-1
EndSplineSet
Validated: 1
EndChar

StartChar: J
Encoding: 74 74 11
Width: 600
VWidth: 1100
GlyphClass: 2
Flags: W
HStem: -11.9 65.45<162 272.5 162 298> 614.55 65.45<410 525 394 625>
VStem: 7 80<148.75 161.5>
LayerCount: 2
Fore
SplineSet
203 -11.900390625 m 0,0,1
 100 -11.900390625 100 -11.900390625 57.5 23.7998046875 c 128,-1,2
 15 59.5 15 59.5 7 148.75 c 1,3,-1
 87 161.5 l 1,4,5
 94 96.0498046875 94 96.0498046875 117.5 74.7998046875 c 128,-1,6
 141 53.5498046875 141 53.5498046875 205 53.5498046875 c 0,7,8
 307 53.5498046875 307 53.5498046875 359.5 108.799804688 c 128,-1,9
 412 164.049804688 412 164.049804688 449 311.950195312 c 2,10,-1
 525 614.549804688 l 1,11,-1
 394 614.549804688 l 1,12,-1
 410 680 l 1,13,-1
 625 680 l 1,14,-1
 532 306 l 2,15,16
 487 125.799804688 487 125.799804688 416 56.9501953125 c 128,-1,17
 345 -11.900390625 345 -11.900390625 203 -11.900390625 c 0,0,1
EndSplineSet
Validated: 1
EndChar

StartChar: K
Encoding: 75 75 12
Width: 600
VWidth: 1100
GlyphClass: 2
Flags: W
HStem: 0 17.85G<7 91 7 7 423 519 423 423> 326.4 66.3<189 226 189 250 173 226> 663 17G<177 261 261 261 584 691 691 691>
VStem: 7 684
LayerCount: 2
Fore
SplineSet
584 680 m 1,0,-1
 691 680 l 1,1,-1
 317 379.950195312 l 1,2,-1
 519 0 l 1,3,-1
 423 0 l 1,4,-1
 250 326.400390625 l 1,5,-1
 173 326.400390625 l 1,6,-1
 91 0 l 1,7,-1
 7 0 l 1,8,-1
 177 680 l 1,9,-1
 261 680 l 1,10,-1
 189 392.700195312 l 1,11,-1
 226 392.700195312 l 1,12,-1
 584 680 l 1,0,-1
EndSplineSet
Validated: 1
EndChar

StartChar: L
Encoding: 76 76 13
Width: 600
VWidth: 1100
GlyphClass: 2
Flags: W
HStem: 0 65.45<139 457> 663 17G<208 292 292 292>
VStem: 38 436<0 65.45>
LayerCount: 2
Fore
SplineSet
457 0 m 1,0,-1
 38 0 l 1,1,-1
 208 680 l 1,2,-1
 292 680 l 1,3,-1
 139 65.4501953125 l 1,4,-1
 474 65.4501953125 l 1,5,-1
 457 0 l 1,0,-1
EndSplineSet
Validated: 1
EndChar

StartChar: M
Encoding: 77 77 14
Width: 600
VWidth: 1100
GlyphClass: 2
Flags: W
HStem: 0 17.85G<-23 61 -23 -23 407 407 407 491> 663 17G<161 241 241 241 566 647 647 647>
VStem: -23 670
LayerCount: 2
Fore
SplineSet
61 0 m 1,0,-1
 -23 0 l 1,1,-1
 161 680 l 1,2,-1
 241 680 l 1,3,-1
 314 324.700195312 l 1,4,-1
 566 680 l 1,5,-1
 647 680 l 1,6,-1
 491 0 l 1,7,-1
 407 0 l 1,8,-1
 522 496.400390625 l 1,9,-1
 325 209.099609375 l 1,10,-1
 250 209.099609375 l 1,11,-1
 197 496.400390625 l 1,12,-1
 61 0 l 1,0,-1
EndSplineSet
Validated: 1
EndChar

StartChar: N
Encoding: 78 78 15
Width: 600
VWidth: 1100
GlyphClass: 2
Flags: W
HStem: 0 17.85G<3 87 3 3 377 465 377 377> 663 17G<173 262 262 262 551 635 635 635>
VStem: 3 632
LayerCount: 2
Fore
SplineSet
419 151.299804688 m 1,0,-1
 551 680 l 1,1,-1
 635 680 l 1,2,-1
 465 0 l 1,3,-1
 377 0 l 1,4,-1
 220 530.400390625 l 1,5,-1
 87 0 l 1,6,-1
 3 0 l 1,7,-1
 173 680 l 1,8,-1
 262 680 l 1,9,-1
 419 151.299804688 l 1,0,-1
EndSplineSet
Validated: 1
EndChar

StartChar: O
Encoding: 79 79 16
Width: 600
VWidth: 1100
GlyphClass: 2
Flags: W
HStem: -11.9 65.45<180 306 180 331.5> 626.45 65.45<332.5 459.5>
VStem: 38 83 518 83
LayerCount: 2
Fore
SplineSet
239 -11.900390625 m 0,0,1
 95 -11.900390625 95 -11.900390625 56 60.775390625 c 128,-1,2
 17 133.450195312 17 133.450195312 62 308.549804688 c 2,3,-1
 79 376.549804688 l 2,4,5
 123 553.349609375 123 553.349609375 192.5 622.625 c 128,-1,6
 262 691.900390625 262 691.900390625 400 691.900390625 c 0,7,8
 543 691.900390625 543 691.900390625 582.5 619.224609375 c 128,-1,9
 622 546.549804688 622 546.549804688 577 371.450195312 c 2,10,-1
 560 303.450195312 l 2,11,12
 515 125.799804688 515 125.799804688 446 56.9501953125 c 128,-1,13
 377 -11.900390625 377 -11.900390625 239 -11.900390625 c 0,0,1
241 53.5498046875 m 0,14,15
 338 53.5498046875 338 53.5498046875 389.5 108.799804688 c 128,-1,16
 441 164.049804688 441 164.049804688 478 308.549804688 c 2,17,-1
 495 376.549804688 l 2,18,19
 531 520.200195312 531 520.200195312 510.5 573.325195312 c 128,-1,20
 490 626.450195312 490 626.450195312 398 626.450195312 c 0,21,22
 300 626.450195312 300 626.450195312 248.5 571.200195312 c 128,-1,23
 197 515.950195312 197 515.950195312 161 371.450195312 c 2,24,-1
 144 303.450195312 l 2,25,26
 108 159.799804688 108 159.799804688 128.5 106.674804688 c 128,-1,27
 149 53.5498046875 149 53.5498046875 241 53.5498046875 c 0,14,15
EndSplineSet
Validated: 33
EndChar

StartChar: P
Encoding: 80 80 17
Width: 600
VWidth: 1100
GlyphClass: 2
Flags: W
HStem: 0 17.85G<23 107 23 23> 285.6 66.3<194 329 178 338> 614.55 65.45<260 412 260 260>
VStem: 534 83
LayerCount: 2
Fore
SplineSet
193 680 m 1,0,-1
 421 680 l 2,1,2
 550 680 550 680 592 634.099609375 c 128,-1,3
 634 588.200195312 634 588.200195312 606 476.849609375 c 0,4,5
 578 366.349609375 578 366.349609375 519 325.974609375 c 128,-1,6
 460 285.599609375 460 285.599609375 329 285.599609375 c 2,7,-1
 178 285.599609375 l 1,8,-1
 107 0 l 1,9,-1
 23 0 l 1,10,-1
 193 680 l 1,0,-1
525 488.75 m 0,11,12
 543 562.700195312 543 562.700195312 520 588.625 c 128,-1,13
 497 614.549804688 497 614.549804688 412 614.549804688 c 2,14,-1
 260 614.549804688 l 1,15,-1
 194 351.900390625 l 1,16,-1
 338 351.900390625 l 2,17,18
 426 351.900390625 426 351.900390625 465 379.525390625 c 128,-1,19
 504 407.150390625 504 407.150390625 525 488.75 c 0,11,12
EndSplineSet
Validated: 33
EndChar

StartChar: Q
Encoding: 81 81 18
Width: 600
VWidth: 1100
GlyphClass: 2
Flags: W
HStem: -155.55 65.45<438 548.5 438 565.5> -95.2 65.45<95.5 113.5 95.5 122.5> 0 17.85G 626.45 65.45<330 457.5>
VStem: 5 78 39 82 517 82
LayerCount: 2
Fore
SplineSet
477 -90.099609375 m 0,0,1
 516 -90.099609375 516 -90.099609375 550.5 -81.1748046875 c 128,-1,2
 585 -72.25 585 -72.25 614 -58.650390625 c 128,-1,3
 643 -45.0498046875 643 -45.0498046875 674 -31.4501953125 c 128,-1,4
 705 -17.849609375 705 -17.849609375 752 -7.224609375 c 128,-1,5
 799 3.400390625 799 3.400390625 856 5.099609375 c 1,6,-1
 837 -61.2001953125 l 1,7,8
 787 -62.900390625 787 -62.900390625 742.5 -77.775390625 c 128,-1,9
 698 -92.650390625 698 -92.650390625 668.5 -110.075195312 c 128,-1,10
 639 -127.5 639 -127.5 586.5 -141.525390625 c 128,-1,11
 534 -155.549804688 534 -155.549804688 470 -155.549804688 c 0,12,13
 421 -155.549804688 421 -155.549804688 370.5 -137.275390625 c 128,-1,14
 320 -119 320 -119 291 -101.575195312 c 128,-1,15
 262 -84.150390625 262 -84.150390625 218 -52.7001953125 c 1,16,17
 153 -95.2001953125 153 -95.2001953125 98 -95.2001953125 c 0,18,19
 45 -95.2001953125 45 -95.2001953125 21 -68 c 128,-1,20
 -3 -40.7998046875 -3 -40.7998046875 9 3.400390625 c 0,21,22
 21 39.099609375 21 39.099609375 56 59.5 c 1,23,24
 20 130.900390625 20 130.900390625 62 307.700195312 c 2,25,-1
 79 375.700195312 l 2,26,27
 122 552.5 122 552.5 193 622.200195312 c 128,-1,28
 264 691.900390625 264 691.900390625 403 691.900390625 c 0,29,30
 545 691.900390625 545 691.900390625 582 620.5 c 128,-1,31
 619 549.099609375 619 549.099609375 575 372.299804688 c 2,32,-1
 559 304.299804688 l 2,33,34
 522 149.599609375 522 149.599609375 464.5 78.2001953125 c 128,-1,35
 407 6.7998046875 407 6.7998046875 304 -7.650390625 c 0,36,37
 291 -11.900390625 291 -11.900390625 288 -13.599609375 c 1,38,39
 336 -49.2998046875 336 -49.2998046875 380 -69.7001953125 c 128,-1,40
 424 -90.099609375 424 -90.099609375 477 -90.099609375 c 0,0,1
159 372.299804688 m 2,41,-1
 143 304.299804688 l 2,42,43
 118 202.299804688 118 202.299804688 121.5 146.625 c 128,-1,44
 125 90.9501953125 125 90.9501953125 161 69.7001953125 c 0,45,46
 178 63.75 178 63.75 183 60.349609375 c 0,47,48
 210 53.5498046875 210 53.5498046875 244 53.5498046875 c 0,49,50
 275 53.5498046875 275 53.5498046875 302 58.650390625 c 2,51,-1
 315 62.0498046875 l 2,52,53
 376 78.2001953125 376 78.2001953125 413 134.724609375 c 128,-1,54
 450 191.25 450 191.25 478 307.700195312 c 2,55,-1
 495 375.700195312 l 2,56,57
 530 519.349609375 530 519.349609375 509 572.900390625 c 128,-1,58
 488 626.450195312 488 626.450195312 395 626.450195312 c 0,59,60
 297 626.450195312 297 626.450195312 245 570.775390625 c 128,-1,61
 193 515.099609375 193 515.099609375 159 372.299804688 c 2,41,-1
105 -29.75 m 0,62,63
 123 -29.75 123 -29.75 151 -8.5 c 1,64,65
 145 -5.099609375 145 -5.099609375 133 0 c 0,66,67
 98 14.4501953125 98 14.4501953125 86 -5.099609375 c 0,68,69
 80 -14.4501953125 80 -14.4501953125 85.5 -22.099609375 c 128,-1,70
 91 -29.75 91 -29.75 105 -29.75 c 0,62,63
EndSplineSet
Validated: 33
EndChar

StartChar: R
Encoding: 82 82 19
Width: 600
VWidth: 1100
GlyphClass: 2
Flags: W
HStem: 0 17.85G<15 99 15 15 414 509 414 414> 285.6 66.3<187 258 171 330> 286.45 65.45<353 353> 614.55 65.45<253 404 253 253>
VStem: 526 83
LayerCount: 2
Fore
SplineSet
185 680 m 1,0,-1
 413 680 l 2,1,2
 542 680 542 680 584 634.099609375 c 128,-1,3
 626 588.200195312 626 588.200195312 598 476.849609375 c 0,4,5
 572 373.150390625 572 373.150390625 518.5 331.5 c 128,-1,6
 465 289.849609375 465 289.849609375 353 286.450195312 c 1,7,-1
 509 0 l 1,8,-1
 414 0 l 1,9,-1
 258 285.599609375 l 1,10,-1
 171 285.599609375 l 1,11,-1
 99 0 l 1,12,-1
 15 0 l 1,13,-1
 185 680 l 1,0,-1
517 488.75 m 0,14,15
 535 562.700195312 535 562.700195312 512 588.625 c 128,-1,16
 489 614.549804688 489 614.549804688 404 614.549804688 c 2,17,-1
 253 614.549804688 l 1,18,-1
 187 351.900390625 l 1,19,-1
 330 351.900390625 l 2,20,21
 418 351.900390625 418 351.900390625 457 379.525390625 c 128,-1,22
 496 407.150390625 496 407.150390625 517 488.75 c 0,14,15
EndSplineSet
Validated: 33
EndChar

StartChar: S
Encoding: 83 83 20
Width: 600
VWidth: 1100
GlyphClass: 2
Flags: W
HStem: -11.9 65.45<184.5 303.5 184.5 327> 626.45 65.45<340 449.5>
VStem: 130 83 445 84
LayerCount: 2
Fore
SplineSet
239 -11.900390625 m 0,0,1
 132 -11.900390625 132 -11.900390625 82 12.75 c 128,-1,2
 32 37.400390625 32 37.400390625 10 99.4501953125 c 1,3,-1
 85 145.349609375 l 1,4,5
 96 90.099609375 96 90.099609375 126.5 71.8251953125 c 128,-1,6
 157 53.5498046875 157 53.5498046875 241 53.5498046875 c 0,7,8
 334 53.5498046875 334 53.5498046875 377 84.150390625 c 128,-1,9
 420 114.75 420 114.75 440 195.5 c 0,10,11
 453 249.049804688 453 249.049804688 429 274.125 c 128,-1,12
 405 299.200195312 405 299.200195312 318 327.25 c 0,13,14
 196 362.099609375 196 362.099609375 156.5 402.049804688 c 128,-1,15
 117 442 117 442 136 515.950195312 c 0,16,17
 161 614.549804688 161 614.549804688 218.5 653.224609375 c 128,-1,18
 276 691.900390625 276 691.900390625 400 691.900390625 c 0,19,20
 498 691.900390625 498 691.900390625 545 670.650390625 c 128,-1,21
 592 649.400390625 592 649.400390625 615 595 c 1,22,-1
 545 544.849609375 l 1,23,24
 531 595 531 595 503 610.724609375 c 128,-1,25
 475 626.450195312 475 626.450195312 398 626.450195312 c 0,26,27
 312 626.450195312 312 626.450195312 273.5 600.099609375 c 128,-1,28
 235 573.75 235 573.75 217 504.049804688 c 0,29,30
 206 458.150390625 206 458.150390625 228 436.900390625 c 128,-1,31
 250 415.650390625 250 415.650390625 330 391.849609375 c 0,32,33
 459 357 459 357 500.5 312.799804688 c 128,-1,34
 542 268.599609375 542 268.599609375 521 183.599609375 c 0,35,36
 494 73.9501953125 494 73.9501953125 432.5 31.025390625 c 128,-1,37
 371 -11.900390625 371 -11.900390625 239 -11.900390625 c 0,0,1
EndSplineSet
Validated: 33
EndChar

StartChar: T
Encoding: 84 84 21
Width: 600
VWidth: 1100
GlyphClass: 2
Flags: W
HStem: 0 17.85G<192 276 192 192> 614.55 65.45<119 346 103 689 430 673 430 430>
VStem: 103 586<614.55 680>
LayerCount: 2
Fore
SplineSet
689 680 m 1,0,-1
 673 614.549804688 l 1,1,-1
 430 614.549804688 l 1,2,-1
 276 0 l 1,3,-1
 192 0 l 1,4,-1
 346 614.549804688 l 1,5,-1
 103 614.549804688 l 1,6,-1
 119 680 l 1,7,-1
 689 680 l 1,0,-1
EndSplineSet
Validated: 1
EndChar

StartChar: U
Encoding: 85 85 22
Width: 600
VWidth: 1100
GlyphClass: 2
Flags: W
HStem: -11.9 65.45<187.5 298 187.5 323> 663 17G<175 259 259 259 549 633 633 633>
VStem: 51 84
LayerCount: 2
Fore
SplineSet
239 -11.900390625 m 0,0,1
 108 -11.900390625 108 -11.900390625 70 49.2998046875 c 128,-1,2
 32 110.5 32 110.5 70 259.25 c 2,3,-1
 175 680 l 1,4,-1
 259 680 l 1,5,-1
 153 253.299804688 l 2,6,7
 124 136.849609375 124 136.849609375 142.5 95.2001953125 c 128,-1,8
 161 53.5498046875 161 53.5498046875 241 53.5498046875 c 0,9,10
 327 53.5498046875 327 53.5498046875 371 97.75 c 128,-1,11
 415 141.950195312 415 141.950195312 444 259.25 c 2,12,-1
 549 680 l 1,13,-1
 633 680 l 1,14,-1
 527 253.299804688 l 2,15,16
 490 104.549804688 490 104.549804688 427.5 46.3251953125 c 128,-1,17
 365 -11.900390625 365 -11.900390625 239 -11.900390625 c 0,0,1
EndSplineSet
Validated: 33
EndChar

StartChar: V
Encoding: 86 86 23
Width: 600
VWidth: 1100
GlyphClass: 2
Flags: W
HStem: 0 17.85G<193 277 193 193> 663 17G<137 225 225 225 582 673 673 673>
VStem: 137 536<680 680>
LayerCount: 2
Fore
SplineSet
277 0 m 1,0,-1
 193 0 l 1,1,-1
 137 680 l 1,2,-1
 225 680 l 1,3,-1
 266 131.75 l 1,4,-1
 582 680 l 1,5,-1
 673 680 l 1,6,-1
 277 0 l 1,0,-1
EndSplineSet
Validated: 1
EndChar

StartChar: W
Encoding: 87 87 24
Width: 600
VWidth: 1100
GlyphClass: 2
Flags: W
HStem: 0 17.85G<62 145 62 62 328 328 328 408> 663 17G<121 205 205 205 603 689 689 689>
VStem: 321.5 72
LayerCount: 2
Fore
SplineSet
145 0 m 1,0,-1
 62 0 l 1,1,-1
 121 680 l 1,2,-1
 205 680 l 1,3,-1
 157 177.650390625 l 1,4,-1
 312 469.200195312 l 1,5,-1
 389 469.200195312 l 1,6,-1
 398 177.650390625 l 1,7,-1
 603 680 l 1,8,-1
 689 680 l 1,9,-1
 408 0 l 1,10,-1
 328 0 l 1,11,-1
 315 317.049804688 l 1,12,-1
 145 0 l 1,0,-1
EndSplineSet
Validated: 1
EndChar

StartChar: X
Encoding: 88 88 25
Width: 600
VWidth: 1100
GlyphClass: 2
Flags: W
HStem: 0 17.85G<-31 60 -31 -31 406 502 406 406> 663 17G<137 233 233 233 579 670 670 670>
VStem: -31 701
LayerCount: 2
Fore
SplineSet
579 680 m 1,0,-1
 670 680 l 1,1,-1
 367 341.700195312 l 1,2,-1
 502 0 l 1,3,-1
 406 0 l 1,4,-1
 300 267.75 l 1,5,-1
 60 0 l 1,6,-1
 -31 0 l 1,7,-1
 272 338.299804688 l 1,8,-1
 137 680 l 1,9,-1
 233 680 l 1,10,-1
 339 412.25 l 1,11,-1
 579 680 l 1,0,-1
EndSplineSet
Validated: 1
EndChar

StartChar: Y
Encoding: 89 89 26
Width: 600
VWidth: 1100
GlyphClass: 2
Flags: W
HStem: 0 17.85G<192 276 192 192> 663 17G<122 211 211 211 595 690 690 690>
VStem: 122 568<680 680>
LayerCount: 2
Fore
SplineSet
276 0 m 1,0,-1
 192 0 l 1,1,-1
 257 253.299804688 l 1,2,-1
 122 680 l 1,3,-1
 211 680 l 1,4,-1
 317 342.549804688 l 1,5,-1
 595 680 l 1,6,-1
 690 680 l 1,7,-1
 341 253.299804688 l 1,8,-1
 276 0 l 1,0,-1
EndSplineSet
Validated: 1
EndChar

StartChar: Z
Encoding: 90 90 27
Width: 600
VWidth: 1100
GlyphClass: 2
Flags: W
HStem: -53.55 65.45<422 513.5 422 531> 0 17.85G<-25 -25> 10.2 65.45<160 211.5> 614.55 65.45<147 541 133 662>
VStem: -25 744<0 65.45>
LayerCount: 2
Fore
SplineSet
449 -53.5498046875 m 0,0,1
 401 -53.5498046875 401 -53.5498046875 306.5 -21.6748046875 c 128,-1,2
 212 10.2001953125 212 10.2001953125 158 10.2001953125 c 0,3,4
 156 10.2001953125 156 10.2001953125 106 4.6748046875 c 128,-1,5
 56 -0.849609375 56 -0.849609375 -25 0 c 1,6,-1
 -11 51.849609375 l 1,7,-1
 541 614.549804688 l 1,8,-1
 133 614.549804688 l 1,9,-1
 147 680 l 1,10,-1
 662 680 l 1,11,-1
 649 627.299804688 l 1,12,-1
 102 70.5498046875 l 1,13,14
 109 70.5498046875 109 70.5498046875 133.5 73.099609375 c 128,-1,15
 158 75.650390625 158 75.650390625 176 75.650390625 c 0,16,17
 230 75.650390625 230 75.650390625 283.5 59.9248046875 c 128,-1,18
 337 44.2001953125 337 44.2001953125 383.5 28.0498046875 c 128,-1,19
 430 11.900390625 430 11.900390625 466 11.900390625 c 0,20,21
 504 11.900390625 504 11.900390625 542 26.775390625 c 128,-1,22
 580 41.650390625 580 41.650390625 622.5 54.8251953125 c 128,-1,23
 665 68 665 68 719 65.4501953125 c 1,24,-1
 697 -0.849609375 l 1,25,26
 672 2.5498046875 672 2.5498046875 648.5 -5.099609375 c 128,-1,27
 625 -12.75 625 -12.75 606 -23.7998046875 c 128,-1,28
 587 -34.849609375 587 -34.849609375 545.5 -44.2001953125 c 128,-1,29
 504 -53.5498046875 504 -53.5498046875 449 -53.5498046875 c 0,0,1
EndSplineSet
Validated: 33
EndChar

StartChar: a
Encoding: 97 97 28
Width: 600
VWidth: 1100
GlyphClass: 2
Flags: W
HStem: -11.9 65.45<175.5 226.5 441 452.5> 471.75 65.45<302.5 387>
VStem: 21 79 348 82 440 80
LayerCount: 2
Fore
SplineSet
505 84.150390625 m 1,0,-1
 541 27.2001953125 l 1,1,2
 527 9.349609375 527 9.349609375 495.5 -1.275390625 c 128,-1,3
 464 -11.900390625 464 -11.900390625 431 -11.900390625 c 0,4,5
 395 -11.900390625 395 -11.900390625 372.5 3.8251953125 c 128,-1,6
 350 19.5498046875 350 19.5498046875 348 43.349609375 c 0,7,8
 346 54.400390625 346 54.400390625 348 58.650390625 c 1,9,10
 319 26.349609375 319 26.349609375 279.5 7.224609375 c 128,-1,11
 240 -11.900390625 240 -11.900390625 200 -11.900390625 c 0,12,13
 118 -11.900390625 118 -11.900390625 69 31.4501953125 c 128,-1,14
 20 74.7998046875 20 74.7998046875 21 145.349609375 c 0,15,16
 21 236.299804688 21 236.299804688 72.5 328.099609375 c 128,-1,17
 124 419.900390625 124 419.900390625 204 478.549804688 c 128,-1,18
 284 537.200195312 284 537.200195312 363 537.200195312 c 0,19,20
 520 537.200195312 520 537.200195312 520 453.049804688 c 0,21,22
 521 436.049804688 521 436.049804688 434 95.2001953125 c 0,23,24
 428 73.9501953125 428 73.9501953125 431.5 63.75 c 128,-1,25
 435 53.5498046875 435 53.5498046875 456 53.5498046875 c 0,26,27
 484 53.5498046875 484 53.5498046875 505 84.150390625 c 1,0,-1
207 53.5498046875 m 0,28,29
 258 53.5498046875 258 53.5498046875 308.5 100.724609375 c 128,-1,30
 359 147.900390625 359 147.900390625 388 219.299804688 c 1,31,32
 440 441.150390625 440 441.150390625 440 443.700195312 c 0,33,34
 438 459.849609375 438 459.849609375 420 465.799804688 c 128,-1,35
 402 471.75 402 471.75 356 471.75 c 0,36,37
 304 471.75 304 471.75 243.5 421.599609375 c 128,-1,38
 183 371.450195312 183 371.450195312 141.5 295.799804688 c 128,-1,39
 100 220.150390625 100 220.150390625 100 151.299804688 c 0,40,41
 101 107.099609375 101 107.099609375 130.5 80.3251953125 c 128,-1,42
 160 53.5498046875 160 53.5498046875 207 53.5498046875 c 0,28,29
EndSplineSet
Validated: 33
Substitution2: "'sups' Superscript lookup 20 subtable" a.sups
Substitution2: "'ss02' Style Set 2 lookup 0 subtable" a.a
EndChar

StartChar: b
Encoding: 98 98 29
Width: 600
VWidth: 1100
GlyphClass: 2
Flags: W
HStem: -11.9 65.45<188 277.5 188 294> 318.75 67.15 324.7 56.95 445.4 48.45<432 461> 663 17G<180 263 263 263>
VStem: 57 81 353 57<408.85 424.15 404.6 433.075> 475 73
LayerCount: 2
Fore
SplineSet
609 385.900390625 m 1,0,-1
 591 319.599609375 l 1,1,2
 566 320.450195312 566 320.450195312 534 317.900390625 c 1,3,4
 490 170.849609375 490 170.849609375 407 79.474609375 c 128,-1,5
 324 -11.900390625 324 -11.900390625 231 -11.900390625 c 0,6,7
 116 -11.900390625 116 -11.900390625 79 47.1748046875 c 128,-1,8
 42 106.25 42 106.25 68 228.650390625 c 1,9,-1
 180 680 l 1,10,-1
 263 680 l 1,11,-1
 149 228.650390625 l 2,12,13
 127 137.700195312 127 137.700195312 146 95.625 c 128,-1,14
 165 53.5498046875 165 53.5498046875 239 53.5498046875 c 0,15,16
 296 53.5498046875 296 53.5498046875 356.5 130.474609375 c 128,-1,17
 417 207.400390625 417 207.400390625 454 324.700195312 c 1,18,19
 407 328.099609375 407 328.099609375 380.5 349.775390625 c 128,-1,20
 354 371.450195312 354 371.450195312 353 408.849609375 c 0,21,22
 353 445.400390625 353 445.400390625 381.5 469.625 c 128,-1,23
 410 493.849609375 410 493.849609375 457 493.849609375 c 0,24,25
 562 493.849609375 562 493.849609375 548 384.200195312 c 1,26,27
 584 385.900390625 584 385.900390625 609 385.900390625 c 1,0,-1
410 417.349609375 m 0,28,29
 410 381.650390625 410 381.650390625 471 381.650390625 c 1,30,31
 486 445.400390625 486 445.400390625 444 445.400390625 c 0,32,33
 427 445.400390625 427 445.400390625 418.5 436.900390625 c 128,-1,34
 410 428.400390625 410 428.400390625 410 417.349609375 c 0,28,29
EndSplineSet
Validated: 33
Substitution2: "'sups' Superscript lookup 20 subtable" b.sups
EndChar

StartChar: c
Encoding: 99 99 30
Width: 600
VWidth: 1100
GlyphClass: 2
Flags: W
HStem: -11.9 65.45<183.5 285.5 183.5 292.5> 471.75 65.45<326.5 409.5>
VStem: 45 79
LayerCount: 2
Fore
SplineSet
432 130.049804688 m 1,0,-1
 493 90.9501953125 l 1,1,2
 435 31.4501953125 435 31.4501953125 379.5 9.775390625 c 128,-1,3
 324 -11.900390625 324 -11.900390625 230 -11.900390625 c 0,4,5
 98 -11.900390625 98 -11.900390625 62.5 48.4501953125 c 128,-1,6
 27 108.799804688 27 108.799804688 66 266.049804688 c 0,7,8
 94 382.5 94 382.5 185.5 459.849609375 c 128,-1,9
 277 537.200195312 277 537.200195312 382 537.200195312 c 0,10,11
 464 537.200195312 464 537.200195312 505.5 514.674804688 c 128,-1,12
 547 492.150390625 547 492.150390625 577 432.650390625 c 1,13,-1
 502 398.650390625 l 1,14,15
 480 442 480 442 453.5 456.875 c 128,-1,16
 427 471.75 427 471.75 374 471.75 c 0,17,18
 302 471.75 302 471.75 234 410.549804688 c 128,-1,19
 166 349.349609375 166 349.349609375 142 259.25 c 0,20,21
 112 139.400390625 112 139.400390625 133.5 96.474609375 c 128,-1,22
 155 53.5498046875 155 53.5498046875 238 53.5498046875 c 0,23,24
 308 53.5498046875 308 53.5498046875 345.5 68.849609375 c 128,-1,25
 383 84.150390625 383 84.150390625 432 130.049804688 c 1,0,-1
EndSplineSet
Validated: 33
Substitution2: "'sups' Superscript lookup 20 subtable" c.sups
EndChar

StartChar: d
Encoding: 100 100 31
Width: 600
VWidth: 1100
GlyphClass: 2
Flags: W
HStem: -8.59775 47.2876<160.125 255.15 494.55 505.575> 340.839 47.2876<312.375 405.3> 479.017 12.2825G<554.4 641.55 641.55 641.55>
VStem: 28.35 82.95 397.95 86.1
LayerCount: 2
Fore
SplineSet
485 53.5498046875 m 0,0,1
 513 53.5498046875 513 53.5498046875 534 84.150390625 c 1,2,-1
 570 27.2001953125 l 1,3,4
 556 9.349609375 556 9.349609375 524.5 -1.275390625 c 128,-1,5
 493 -11.900390625 493 -11.900390625 460 -11.900390625 c 0,6,7
 380 -11.900390625 380 -11.900390625 379 41.650390625 c 1,8,9
 330 -11.900390625 330 -11.900390625 191 -11.900390625 c 0,10,11
 73 -11.900390625 73 -11.900390625 41.5 50.5751953125 c 128,-1,12
 10 113.049804688 10 113.049804688 47 265.200195312 c 0,13,14
 76 388.450195312 76 388.450195312 160.5 462.825195312 c 128,-1,15
 245 537.200195312 245 537.200195312 359 537.200195312 c 0,16,17
 442 537.200195312 442 537.200195312 477 487.900390625 c 1,18,-1
 528 680 l 1,19,-1
 611 680 l 1,20,-1
 464 94.349609375 l 2,21,22
 458 75.650390625 458 75.650390625 462 64.599609375 c 128,-1,23
 466 53.5498046875 466 53.5498046875 485 53.5498046875 c 0,0,1
199 53.5498046875 m 0,24,25
 265 53.5498046875 265 53.5498046875 317 71.8251953125 c 128,-1,26
 369 90.099609375 369 90.099609375 388 119 c 1,27,-1
 447 349.349609375 l 2,28,29
 457 403.75 457 403.75 430.5 437.75 c 128,-1,30
 404 471.75 404 471.75 351 471.75 c 0,31,32
 271 471.75 271 471.75 210 413.525390625 c 128,-1,33
 149 355.299804688 149 355.299804688 124 258.400390625 c 0,34,35
 95 143.650390625 95 143.650390625 112 98.599609375 c 128,-1,36
 129 53.5498046875 129 53.5498046875 199 53.5498046875 c 0,24,25
EndSplineSet
Validated: 33
Substitution2: "'sups' Superscript lookup 20 subtable" d.sups
EndChar

StartChar: e
Encoding: 101 101 32
Width: 600
VWidth: 1100
GlyphClass: 2
Flags: W
HStem: -11.9 68<237 297> 471.75 65.45<336 413>
VStem: 78 80 465 80<355.3 430.525>
LayerCount: 2
Fore
SplineSet
267 56.099609375 m 0,0,1
 319 56.099609375 319 56.099609375 377.5 79.900390625 c 128,-1,2
 436 103.700195312 436 103.700195312 477 141.099609375 c 1,3,-1
 516 82.4501953125 l 1,4,5
 466 39.9501953125 466 39.9501953125 392.5 14.025390625 c 128,-1,6
 319 -11.900390625 319 -11.900390625 254 -11.900390625 c 0,7,8
 178 -11.900390625 178 -11.900390625 128.5 31.4501953125 c 128,-1,9
 79 74.7998046875 79 74.7998046875 78 142.799804688 c 1,10,11
 48 132.599609375 48 132.599609375 37 122.400390625 c 1,12,-1
 3 178.5 l 1,13,14
 19 200.599609375 19 200.599609375 82 219.299804688 c 1,15,16
 100 364.650390625 100 364.650390625 186 450.924804688 c 128,-1,17
 272 537.200195312 272 537.200195312 401 537.200195312 c 0,18,19
 470 537.200195312 470 537.200195312 507.5 507.025390625 c 128,-1,20
 545 476.849609375 545 476.849609375 545 418.200195312 c 0,21,22
 545 379.950195312 545 379.950195312 529 347.650390625 c 128,-1,23
 513 315.349609375 513 315.349609375 483.5 291.549804688 c 128,-1,24
 454 267.75 454 267.75 420 249.049804688 c 128,-1,25
 386 230.349609375 386 230.349609375 341.5 215.900390625 c 128,-1,26
 297 201.450195312 297 201.450195312 260 191.25 c 128,-1,27
 223 181.049804688 223 181.049804688 179.880859375 171.060546875 c 0,28,29
 165 167.450195312 165 167.450195312 158 165.75 c 1,30,-1
 158 149.599609375 l 2,31,32
 158 108.799804688 158 108.799804688 189.5 82.4501953125 c 128,-1,33
 221 56.099609375 221 56.099609375 267 56.099609375 c 0,0,1
393 471.75 m 0,34,35
 307 471.75 307 471.75 246 408.849609375 c 128,-1,36
 185 345.950195312 185 345.950195312 166 238.849609375 c 1,37,38
 200 245.650390625 200 245.650390625 212 248.200195312 c 128,-1,39
 224 250.75 224 250.75 257 258.825195312 c 128,-1,40
 290 266.900390625 290 266.900390625 304 271.575195312 c 128,-1,41
 318 276.25 318 276.25 345 285.599609375 c 128,-1,42
 372 294.950195312 372 294.950195312 385 302.599609375 c 128,-1,43
 398 310.25 398 310.25 416.5 322.575195312 c 128,-1,44
 435 334.900390625 435 334.900390625 443.5 347.650390625 c 128,-1,45
 452 360.400390625 452 360.400390625 458.5 376.974609375 c 128,-1,46
 465 393.549804688 465 393.549804688 465 411.400390625 c 0,47,48
 465 439.450195312 465 439.450195312 444.5 455.599609375 c 128,-1,49
 424 471.75 424 471.75 393 471.75 c 0,34,35
EndSplineSet
Validated: 1
Substitution2: "'sups' Superscript lookup 20 subtable" e.sups
EndChar

StartChar: f
Encoding: 102 102 33
Width: 601
VWidth: 1100
GlyphClass: 2
Flags: W
HStem: -175.1 65.45<184 227 184 249> 323 66.3<280 514 143 254> 342.55 46.75 626.45 65.45<420.5 485>
VStem: 80 80 310 79<16.575 96.05>
LayerCount: 2
Fore
SplineSet
187 -175.099609375 m 0,0,1
 138 -175.099609375 138 -175.099609375 108.5 -148.325195312 c 128,-1,2
 79 -121.549804688 79 -121.549804688 80 -77.349609375 c 0,3,4
 78 40.7998046875 78 40.7998046875 149 255.849609375 c 1,5,6
 48 307.700195312 48 307.700195312 48 341.700195312 c 0,7,8
 48 362.950195312 48 362.950195312 74.5 376.125 c 128,-1,9
 101 389.299804688 101 389.299804688 143 389.299804688 c 2,10,-1
 198 389.299804688 l 1,11,12
 258 550.799804688 258 550.799804688 315 621.349609375 c 128,-1,13
 372 691.900390625 372 691.900390625 454 691.900390625 c 0,14,15
 602 691.900390625 602 691.900390625 622 557.599609375 c 1,16,-1
 543 528.700195312 l 1,17,18
 538 581.400390625 538 581.400390625 518.5 603.924804688 c 128,-1,19
 499 626.450195312 499 626.450195312 455 626.450195312 c 0,20,21
 406 626.450195312 406 626.450195312 370 575.450195312 c 128,-1,22
 334 524.450195312 334 524.450195312 280 389.299804688 c 1,23,-1
 530 389.299804688 l 1,24,-1
 514 323 l 1,25,-1
 254 323 l 1,26,27
 252 319.599609375 252 319.599609375 248 308.549804688 c 128,-1,28
 244 297.5 244 297.5 241 290.700195312 c 1,29,30
 389 190.400390625 389 190.400390625 389 74.7998046875 c 0,31,32
 389 -36.5498046875 389 -36.5498046875 334 -105.825195312 c 128,-1,33
 279 -175.099609375 279 -175.099609375 187 -175.099609375 c 0,0,1
167 306.849609375 m 1,34,-1
 178 334.049804688 l 1,35,36
 172 334.900390625 172 334.900390625 151.5 338.299804688 c 128,-1,37
 131 341.700195312 131 341.700195312 124 342.125 c 128,-1,38
 117 342.549804688 117 342.549804688 108 340 c 1,39,40
 102 334.049804688 102 334.049804688 120.5 324.700195312 c 128,-1,41
 139 315.349609375 139 315.349609375 167 306.849609375 c 1,34,-1
193 -109.650390625 m 0,42,43
 244 -109.650390625 244 -109.650390625 277 -59.5 c 128,-1,44
 310 -9.349609375 310 -9.349609375 310 68.849609375 c 0,45,46
 310 139.400390625 310 139.400390625 215 213.349609375 c 1,47,48
 162 39.9501953125 162 39.9501953125 160 -71.400390625 c 0,49,50
 162 -88.400390625 162 -88.400390625 171 -99.025390625 c 128,-1,51
 180 -109.650390625 180 -109.650390625 193 -109.650390625 c 0,42,43
EndSplineSet
Validated: 33
Substitution2: "'sups' Superscript lookup 20 subtable" f.sups
EndChar

StartChar: g
Encoding: 103 103 34
Width: 600
VWidth: 1100
GlyphClass: 2
Flags: W
HStem: -175.1 65.45<118.5 166.5 118.5 177.5> -56.95 66.3 39.1 65.45<210 263> 471.75 65.45<344.5 436>
VStem: -4 81<-101.575 -99.45 -101.575 -69.7> 53 79 486 80
LayerCount: 2
Fore
SplineSet
115 -175.099609375 m 0,0,1
 61 -175.099609375 61 -175.099609375 28 -155.974609375 c 128,-1,2
 -5 -136.849609375 -5 -136.849609375 -4 -105.400390625 c 0,3,4
 -4 -51.849609375 -4 -51.849609375 98 -21.25 c 128,-1,5
 200 9.349609375 200 9.349609375 373 9.349609375 c 1,6,7
 377 17 377 17 381.5 28.474609375 c 128,-1,8
 386 39.9501953125 386 39.9501953125 390.5 55.25 c 128,-1,9
 395 70.5498046875 395 70.5498046875 397 76.5 c 1,10,11
 372 58.650390625 372 58.650390625 326 48.875 c 128,-1,12
 280 39.099609375 280 39.099609375 235 39.099609375 c 0,13,14
 153 39.099609375 153 39.099609375 103 79.0498046875 c 128,-1,15
 53 119 53 119 53 185.299804688 c 0,16,17
 51 270.299804688 51 270.299804688 105 352.75 c 128,-1,18
 159 435.200195312 159 435.200195312 242.5 486.200195312 c 128,-1,19
 326 537.200195312 326 537.200195312 409 537.200195312 c 0,20,21
 488 537.200195312 488 537.200195312 527.5 517.224609375 c 128,-1,22
 567 497.25 567 497.25 566 453.049804688 c 0,23,24
 566 422.450195312 566 422.450195312 520.5 243.099609375 c 128,-1,25
 475 63.75 475 63.75 451 7.650390625 c 1,26,27
 490 9.349609375 490 9.349609375 543 23.7998046875 c 1,28,-1
 518 -44.2001953125 l 1,29,30
 485 -54.400390625 485 -54.400390625 416 -56.099609375 c 1,31,32
 373 -110.5 373 -110.5 291 -142.799804688 c 128,-1,33
 209 -175.099609375 209 -175.099609375 115 -175.099609375 c 0,0,1
242 104.549804688 m 0,34,35
 338 104.549804688 338 104.549804688 375.5 119.849609375 c 128,-1,36
 413 135.150390625 413 135.150390625 425 187.849609375 c 0,37,38
 486 442 486 442 486 443.700195312 c 0,39,40
 485 463.25 485 463.25 470.5 467.5 c 128,-1,41
 456 471.75 456 471.75 402 471.75 c 0,42,43
 360 471.75 360 471.75 311 446.25 c 128,-1,44
 262 420.75 262 420.75 222.5 381.650390625 c 128,-1,45
 183 342.549804688 183 342.549804688 157 290.700195312 c 128,-1,46
 131 238.849609375 131 238.849609375 132 191.25 c 0,47,48
 134 151.299804688 134 151.299804688 164 127.924804688 c 128,-1,49
 194 104.549804688 194 104.549804688 242 104.549804688 c 0,34,35
134 -109.650390625 m 0,50,51
 235 -109.650390625 235 -109.650390625 312 -56.9501953125 c 1,52,53
 217 -61.2001953125 217 -61.2001953125 147.5 -73.9501953125 c 128,-1,54
 78 -86.7001953125 78 -86.7001953125 77 -99.4501953125 c 0,55,56
 77 -102 77 -102 84.5 -104.125 c 128,-1,57
 92 -106.25 92 -106.25 105.5 -107.950195312 c 128,-1,58
 119 -109.650390625 119 -109.650390625 134 -109.650390625 c 0,50,51
EndSplineSet
Validated: 33
Substitution2: "'sups' Superscript lookup 20 subtable" g.sups
Substitution2: "'ss03' Style Set 3 lookup 1 subtable" g.a
EndChar

StartChar: h
Encoding: 104 104 35
Width: 600
VWidth: 1100
GlyphClass: 2
Flags: W
HStem: -11.9 17.85G<420 466.5> -11.9 65.45<462.5 466.5> 0 17.85G<-1 82 -1 -1> 471.75 65.45<349 413> 663 17G<168 251 251 251>
VStem: 362 82 454 83
LayerCount: 2
Fore
SplineSet
519 84.150390625 m 1,0,-1
 555 27.2001953125 l 1,1,2
 541 9.349609375 541 9.349609375 509.5 -1.275390625 c 128,-1,3
 478 -11.900390625 478 -11.900390625 445 -11.900390625 c 0,4,5
 408 -11.900390625 408 -11.900390625 385 4.25 c 128,-1,6
 362 20.400390625 362 20.400390625 362 47.599609375 c 0,7,8
 359 107.950195312 359 107.950195312 440 338.299804688 c 0,9,10
 488 471.75 488 471.75 376 471.75 c 0,11,12
 311 471.75 311 471.75 235.5 394.400390625 c 128,-1,13
 160 317.049804688 160 317.049804688 141 237.150390625 c 2,14,-1
 82 0 l 1,15,-1
 -1 0 l 1,16,-1
 168 680 l 1,17,-1
 251 680 l 1,18,-1
 189 430.950195312 l 1,19,20
 280 537.200195312 280 537.200195312 384 537.200195312 c 0,21,22
 592 537.200195312 592 537.200195312 518 330.650390625 c 0,23,24
 445 126.650390625 445 126.650390625 444 71.400390625 c 0,25,26
 446 53.5498046875 446 53.5498046875 470 53.5498046875 c 0,27,28
 498 53.5498046875 498 53.5498046875 519 84.150390625 c 1,0,-1
EndSplineSet
Validated: 33
Substitution2: "'sups' Superscript lookup 20 subtable" h.sups
EndChar

StartChar: i
Encoding: 105 105 36
Width: 600
VWidth: 1100
GlyphClass: 2
Flags: W
HStem: -11.9 65.45<291 361.5 291 370> 508.3 17G<212 212> 619.65 110.5<323 355.5>
VStem: 153 84 238 84 268 143
LayerCount: 2
Fore
SplineSet
332 619.650390625 m 0,0,1
 289 619.650390625 289 619.650390625 276 632.400390625 c 128,-1,2
 263 645.150390625 263 645.150390625 271 680 c 0,3,4
 278 708.900390625 278 708.900390625 294.5 719.525390625 c 128,-1,5
 311 730.150390625 311 730.150390625 347 730.150390625 c 0,6,7
 390 730.150390625 390 730.150390625 403 717.400390625 c 128,-1,8
 416 704.650390625 416 704.650390625 407 670.650390625 c 0,9,10
 400 641.75 400 641.75 384 630.700195312 c 128,-1,11
 368 619.650390625 368 619.650390625 332 619.650390625 c 0,0,1
331 -11.900390625 m 0,12,13
 208 -11.900390625 208 -11.900390625 171.5 39.9501953125 c 128,-1,14
 135 91.7998046875 135 91.7998046875 175 222.700195312 c 2,15,-1
 235 403.75 l 2,16,17
 242 428.400390625 242 428.400390625 232.5 441.575195312 c 128,-1,18
 223 454.75 223 454.75 192 459.849609375 c 1,19,-1
 212 525.299804688 l 1,20,21
 275 516.799804688 275 516.799804688 303.5 488.325195312 c 128,-1,22
 332 459.849609375 332 459.849609375 318 414.799804688 c 2,23,-1
 256 222.700195312 l 2,24,25
 226 124.099609375 226 124.099609375 245.5 88.8251953125 c 128,-1,26
 265 53.5498046875 265 53.5498046875 338 53.5498046875 c 0,27,28
 373 53.5498046875 373 53.5498046875 396 68 c 128,-1,29
 419 82.4501953125 419 82.4501953125 455 124.099609375 c 1,30,-1
 518 86.7001953125 l 1,31,32
 471 30.599609375 471 30.599609375 430.5 9.349609375 c 128,-1,33
 390 -11.900390625 390 -11.900390625 331 -11.900390625 c 0,12,13
EndSplineSet
Validated: 33
Substitution2: "Single Substitution lookup 28 subtable" dotlessi
Substitution2: "'sups' Superscript lookup 20 subtable" i.sups
EndChar

StartChar: j
Encoding: 106 106 37
Width: 600
VWidth: 1100
GlyphClass: 2
Flags: W
HStem: -175.1 65.45<58.5 106.5 58.5 117.5> -56.95 69.7 619.65 110.5<492 524.5>
VStem: -64 81<-101.575 -99.45 -101.575 -70.55> 421 86 437 143
LayerCount: 2
Fore
SplineSet
501 619.650390625 m 0,0,1
 458 619.650390625 458 619.650390625 445 632.400390625 c 128,-1,2
 432 645.150390625 432 645.150390625 440 680 c 0,3,4
 447 708.900390625 447 708.900390625 463.5 719.525390625 c 128,-1,5
 480 730.150390625 480 730.150390625 516 730.150390625 c 0,6,7
 559 730.150390625 559 730.150390625 572 717.400390625 c 128,-1,8
 585 704.650390625 585 704.650390625 576 670.650390625 c 0,9,10
 569 641.75 569 641.75 553 630.700195312 c 128,-1,11
 537 619.650390625 537 619.650390625 501 619.650390625 c 0,0,1
55 -175.099609375 m 0,12,13
 1 -175.099609375 1 -175.099609375 -32 -155.974609375 c 128,-1,14
 -65 -136.849609375 -65 -136.849609375 -64 -105.400390625 c 0,15,16
 -64 -53.5498046875 -64 -53.5498046875 37.5 -21.6748046875 c 128,-1,17
 139 10.2001953125 139 10.2001953125 310 12.75 c 1,18,19
 327 49.2998046875 327 49.2998046875 360.5 168.724609375 c 128,-1,20
 394 288.150390625 394 288.150390625 421 400.349609375 c 0,21,22
 427 425 427 425 418 438.174804688 c 128,-1,23
 409 451.349609375 409 451.349609375 378 456.450195312 c 1,24,-1
 400 521.900390625 l 1,25,26
 527 504.049804688 527 504.049804688 504 410.549804688 c 0,27,28
 429 90.9501953125 429 90.9501953125 389 8.5 c 1,29,30
 427 9.349609375 427 9.349609375 483 25.5 c 1,31,-1
 458 -44.2001953125 l 1,32,33
 425 -54.400390625 425 -54.400390625 356 -56.099609375 c 1,34,35
 313 -110.5 313 -110.5 231 -142.799804688 c 128,-1,36
 149 -175.099609375 149 -175.099609375 55 -175.099609375 c 0,12,13
74 -109.650390625 m 0,37,38
 175 -109.650390625 175 -109.650390625 252 -56.9501953125 c 1,39,40
 157 -61.2001953125 157 -61.2001953125 87.5 -73.9501953125 c 128,-1,41
 18 -86.7001953125 18 -86.7001953125 17 -99.4501953125 c 0,42,43
 17 -102 17 -102 24.5 -104.125 c 128,-1,44
 32 -106.25 32 -106.25 45.5 -107.950195312 c 128,-1,45
 59 -109.650390625 59 -109.650390625 74 -109.650390625 c 0,37,38
EndSplineSet
Validated: 33
Substitution2: "Single Substitution lookup 28 subtable" uni0237
Substitution2: "'sups' Superscript lookup 20 subtable" j.sups
EndChar

StartChar: k
Encoding: 107 107 38
Width: 600
VWidth: 1100
GlyphClass: 2
Flags: W
HStem: -11.9 65.45<405 424 405 425> 0 17.85G<25 108 25 25> 477.7 65.45<384 431.5> 663 17G<194 278 278 278>
VStem: 494 80
LayerCount: 2
Fore
SplineSet
414 53.5498046875 m 0,0,1
 429 53.5498046875 429 53.5498046875 445.5 71.8251953125 c 128,-1,2
 462 90.099609375 462 90.099609375 475 119.849609375 c 1,3,-1
 533 62.0498046875 l 1,4,5
 466 -11.900390625 466 -11.900390625 402 -11.900390625 c 0,6,7
 314 -11.900390625 314 -11.900390625 304 143.650390625 c 0,8,9
 303 173.400390625 303 173.400390625 286.5 201.025390625 c 128,-1,10
 270 228.650390625 270 228.650390625 246 243.950195312 c 1,11,-1
 280 296.650390625 l 1,12,13
 376 294.099609375 376 294.099609375 436 327.674804688 c 128,-1,14
 496 361.25 496 361.25 494 417.349609375 c 0,15,16
 493 442.849609375 493 442.849609375 468 460.275390625 c 128,-1,17
 443 477.700195312 443 477.700195312 411 477.700195312 c 0,18,19
 336 477.700195312 336 477.700195312 274.5 426.700195312 c 128,-1,20
 213 375.700195312 213 375.700195312 180 288.150390625 c 1,21,-1
 108 0 l 1,22,-1
 25 0 l 1,23,-1
 194 680 l 1,24,-1
 278 680 l 1,25,-1
 227 475.150390625 l 1,26,27
 313 543.150390625 313 543.150390625 420 543.150390625 c 0,28,29
 485 543.150390625 485 543.150390625 529 510.849609375 c 128,-1,30
 573 478.549804688 573 478.549804688 574 427.549804688 c 0,31,32
 575 359.549804688 575 359.549804688 517 306.849609375 c 128,-1,33
 459 254.150390625 459 254.150390625 363 236.299804688 c 1,34,35
 386 193.799804688 386 193.799804688 388 153 c 0,36,37
 391 53.5498046875 391 53.5498046875 414 53.5498046875 c 0,0,1
EndSplineSet
Validated: 33
Substitution2: "'sups' Superscript lookup 20 subtable" k.sups
EndChar

StartChar: l
Encoding: 108 108 39
Width: 600
VWidth: 1100
GlyphClass: 2
Flags: W
HStem: -11.9 65.45<316.5 354 316.5 360> -0.85 17.85G<-21 -21> 625.6 66.3<356 404>
VStem: 189 78 433 83<516.375 587.35>
LayerCount: 2
Fore
SplineSet
335 53.5498046875 m 128,-1,1
 363 53.5498046875 363 53.5498046875 396.5 73.9501953125 c 128,-1,2
 430 94.349609375 430 94.349609375 452 124.950195312 c 1,3,-1
 515 85.849609375 l 1,4,5
 480 41.650390625 480 41.650390625 428.5 14.875 c 128,-1,6
 377 -11.900390625 377 -11.900390625 328 -11.900390625 c 0,7,8
 271 -11.900390625 271 -11.900390625 234 18.7001953125 c 128,-1,9
 197 49.2998046875 197 49.2998046875 189 101.150390625 c 1,10,11
 90 38.25 90 38.25 -21 -0.849609375 c 1,12,-1
 -48 58.650390625 l 1,13,14
 79 103.700195312 79 103.700195312 187 186.150390625 c 1,15,16
 193 691.900390625 193 691.900390625 397 691.900390625 c 0,17,18
 452 691.900390625 452 691.900390625 484 659.599609375 c 128,-1,19
 516 627.299804688 516 627.299804688 516 569.5 c 0,20,21
 516 464.099609375 516 464.099609375 449 355.299804688 c 128,-1,22
 382 246.5 382 246.5 267 156.400390625 c 1,23,24
 269 111.349609375 269 111.349609375 288 82.4501953125 c 128,-1,0
 307 53.5498046875 307 53.5498046875 335 53.5498046875 c 128,-1,1
389 625.599609375 m 0,25,26
 341 625.599609375 341 625.599609375 306.5 518.075195312 c 128,-1,27
 272 410.549804688 272 410.549804688 267 254.150390625 c 1,28,29
 345 328.950195312 345 328.950195312 389 410.974609375 c 128,-1,30
 433 493 433 493 433 566.099609375 c 0,31,32
 433 625.599609375 433 625.599609375 389 625.599609375 c 0,25,26
EndSplineSet
Validated: 1
Substitution2: "'sups' Superscript lookup 20 subtable" l.sups
EndChar

StartChar: m
Encoding: 109 109 40
Width: 600
VWidth: 1100
GlyphClass: 2
Flags: W
HStem: -11.9 17.85G<458.5 505.5> -11.9 65.45<501.5 505.5> 0 17.85G<3 86 3 3 198 280 198 198> 471.75 65.45<94.5 100 263 295 462.5 495.5>
VStem: 114 74 303 69 401 82 505 82
LayerCount: 2
Fore
SplineSet
484 -11.900390625 m 0,0,1
 446 -11.900390625 446 -11.900390625 424.5 4.25 c 128,-1,2
 403 20.400390625 403 20.400390625 401 47.599609375 c 0,3,4
 400 108.799804688 400 108.799804688 480 338.299804688 c 0,5,6
 489 362.950195312 489 362.950195312 494.5 382.075195312 c 128,-1,7
 500 401.200195312 500 401.200195312 502.5 416.075195312 c 128,-1,8
 505 430.950195312 505 430.950195312 505 441.575195312 c 128,-1,9
 505 452.200195312 505 452.200195312 502 459 c 128,-1,10
 499 465.799804688 499 465.799804688 493 468.775390625 c 128,-1,11
 487 471.75 487 471.75 479 471.75 c 0,12,13
 425 471.75 425 471.75 399.5 429.25 c 128,-1,14
 374 386.75 374 386.75 341 249.900390625 c 2,15,-1
 280 0 l 1,16,-1
 198 0 l 1,17,-1
 281 336.599609375 l 2,18,19
 305.2734375 434.811523438 305.2734375 434.811523438 301.85546875 453.0625 c 0,20,21
 298.354492188 471.75 298.354492188 471.75 274 471.75 c 0,22,23
 249 471.75 249 471.75 234.5 464.525390625 c 128,-1,24
 220 457.299804688 220 457.299804688 205.5 431.375 c 128,-1,25
 191 405.450195312 191 405.450195312 178.5 365.075195312 c 128,-1,26
 166 324.700195312 166 324.700195312 147 248.200195312 c 2,27,-1
 86 0 l 1,28,-1
 3 0 l 1,29,-1
 114 439.450195312 l 2,30,31
 114 440.299804688 114 440.299804688 115.5 445.825195312 c 128,-1,32
 117 451.349609375 117 451.349609375 116 454.75 c 0,33,34
 113 471.75 113 471.75 93 471.75 c 0,35,36
 76 471.75 76 471.75 41 445.400390625 c 1,37,-1
 6 498.099609375 l 1,38,39
 20 515.950195312 20 515.950195312 51.5 526.575195312 c 128,-1,40
 83 537.200195312 83 537.200195312 116 537.200195312 c 0,41,42
 179 537.200195312 179 537.200195312 188 487.049804688 c 1,43,44
 238 537.200195312 238 537.200195312 282 537.200195312 c 0,45,46
 310 537.200195312 310 537.200195312 328 531.674804688 c 128,-1,47
 346 526.150390625 346 526.150390625 354.5 514.674804688 c 128,-1,48
 363 503.200195312 363 503.200195312 366.5 494.700195312 c 128,-1,49
 370 486.200195312 370 486.200195312 372 470.900390625 c 1,50,51
 402 506.599609375 402 506.599609375 427 521.900390625 c 128,-1,52
 452 537.200195312 452 537.200195312 487 537.200195312 c 0,53,54
 641 537.200195312 641 537.200195312 557 330.650390625 c 0,55,56
 479 137.700195312 479 137.700195312 483 71.400390625 c 0,57,58
 485 53.5498046875 485 53.5498046875 509 53.5498046875 c 0,59,60
 535 53.5498046875 535 53.5498046875 558 84.150390625 c 1,61,-1
 594 27.2001953125 l 1,62,63
 580 9.349609375 580 9.349609375 548.5 -1.275390625 c 128,-1,64
 517 -11.900390625 517 -11.900390625 484 -11.900390625 c 0,0,1
EndSplineSet
Validated: 33
Substitution2: "'sups' Superscript lookup 20 subtable" m.sups
EndChar

StartChar: n
Encoding: 110 110 41
Width: 600
VWidth: 1100
GlyphClass: 2
Flags: W
HStem: -11.9 17.85G<428 474.5> -11.9 65.45<471 474.5> 0 17.85G<27 111 27 27> 471.75 65.45<119 122.5 371.5 427>
VStem: 140 86 371 82 464 84
LayerCount: 2
Fore
SplineSet
528 84.150390625 m 1,0,-1
 563 27.2001953125 l 1,1,2
 550 10.2001953125 550 10.2001953125 518 -0.849609375 c 128,-1,3
 486 -11.900390625 486 -11.900390625 453 -11.900390625 c 0,4,5
 416 -11.900390625 416 -11.900390625 394 4.25 c 128,-1,6
 372 20.400390625 372 20.400390625 371 47.599609375 c 0,7,8
 369 86.7001953125 369 86.7001953125 389 165.325195312 c 128,-1,9
 409 243.950195312 409 243.950195312 448 339.150390625 c 0,10,11
 474 408 474 408 459.5 439.875 c 128,-1,12
 445 471.75 445 471.75 395 471.75 c 0,13,14
 337 471.75 337 471.75 263.5 397.799804688 c 128,-1,15
 190 323.849609375 190 323.849609375 172 249.049804688 c 2,16,-1
 111 0 l 1,17,-1
 27 0 l 1,18,-1
 138 439.450195312 l 2,19,20
 141 452.200195312 141 452.200195312 140 454.75 c 0,21,22
 137 471.75 137 471.75 116 471.75 c 0,23,24
 100 471.75 100 471.75 65 445.400390625 c 1,25,-1
 31 498.099609375 l 1,26,27
 44 515.099609375 44 515.099609375 75.5 526.150390625 c 128,-1,28
 107 537.200195312 107 537.200195312 140 537.200195312 c 0,29,30
 184 537.200195312 184 537.200195312 210 511.275390625 c 128,-1,31
 236 485.349609375 236 485.349609375 222 450.5 c 2,32,-1
 214 426.700195312 l 1,33,34
 257 478.549804688 257 478.549804688 306.5 507.875 c 128,-1,35
 356 537.200195312 356 537.200195312 402 537.200195312 c 0,36,37
 500 537.200195312 500 537.200195312 532.5 484.5 c 128,-1,38
 565 431.799804688 565 431.799804688 527 331.5 c 0,39,40
 448 128.349609375 448 128.349609375 453 71.400390625 c 0,41,42
 453 53.5498046875 453 53.5498046875 478 53.5498046875 c 0,43,44
 505 53.5498046875 505 53.5498046875 528 84.150390625 c 1,0,-1
EndSplineSet
Validated: 33
Substitution2: "'sups' Superscript lookup 20 subtable" n.sups
EndChar

StartChar: o
Encoding: 111 111 42
Width: 600
VWidth: 1100
GlyphClass: 2
Flags: W
HStem: -11.9 65.45<188 289 188 305> 471.75 65.45<311 412>
VStem: 52 78 468 82
LayerCount: 2
Fore
SplineSet
236 -11.900390625 m 0,0,1
 105 -11.900390625 105 -11.900390625 69.5 50.5751953125 c 128,-1,2
 34 113.049804688 34 113.049804688 72 266.049804688 c 0,3,4
 99 384.200195312 99 384.200195312 180 460.700195312 c 128,-1,5
 261 537.200195312 261 537.200195312 364 537.200195312 c 0,6,7
 496 537.200195312 496 537.200195312 532.5 474.724609375 c 128,-1,8
 569 412.25 569 412.25 528 259.25 c 0,9,10
 497 140.25 497 140.25 417.5 64.1748046875 c 128,-1,11
 338 -11.900390625 338 -11.900390625 236 -11.900390625 c 0,0,1
244 53.5498046875 m 0,12,13
 312 53.5498046875 312 53.5498046875 371 113.900390625 c 128,-1,14
 430 174.25 430 174.25 452 266.049804688 c 0,15,16
 480 384.200195312 480 384.200195312 459.5 427.974609375 c 128,-1,17
 439 471.75 439 471.75 356 471.75 c 0,18,19
 289 471.75 289 471.75 231 411.825195312 c 128,-1,20
 173 351.900390625 173 351.900390625 148 259.25 c 0,21,22
 118 141.099609375 118 141.099609375 139 97.3251953125 c 128,-1,23
 160 53.5498046875 160 53.5498046875 244 53.5498046875 c 0,12,13
EndSplineSet
Validated: 33
Substitution2: "'sups' Superscript lookup 20 subtable" o.sups
EndChar

StartChar: p
Encoding: 112 112 43
Width: 600
VWidth: 1100
GlyphClass: 2
Flags: W
HStem: -154.7 17.85G<1 84 1 1> -11.9 65.45<230.5 314 214.5 330> 471.75 65.45<130.5 134 362 436.5>
VStem: 150 82 489 77
LayerCount: 2
Fore
SplineSet
390 537.200195312 m 0,0,1
 519 537.200195312 519 537.200195312 551 476 c 128,-1,2
 583 414.799804688 583 414.799804688 544 259.25 c 0,3,4
 516 138.549804688 516 138.549804688 439.5 63.3251953125 c 128,-1,5
 363 -11.900390625 363 -11.900390625 262 -11.900390625 c 0,6,7
 160 -11.900390625 160 -11.900390625 130 17.849609375 c 1,8,-1
 84 -154.700195312 l 1,9,-1
 1 -154.700195312 l 1,10,-1
 101 243.099609375 l 2,11,12
 102.5 252.025390625 102.5 252.025390625 107 266.049804688 c 0,13,14
 110 279.650390625 110 279.650390625 112 284.75 c 2,15,-1
 150 439.450195312 l 2,16,17
 150 444.549804688 150 444.549804688 152 454.75 c 0,18,19
 150 471.75 150 471.75 127 471.75 c 0,20,21
 99 471.75 99 471.75 78 441.150390625 c 1,22,-1
 42 498.099609375 l 1,23,24
 56 515.950195312 56 515.950195312 87.5 526.575195312 c 128,-1,25
 119 537.200195312 119 537.200195312 152 537.200195312 c 0,26,27
 235 537.200195312 235 537.200195312 232 481.099609375 c 1,28,29
 260 507.450195312 260 507.450195312 303 522.325195312 c 128,-1,30
 346 537.200195312 346 537.200195312 390 537.200195312 c 0,0,1
468 266.049804688 m 0,31,32
 499 387.599609375 499 387.599609375 481.5 429.674804688 c 128,-1,33
 464 471.75 464 471.75 382 471.75 c 0,34,35
 308 471.75 308 471.75 262 428.825195312 c 128,-1,36
 216 385.900390625 216 385.900390625 192 284.75 c 2,37,-1
 176 214.200195312 l 2,38,39
 165 169.150390625 165 169.150390625 162 141.950195312 c 128,-1,40
 159 114.75 159 114.75 161.5 95.625 c 128,-1,41
 164 76.5 164 76.5 179 68 c 128,-1,42
 194 59.5 194 59.5 214 56.525390625 c 128,-1,43
 234 53.5498046875 234 53.5498046875 270 53.5498046875 c 0,44,45
 335 53.5498046875 335 53.5498046875 388.5 111.775390625 c 128,-1,46
 442 170 442 170 468 266.049804688 c 0,31,32
EndSplineSet
Validated: 33
Substitution2: "'sups' Superscript lookup 20 subtable" p.sups
EndChar

StartChar: q
Encoding: 113 113 44
Width: 600
VWidth: 1100
GlyphClass: 2
Flags: W
HStem: -154.7 17.85G<325 408 325 325> -11.9 65.45<179.5 253> 471.75 53.55 471.75 65.45<302 388.5 286 400>
VStem: 51 76 450 34
LayerCount: 2
Fore
SplineSet
484 498.099609375 m 1,0,-1
 495 525.299804688 l 1,1,-1
 577 525.299804688 l 1,2,-1
 408 -154.700195312 l 1,3,-1
 325 -154.700195312 l 1,4,-1
 373 35.7001953125 l 1,5,6
 347 15.2998046875 347 15.2998046875 306.5 1.7001953125 c 128,-1,7
 266 -11.900390625 266 -11.900390625 226 -11.900390625 c 0,8,9
 97 -11.900390625 97 -11.900390625 65 49.2998046875 c 128,-1,10
 33 110.5 33 110.5 72 266.049804688 c 0,11,12
 100 386.75 100 386.75 176.5 461.974609375 c 128,-1,13
 253 537.200195312 253 537.200195312 354 537.200195312 c 0,14,15
 453 537.200195312 453 537.200195312 484 498.099609375 c 1,0,-1
234 53.5498046875 m 0,16,17
 312 53.5498046875 312 53.5498046875 358.5 97.3251953125 c 128,-1,18
 405 141.099609375 405 141.099609375 427 249.049804688 c 2,19,-1
 435 289.849609375 l 2,20,21
 445 339.150390625 445 339.150390625 448.5 368.900390625 c 128,-1,22
 452 398.650390625 452 398.650390625 449.5 420.75 c 128,-1,23
 447 442.849609375 447 442.849609375 433.5 453.049804688 c 128,-1,24
 420 463.25 420 463.25 400 467.5 c 128,-1,25
 380 471.75 380 471.75 346 471.75 c 0,26,27
 281 471.75 281 471.75 227.5 413.525390625 c 128,-1,28
 174 355.299804688 174 355.299804688 148 259.25 c 0,29,30
 117 137.700195312 117 137.700195312 134.5 95.625 c 128,-1,31
 152 53.5498046875 152 53.5498046875 234 53.5498046875 c 0,16,17
EndSplineSet
Validated: 33
Substitution2: "'sups' Superscript lookup 20 subtable" q.sups
EndChar

StartChar: r
Encoding: 114 114 45
Width: 600
VWidth: 1100
GlyphClass: 2
Flags: W
HStem: -11.9 65.45<386 412 386 424> 359.55 65.45 489.6 47.6<146 164>
VStem: 59 64<452.2 453.9> 183 71<447.525 447.95 444.55 462.4> 279 80
LayerCount: 2
Fore
SplineSet
473 113.900390625 m 1,0,-1
 548 92.650390625 l 1,1,2
 531 45.900390625 531 45.900390625 486.5 17 c 128,-1,3
 442 -11.900390625 442 -11.900390625 389 -11.900390625 c 0,4,5
 339 -11.900390625 339 -11.900390625 309 15.724609375 c 128,-1,6
 279 43.349609375 279 43.349609375 279 88.400390625 c 0,7,8
 278 221 278 221 396 395.25 c 1,9,10
 301 359.549804688 301 359.549804688 233 359.549804688 c 2,11,-1
 227 359.549804688 l 1,12,13
 188 286.450195312 188 286.450195312 108 212.5 c 1,14,-1
 61 267.75 l 1,15,16
 117 315.349609375 117 315.349609375 152 368.049804688 c 1,17,18
 59 391 59 391 59 453.900390625 c 0,19,20
 58 490.450195312 58 490.450195312 88 513.825195312 c 128,-1,21
 118 537.200195312 118 537.200195312 165 537.200195312 c 0,22,23
 206 537.200195312 206 537.200195312 230.5 512.549804688 c 128,-1,24
 255 487.900390625 255 487.900390625 254 447.950195312 c 0,25,26
 254 442 254 442 252 425 c 1,27,28
 297 428.400390625 297 428.400390625 363 451.775390625 c 128,-1,29
 429 475.150390625 429 475.150390625 493 510.849609375 c 1,30,-1
 547 478.549804688 l 1,31,32
 358 243.099609375 358 243.099609375 359 94.349609375 c 0,33,34
 360 75.650390625 360 75.650390625 370.5 64.599609375 c 128,-1,35
 381 53.5498046875 381 53.5498046875 396 53.5498046875 c 0,36,37
 420 53.5498046875 420 53.5498046875 442 70.5498046875 c 128,-1,38
 464 87.5498046875 464 87.5498046875 473 113.900390625 c 1,0,-1
123 462.400390625 m 0,39,40
 123 435.200195312 123 435.200195312 180 427.549804688 c 1,41,42
 183 440.299804688 183 440.299804688 183 451.349609375 c 0,43,44
 183 489.599609375 183 489.599609375 155 489.599609375 c 0,45,46
 142 489.599609375 142 489.599609375 132.5 481.950195312 c 128,-1,47
 123 474.299804688 123 474.299804688 123 462.400390625 c 0,39,40
EndSplineSet
Validated: 33
Substitution2: "'sups' Superscript lookup 20 subtable" r.sups
EndChar

StartChar: s
Encoding: 115 115 46
Width: 600
VWidth: 1100
GlyphClass: 2
Flags: W
HStem: -11.9 65.45<185.5 264.5 185.5 284.5> 215.05 66.3<86 96> 490.45 46.75<330 337>
VStem: 249 64 362 65 378 80<210.8 242.25 210.8 242.25>
LayerCount: 2
Fore
SplineSet
217 -11.900390625 m 0,0,1
 144 -11.900390625 144 -11.900390625 86 18.275390625 c 128,-1,2
 28 48.4501953125 28 48.4501953125 -3 100.299804688 c 1,3,-1
 72 131.75 l 1,4,5
 90 96.900390625 90 96.900390625 130 75.224609375 c 128,-1,6
 170 53.5498046875 170 53.5498046875 214 53.5498046875 c 0,7,8
 289 53.5498046875 289 53.5498046875 333.5 106.25 c 128,-1,9
 378 158.950195312 378 158.950195312 378 242.25 c 0,10,11
 377 276.25 377 276.25 348 320.450195312 c 1,12,13
 302 277.099609375 302 277.099609375 233 248.200195312 c 128,-1,14
 164 219.299804688 164 219.299804688 96 215.049804688 c 1,15,-1
 86 281.349609375 l 1,16,17
 147 283.049804688 147 283.049804688 206 309.400390625 c 128,-1,18
 265 335.75 265 335.75 300 375.700195312 c 1,19,20
 246 423.299804688 246 423.299804688 249 461.549804688 c 1,21,22
 247 494.700195312 247 494.700195312 272 515.950195312 c 128,-1,23
 297 537.200195312 297 537.200195312 338 537.200195312 c 128,-1,24
 379 537.200195312 379 537.200195312 403 517.650390625 c 128,-1,25
 427 498.099609375 427 498.099609375 427 464.950195312 c 0,26,27
 429 423.299804688 429 423.299804688 398 384.200195312 c 1,28,29
 459 311.950195312 459 311.950195312 458 242.25 c 0,30,31
 458 149.599609375 458 149.599609375 399 85 c 1,32,33
 469 114.75 469 114.75 500 144.5 c 1,34,-1
 548 99.4501953125 l 1,35,36
 504 49.2998046875 504 49.2998046875 411.5 18.7001953125 c 128,-1,37
 319 -11.900390625 319 -11.900390625 217 -11.900390625 c 0,0,1
342 413.950195312 m 1,38,39
 360 438.599609375 360 438.599609375 362 460.700195312 c 0,40,41
 365 488.75 365 488.75 337 490.450195312 c 0,42,43
 313 490.450195312 313 490.450195312 313 468.349609375 c 128,-1,44
 313 446.25 313 446.25 342 413.950195312 c 1,38,39
EndSplineSet
Validated: 33
Substitution2: "'sups' Superscript lookup 20 subtable" s.sups
EndChar

StartChar: t
Encoding: 116 116 47
Width: 600
VWidth: 1100
GlyphClass: 2
Flags: W
HStem: -11.9 65.45<271 346 271 355> 459.85 65.45<121 228 104 245 121 311 327 519> 663 17G<282 365 365 365>
VStem: 149 82
LayerCount: 2
Fore
SplineSet
301 -11.900390625 m 0,0,1
 198 -11.900390625 198 -11.900390625 166.5 34.4248046875 c 128,-1,2
 135 80.75 135 80.75 161 188.700195312 c 2,3,-1
 228 459.849609375 l 1,4,-1
 104 459.849609375 l 1,5,-1
 121 525.299804688 l 1,6,-1
 245 525.299804688 l 1,7,-1
 282 680 l 1,8,-1
 365 680 l 1,9,-1
 327 525.299804688 l 1,10,-1
 535 525.299804688 l 1,11,-1
 519 459.849609375 l 1,12,-1
 311 459.849609375 l 1,13,-1
 241 185.299804688 l 2,14,15
 223 111.349609375 223 111.349609375 237.5 82.4501953125 c 128,-1,16
 252 53.5498046875 252 53.5498046875 309 53.5498046875 c 0,17,18
 363 53.5498046875 363 53.5498046875 386.5 65.025390625 c 128,-1,19
 410 76.5 410 76.5 432 110.5 c 1,20,-1
 504 82.4501953125 l 1,21,22
 470 28.0498046875 470 28.0498046875 426 8.0751953125 c 128,-1,23
 382 -11.900390625 382 -11.900390625 301 -11.900390625 c 0,0,1
EndSplineSet
Validated: 33
Substitution2: "'sups' Superscript lookup 20 subtable" t.sups
EndChar

StartChar: u
Encoding: 117 117 48
Width: 600
VWidth: 1100
GlyphClass: 2
Flags: W
HStem: -11.9 65.45<172 231.5 471 474.5> 471.75 65.45<118.5 122.5> 508.3 17G<483 566 566 566> 520.2 17G<118.5 165>
VStem: 46 83 141 82 367 88
LayerCount: 2
Fore
SplineSet
66 441.150390625 m 1,0,-1
 30 498.099609375 l 1,1,2
 44 515.950195312 44 515.950195312 75.5 526.575195312 c 128,-1,3
 107 537.200195312 107 537.200195312 140 537.200195312 c 0,4,5
 177 537.200195312 177 537.200195312 199 521.049804688 c 128,-1,6
 221 504.900390625 221 504.900390625 223 477.700195312 c 0,7,8
 224 438.599609375 224 438.599609375 203.5 359.549804688 c 128,-1,9
 183 280.5 183 280.5 145 186.150390625 c 0,10,11
 93 53.5498046875 93 53.5498046875 209 53.5498046875 c 0,12,13
 266 53.5498046875 266 53.5498046875 335 127.075195312 c 128,-1,14
 404 200.599609375 404 200.599609375 422 276.25 c 2,15,-1
 483 525.299804688 l 1,16,-1
 566 525.299804688 l 1,17,-1
 455 85.849609375 l 2,18,19
 455 84.150390625 455 84.150390625 453.5 79.0498046875 c 128,-1,20
 452 73.9501953125 452 73.9501953125 453 70.5498046875 c 0,21,22
 456 53.5498046875 456 53.5498046875 478 53.5498046875 c 0,23,24
 494 53.5498046875 494 53.5498046875 528 79.900390625 c 1,25,-1
 563 27.2001953125 l 1,26,27
 549 9.349609375 549 9.349609375 517.5 -1.275390625 c 128,-1,28
 486 -11.900390625 486 -11.900390625 453 -11.900390625 c 0,29,30
 409 -11.900390625 409 -11.900390625 383 14.025390625 c 128,-1,31
 357 39.9501953125 357 39.9501953125 371 74.7998046875 c 2,32,-1
 380 98.599609375 l 1,33,34
 288 -11.900390625 288 -11.900390625 201 -11.900390625 c 0,35,36
 96 -11.900390625 96 -11.900390625 62 40.7998046875 c 128,-1,37
 28 93.5 28 93.5 67 193.799804688 c 0,38,39
 145 397.799804688 145 397.799804688 141 453.900390625 c 0,40,41
 139 471.75 139 471.75 115 471.75 c 0,42,43
 87 471.75 87 471.75 66 441.150390625 c 1,0,-1
EndSplineSet
Validated: 33
Substitution2: "'sups' Superscript lookup 20 subtable" u.sups
EndChar

StartChar: v
Encoding: 118 118 49
Width: 600
VWidth: 1100
GlyphClass: 2
Flags: W
HStem: -0.85 17.85G<195 195> 508.3 17G<112 196 196 196 529 613 613 613>
VStem: 112 501<525.3 525.3>
LayerCount: 2
Fore
SplineSet
273 0 m 1,0,-1
 195 -0.849609375 l 1,1,-1
 112 525.299804688 l 1,2,-1
 196 525.299804688 l 1,3,-1
 261 112.200195312 l 1,4,5
 289 151.299804688 289 151.299804688 362 242.674804688 c 128,-1,6
 435 334.049804688 435 334.049804688 475.5 399.075195312 c 128,-1,7
 516 464.099609375 516 464.099609375 529 525.299804688 c 1,8,-1
 613 525.299804688 l 1,9,10
 593 446.25 593 446.25 535.5 359.125 c 128,-1,11
 478 272 478 272 395.5 168.299804688 c 128,-1,12
 313 64.599609375 313 64.599609375 273 0 c 1,0,-1
EndSplineSet
Validated: 1
Substitution2: "'sups' Superscript lookup 20 subtable" v.sups
EndChar

StartChar: w
Encoding: 119 119 50
Width: 600
VWidth: 1100
GlyphClass: 2
Flags: W
HStem: 0 17.85G<66 147 66 66 327 409 327 327> 508.3 17G<85 169 169 169 560 643 643 643>
VStem: 75.5 85
LayerCount: 2
Fore
SplineSet
560 525.299804688 m 1,0,-1
 643 525.299804688 l 1,1,2
 623 442.849609375 623 442.849609375 585 357.849609375 c 128,-1,3
 547 272.849609375 547 272.849609375 492.5 169.150390625 c 128,-1,4
 438 65.4501953125 438 65.4501953125 409 0 c 1,5,-1
 327 0 l 1,6,-1
 300 221 l 1,7,8
 281 192.099609375 281 192.099609375 227 117.724609375 c 128,-1,9
 173 43.349609375 173 43.349609375 147 0 c 1,10,-1
 66 0 l 1,11,-1
 85 525.299804688 l 1,12,-1
 169 525.299804688 l 1,13,-1
 152 128.349609375 l 1,14,15
 154 130.900390625 154 130.900390625 170 153.424804688 c 128,-1,16
 186 175.950195312 186 175.950195312 189.5 180.625 c 128,-1,17
 193 185.299804688 193 185.299804688 206.5 204.849609375 c 128,-1,18
 220 224.400390625 220 224.400390625 224 231.625 c 128,-1,19
 228 238.849609375 228 238.849609375 238.5 255.849609375 c 128,-1,20
 249 272.849609375 249 272.849609375 253.5 282.625 c 128,-1,21
 258 292.400390625 258 292.400390625 265 306.849609375 c 128,-1,22
 272 321.299804688 272 321.299804688 276 334.049804688 c 128,-1,23
 280 346.799804688 280 346.799804688 283 360.400390625 c 1,24,-1
 282 368.900390625 l 1,25,-1
 366 368.900390625 l 1,26,-1
 365 362.950195312 l 1,27,-1
 392 137.700195312 l 1,28,29
 401 154.700195312 401 154.700195312 430 211.224609375 c 128,-1,30
 459 267.75 459 267.75 470.5 292.825195312 c 128,-1,31
 482 317.900390625 482 317.900390625 503 362.950195312 c 128,-1,32
 524 408 524 408 537 446.674804688 c 128,-1,33
 550 485.349609375 550 485.349609375 560 525.299804688 c 1,0,-1
EndSplineSet
Validated: 1
Substitution2: "'sups' Superscript lookup 20 subtable" w.sups
EndChar

StartChar: x
Encoding: 120 120 51
Width: 600
VWidth: 1100
GlyphClass: 2
Flags: W
HStem: 0 17.85G<-3 89 -3 -3 383 478 383 383> 508.3 17G<122 217 217 217 510 599 599 599>
VStem: -3 602
LayerCount: 2
Fore
SplineSet
510 525.299804688 m 1,0,-1
 599 525.299804688 l 1,1,2
 573 461.549804688 573 461.549804688 512.5 399.5 c 128,-1,3
 452 337.450195312 452 337.450195312 351 255 c 1,4,-1
 478 0 l 1,5,-1
 383 0 l 1,6,-1
 284 198.900390625 l 1,7,8
 140 79.0498046875 140 79.0498046875 89 0 c 1,9,-1
 -3 0 l 1,10,11
 22 42.5 22 42.5 69.5 92.224609375 c 128,-1,12
 117 141.950195312 117 141.950195312 151.5 171.275390625 c 128,-1,13
 186 200.599609375 186 200.599609375 255 257.549804688 c 1,14,-1
 122 525.299804688 l 1,15,-1
 217 525.299804688 l 1,16,-1
 322 312.799804688 l 1,17,18
 469 436.049804688 469 436.049804688 510 525.299804688 c 1,0,-1
EndSplineSet
Validated: 1
Substitution2: "'sups' Superscript lookup 20 subtable" x.sups
EndChar

StartChar: y
Encoding: 121 121 52
Width: 600
VWidth: 1100
GlyphClass: 2
Flags: W
HStem: -175.1 65.45<118.5 166.5 118.5 177.5> -56.95 69.7 39.1 65.45<241 288.5> 471.75 65.45<164.5 168.5> 508.3 17G<507 588 588 588> 520.2 17G<164.5 210>
VStem: -4 81<-101.575 -99.45 -101.575 -70.125> 109 81 187 80
LayerCount: 2
Fore
SplineSet
115 -175.099609375 m 0,0,1
 61 -175.099609375 61 -175.099609375 28 -155.974609375 c 128,-1,2
 -5 -136.849609375 -5 -136.849609375 -4 -105.400390625 c 0,3,4
 -4 -52.7001953125 -4 -52.7001953125 97.5 -21.25 c 128,-1,5
 199 10.2001953125 199 10.2001953125 372 12.75 c 1,6,7
 377 22.099609375 377 22.099609375 386 44.625 c 128,-1,8
 395 67.150390625 395 67.150390625 397 70.5498046875 c 1,9,10
 360 39.099609375 360 39.099609375 265 39.099609375 c 0,11,12
 182 39.099609375 182 39.099609375 137 88.8251953125 c 128,-1,13
 92 138.549804688 92 138.549804688 116 201.450195312 c 0,14,15
 185 381.650390625 185 381.650390625 187 453.900390625 c 0,16,17
 185 471.75 185 471.75 161 471.75 c 0,18,19
 133 471.75 133 471.75 112 441.150390625 c 1,20,-1
 76 498.099609375 l 1,21,22
 90 515.950195312 90 515.950195312 121.5 526.575195312 c 128,-1,23
 153 537.200195312 153 537.200195312 186 537.200195312 c 0,24,25
 222 537.200195312 222 537.200195312 244.5 520.625 c 128,-1,26
 267 504.049804688 267 504.049804688 267 477.700195312 c 0,27,28
 269 391 269 391 195 198.049804688 c 0,29,30
 180 156.400390625 180 156.400390625 202.5 130.474609375 c 128,-1,31
 225 104.549804688 225 104.549804688 272 104.549804688 c 0,32,33
 342 104.549804688 342 104.549804688 378 124.525390625 c 128,-1,34
 414 144.5 414 144.5 427 199.75 c 2,35,-1
 507 525.299804688 l 1,36,-1
 588 525.299804688 l 1,37,38
 518 242.25 518 242.25 492 142.375 c 128,-1,39
 466 42.5 466 42.5 449 8.5 c 1,40,41
 487 9.349609375 487 9.349609375 543 25.5 c 1,42,-1
 518 -44.2001953125 l 1,43,44
 485 -54.400390625 485 -54.400390625 416 -56.099609375 c 1,45,46
 373 -110.5 373 -110.5 291 -142.799804688 c 128,-1,47
 209 -175.099609375 209 -175.099609375 115 -175.099609375 c 0,0,1
134 -109.650390625 m 0,48,49
 235 -109.650390625 235 -109.650390625 312 -56.9501953125 c 1,50,51
 217 -61.2001953125 217 -61.2001953125 147.5 -73.9501953125 c 128,-1,52
 78 -86.7001953125 78 -86.7001953125 77 -99.4501953125 c 0,53,54
 77 -102 77 -102 84.5 -104.125 c 128,-1,55
 92 -106.25 92 -106.25 105.5 -107.950195312 c 128,-1,56
 119 -109.650390625 119 -109.650390625 134 -109.650390625 c 0,48,49
EndSplineSet
Validated: 33
Substitution2: "'sups' Superscript lookup 20 subtable" y.sups
EndChar

StartChar: z
Encoding: 122 122 53
Width: 600
VWidth: 1100
GlyphClass: 2
Flags: W
HStem: -36.55 65.45<390 480.5 390 481.5> -0.85 66.3<611 649> 9.35 65.45<214 242.5> 459.85 65.45<152 450 135 580>
VStem: 16 655<0 65.45>
LayerCount: 2
Fore
SplineSet
431 28.900390625 m 0,0,1
 477 28.900390625 477 28.900390625 541.5 47.1748046875 c 128,-1,2
 606 65.4501953125 606 65.4501953125 671 65.4501953125 c 1,3,-1
 649 -0.849609375 l 1,4,5
 618 -0.849609375 618 -0.849609375 553.5 -18.7001953125 c 128,-1,6
 489 -36.5498046875 489 -36.5498046875 415 -36.5498046875 c 0,7,8
 364 -36.5498046875 364 -36.5498046875 301.5 -13.599609375 c 128,-1,9
 239 9.349609375 239 9.349609375 208 9.349609375 c 0,10,11
 206 9.349609375 206 9.349609375 151.5 4.25 c 128,-1,12
 97 -0.849609375 97 -0.849609375 16 0 c 1,13,-1
 29 43.349609375 l 1,14,-1
 450 459.849609375 l 1,15,-1
 135 459.849609375 l 1,16,-1
 152 525.299804688 l 1,17,-1
 580 525.299804688 l 1,18,-1
 569 481.950195312 l 1,19,-1
 154 70.5498046875 l 1,20,21
 163 71.400390625 163 71.400390625 187.5 73.099609375 c 128,-1,22
 212 74.7998046875 212 74.7998046875 226 74.7998046875 c 0,23,24
 274 74.7998046875 274 74.7998046875 332.5 51.849609375 c 128,-1,25
 391 28.900390625 391 28.900390625 431 28.900390625 c 0,0,1
EndSplineSet
Validated: 33
Substitution2: "'sups' Superscript lookup 20 subtable" z.sups
EndChar

StartChar: Aringacute
Encoding: 506 506 62
Width: 600
Flags: W
LayerCount: 2
Fore
SplineSet
256 379 m 2,0,-1
 198 265 l 1,1,-1
 397 265 l 1,2,-1
 386 377 l 2,3,4
 381 430 381 430 376 484 c 128,-1,5
 371 538 371 538 366 591 c 1,6,-1
 362 591 l 1,7,8
 334 537 334 537 308.5 485.5 c 128,-1,9
 283 434 283 434 256 379 c 2,0,-1
-23 0 m 1,10,-1
 333 656 l 1,11,-1
 422 656 l 1,12,-1
 503 0 l 1,13,-1
 423 0 l 1,14,-1
 403 205 l 1,15,-1
 167 205 l 1,16,-1
 62 0 l 1,17,-1
 -23 0 l 1,10,-1
387 700 m 0,18,19
 352 700 352 700 326 719 c 128,-1,20
 300 738 300 738 300 779 c 0,21,22
 300 805 300 805 313 827 c 128,-1,23
 326 849 326 849 349 862 c 2,24,-1
 493 966 l 1,25,-1
 529 920 l 1,26,-1
 442 872 l 1,27,28
 464 864 464 864 478.5 846 c 128,-1,29
 493 828 493 828 493 799 c 0,30,31
 493 757 493 757 462.5 728.5 c 128,-1,32
 432 700 432 700 387 700 c 0,18,19
389 736 m 0,33,34
 412 736 412 736 429.5 753 c 128,-1,35
 447 770 447 770 447 795 c 0,36,37
 447 816 447 816 436 829 c 128,-1,38
 425 842 425 842 404 842 c 0,39,40
 381 842 381 842 363.5 824.5 c 128,-1,41
 346 807 346 807 346 782 c 0,42,43
 346 761 346 761 357.5 748.5 c 128,-1,44
 369 736 369 736 389 736 c 0,33,34
EndSplineSet
Validated: 1
EndChar

StartChar: Aogonek
Encoding: 260 260 64
Width: 600
GlyphClass: 2
Flags: W
AnchorPoint: "Anchor-0" 373 676 basechar 0
LayerCount: 2
Fore
SplineSet
419 -225 m 0,0,1
 381 -225 381 -225 353.5 -207 c 128,-1,2
 326 -189 326 -189 326 -150 c 0,3,4
 326 -125 326 -125 336.5 -102.5 c 128,-1,5
 347 -80 347 -80 363.5 -61 c 128,-1,6
 380 -42 380 -42 400 -26.5 c 128,-1,7
 420 -11 420 -11 439 0 c 1,8,-1
 423 0 l 1,9,-1
 403 205 l 1,10,-1
 167 205 l 1,11,-1
 62 0 l 1,12,-1
 -23 0 l 1,13,-1
 333 656 l 1,14,-1
 422 656 l 1,15,-1
 503 0 l 1,16,17
 481 -10 481 -10 460.5 -24.5 c 128,-1,18
 440 -39 440 -39 424.5 -55.5 c 128,-1,19
 409 -72 409 -72 399.5 -90 c 128,-1,20
 390 -108 390 -108 390 -126 c 0,21,22
 390 -149 390 -149 406 -160.5 c 128,-1,23
 422 -172 422 -172 445 -172 c 0,24,25
 469 -172 469 -172 491 -156 c 1,26,-1
 510 -195 l 1,27,28
 493 -209 493 -209 469 -217 c 128,-1,29
 445 -225 445 -225 419 -225 c 0,0,1
256 379 m 2,30,-1
 198 265 l 1,31,-1
 397 265 l 1,32,-1
 386 377 l 2,33,34
 381 430 381 430 376 483.5 c 128,-1,35
 371 537 371 537 366 591 c 1,36,-1
 362 591 l 1,37,38
 334 536 334 536 309 485 c 128,-1,39
 284 434 284 434 256 379 c 2,30,-1
EndSplineSet
Validated: 1
Ligature2: "'ccmp' Glyph Composition/Decomposition lookup 13 subtable" A uni0328
EndChar

StartChar: AE
Encoding: 198 198 77
Width: 600
GlyphClass: 2
Flags: W
AnchorPoint: "Anchor-3" 293 -20 basechar 0
AnchorPoint: "Anchor-2" 411 0 basechar 0
AnchorPoint: "Anchor-0" 485 676 basechar 0
LayerCount: 2
Fore
SplineSet
243 380 m 2,0,-1
 171 258 l 1,1,-1
 309 258 l 1,2,-1
 376 596 l 1,3,-1
 371 596 l 1,4,5
 339 541 339 541 307 487.5 c 128,-1,6
 275 434 275 434 243 380 c 2,0,-1
-62 0 m 1,7,-1
 337 656 l 1,8,-1
 649 656 l 1,9,-1
 636 591 l 1,10,-1
 445 591 l 1,11,-1
 402 379 l 1,12,-1
 556 379 l 1,13,-1
 543 314 l 1,14,-1
 389 314 l 1,15,-1
 340 66 l 1,16,-1
 541 66 l 1,17,-1
 528 0 l 1,18,-1
 257 0 l 1,19,-1
 296 197 l 1,20,-1
 135 197 l 1,21,-1
 19 0 l 1,22,-1
 -62 0 l 1,7,-1
EndSplineSet
Validated: 1
EndChar

StartChar: uni0243
Encoding: 579 579 80
Width: 600
Flags: W
LayerCount: 2
Fore
SplineSet
42 0 m 1,0,-1
 77 172 l 1,1,-1
 -2 172 l 1,2,-1
 12 224 l 1,3,-1
 88 228 l 1,4,-1
 174 657 l 1,5,-1
 344 657 l 2,6,7
 387 657 387 657 424 648.5 c 128,-1,8
 461 640 461 640 488.5 623 c 128,-1,9
 516 606 516 606 531.5 580.5 c 128,-1,10
 547 555 547 555 547 522 c 0,11,12
 547 462 547 462 510 415.5 c 128,-1,13
 473 369 473 369 398 352 c 1,14,-1
 396 348 l 1,15,16
 450 337 450 337 486 305 c 128,-1,17
 522 273 522 273 522 213 c 0,18,19
 522 158 522 158 501.5 118 c 128,-1,20
 481 78 481 78 443.5 51.5 c 128,-1,21
 406 25 406 25 354 12.5 c 128,-1,22
 302 0 302 0 240 0 c 2,23,-1
 42 0 l 1,0,-1
131 66 m 1,24,-1
 240 66 l 2,25,26
 342 66 342 66 393.5 101 c 128,-1,27
 445 136 445 136 445 216 c 0,28,29
 445 269 445 269 403.5 293.5 c 128,-1,30
 362 318 362 318 290 318 c 2,31,-1
 184 318 l 1,32,-1
 165 228 l 1,33,-1
 316 228 l 1,34,-1
 302 172 l 1,35,-1
 153 172 l 1,36,-1
 131 66 l 1,24,-1
195 384 m 1,37,-1
 282 384 l 2,38,39
 382 384 382 384 424.5 414.5 c 128,-1,40
 467 445 467 445 467 506 c 0,41,42
 467 551 467 551 428.5 570.5 c 128,-1,43
 390 590 390 590 320 590 c 2,44,-1
 238 590 l 1,45,-1
 195 384 l 1,37,-1
EndSplineSet
Validated: 1
EndChar

StartChar: uni018A
Encoding: 394 394 92
Width: 600
GlyphClass: 2
Flags: W
AnchorPoint: "Anchor-3" 276 -20 basechar 0
AnchorPoint: "Anchor-0" 384 676 basechar 0
LayerCount: 2
Fore
SplineSet
143 0 m 1,0,-1
 263 602 l 1,1,2
 225 595 225 595 195.5 576 c 128,-1,3
 166 557 166 557 146 531 c 128,-1,4
 126 505 126 505 115 473 c 128,-1,5
 104 441 104 441 104 409 c 0,6,7
 104 347 104 347 156 316 c 1,8,-1
 115 264 l 1,9,10
 79 282 79 282 58.5 315.5 c 128,-1,11
 38 349 38 349 38 399 c 256,12,13
 38 449 38 449 57 497.5 c 128,-1,14
 76 546 76 546 113 584 c 128,-1,15
 150 622 150 622 204 645.5 c 128,-1,16
 258 669 258 669 328 669 c 0,17,18
 453 669 453 669 519 602.5 c 128,-1,19
 585 536 585 536 585 415 c 0,20,21
 585 324 585 324 559.5 248 c 128,-1,22
 534 172 534 172 486 117 c 128,-1,23
 438 62 438 62 368.5 31 c 128,-1,24
 299 0 299 0 212 0 c 2,25,-1
 143 0 l 1,0,-1
232 64 m 1,26,-1
 240 64 l 2,27,28
 297 64 297 64 345.5 89 c 128,-1,29
 394 114 394 114 429.5 159.5 c 128,-1,30
 465 205 465 205 485 269 c 128,-1,31
 505 333 505 333 505 410 c 0,32,33
 505 499 505 499 465 550.5 c 128,-1,34
 425 602 425 602 340 605 c 1,35,-1
 232 64 l 1,26,-1
EndSplineSet
Validated: 1
EndChar

StartChar: Eogonek
Encoding: 280 280 101
Width: 600
GlyphClass: 2
Flags: W
AnchorPoint: "Anchor-0" 406 676 basechar 0
LayerCount: 2
Fore
SplineSet
367 -225 m 0,0,1
 329 -225 329 -225 302 -207 c 128,-1,2
 275 -189 275 -189 275 -150 c 0,3,4
 275 -125 275 -125 285 -102.5 c 128,-1,5
 295 -80 295 -80 311 -61 c 128,-1,6
 327 -42 327 -42 347.5 -26.5 c 128,-1,7
 368 -11 368 -11 389 0 c 1,8,-1
 60 0 l 1,9,-1
 192 656 l 1,10,-1
 595 656 l 1,11,-1
 582 591 l 1,12,-1
 255 591 l 1,13,-1
 213 378 l 1,14,-1
 486 378 l 1,15,-1
 473 312 l 1,16,-1
 201 312 l 1,17,-1
 150 66 l 1,18,-1
 486 66 l 1,19,-1
 473 0 l 1,20,-1
 471 0 l 2,21,22
 453 0 453 0 429.5 -11.5 c 128,-1,23
 406 -23 406 -23 386 -41 c 128,-1,24
 366 -59 366 -59 352 -81.5 c 128,-1,25
 338 -104 338 -104 338 -126 c 0,26,27
 338 -149 338 -149 354 -160.5 c 128,-1,28
 370 -172 370 -172 393 -172 c 0,29,30
 407 -172 407 -172 418 -168 c 128,-1,31
 429 -164 429 -164 440 -156 c 1,32,-1
 458 -195 l 1,33,34
 441 -209 441 -209 417 -217 c 128,-1,35
 393 -225 393 -225 367 -225 c 0,0,1
EndSplineSet
Validated: 1
Ligature2: "'ccmp' Glyph Composition/Decomposition lookup 13 subtable" E uni0328
EndChar

StartChar: uni0193
Encoding: 403 403 119
Width: 600
Flags: W
LayerCount: 2
Fore
SplineSet
571 571 m 1,0,-1
 516 530 l 1,1,2
 497 562 497 562 469.5 581.5 c 128,-1,3
 442 601 442 601 401 601 c 0,4,5
 340 601 340 601 292 570 c 128,-1,6
 244 539 244 539 210.5 490 c 128,-1,7
 177 441 177 441 159 380.5 c 128,-1,8
 141 320 141 320 141 260 c 0,9,10
 141 216 141 216 150.5 178.5 c 128,-1,11
 160 141 160 141 180 113 c 128,-1,12
 200 85 200 85 232.5 69.5 c 128,-1,13
 265 54 265 54 311 54 c 0,14,15
 347 54 347 54 375 65.5 c 128,-1,16
 403 77 403 77 423 94 c 1,17,-1
 459 275 l 1,18,-1
 324 275 l 1,19,-1
 337 339 l 1,20,-1
 543 339 l 1,21,-1
 486 55 l 1,22,23
 450 25 450 25 403.5 6.5 c 128,-1,24
 357 -12 357 -12 300 -12 c 0,25,26
 241 -12 241 -12 196.5 7 c 128,-1,27
 152 26 152 26 122 60.5 c 128,-1,28
 92 95 92 95 76.5 144 c 128,-1,29
 61 193 61 193 61 253 c 0,30,31
 61 331 61 331 85 405.5 c 128,-1,32
 109 480 109 480 154 538.5 c 128,-1,33
 199 597 199 597 262.5 632.5 c 128,-1,34
 326 668 326 668 406 668 c 0,35,36
 448 668 448 668 483 652 c 1,37,38
 482 660 482 660 481.5 667 c 128,-1,39
 481 674 481 674 481 681 c 0,40,41
 481 733 481 733 510.5 767 c 128,-1,42
 540 801 540 801 593 801 c 0,43,44
 614 801 614 801 630 795.5 c 128,-1,45
 646 790 646 790 660 782 c 1,46,-1
 634 728 l 1,47,48
 617 739 617 739 600 739 c 0,49,50
 574 739 574 739 559 720.5 c 128,-1,51
 544 702 544 702 544 675 c 0,52,53
 544 645 544 645 550.5 621.5 c 128,-1,54
 557 598 557 598 571 571 c 1,0,-1
EndSplineSet
Validated: 1
EndChar

StartChar: Hbar
Encoding: 294 294 125
Width: 600
Flags: W
LayerCount: 2
Fore
SplineSet
46 488 m 1,0,-1
 54 538 l 1,1,-1
 127 544 l 1,2,-1
 149 656 l 1,3,-1
 227 656 l 1,4,-1
 204 544 l 1,5,-1
 488 544 l 1,6,-1
 510 656 l 1,7,-1
 588 656 l 1,8,-1
 566 544 l 1,9,-1
 636 544 l 1,10,-1
 622 488 l 1,11,-1
 554 488 l 1,12,-1
 457 0 l 1,13,-1
 379 0 l 1,14,-1
 442 312 l 1,15,-1
 158 312 l 1,16,-1
 96 0 l 1,17,-1
 18 0 l 1,18,-1
 115 488 l 1,19,-1
 46 488 l 1,0,-1
171 379 m 1,20,-1
 455 379 l 1,21,-1
 477 488 l 1,22,-1
 193 488 l 1,23,-1
 171 379 l 1,20,-1
EndSplineSet
Validated: 1
EndChar

StartChar: Iogonek
Encoding: 302 302 134
Width: 600
GlyphClass: 2
Flags: W
AnchorPoint: "Anchor-0" 373 676 basechar 0
LayerCount: 2
Fore
SplineSet
213 -225 m 0,0,1
 175 -225 175 -225 148 -207 c 128,-1,2
 121 -189 121 -189 121 -150 c 0,3,4
 121 -126 121 -126 130.5 -104 c 128,-1,5
 140 -82 140 -82 154.5 -62.5 c 128,-1,6
 169 -43 169 -43 186 -27 c 128,-1,7
 203 -11 203 -11 219 0 c 1,8,-1
 35 0 l 1,9,-1
 49 66 l 1,10,-1
 211 66 l 1,11,-1
 316 591 l 1,12,-1
 152 591 l 1,13,-1
 167 656 l 1,14,-1
 573 656 l 1,15,-1
 559 591 l 1,16,-1
 394 591 l 1,17,-1
 288 66 l 1,18,-1
 454 66 l 1,19,-1
 439 0 l 1,20,-1
 282 0 l 1,21,22
 236 -25 236 -25 210 -60.5 c 128,-1,23
 184 -96 184 -96 184 -126 c 0,24,25
 184 -149 184 -149 200 -160.5 c 128,-1,26
 216 -172 216 -172 239 -172 c 0,27,28
 253 -172 253 -172 264 -168 c 128,-1,29
 275 -164 275 -164 286 -156 c 1,30,-1
 304 -195 l 1,31,32
 287 -209 287 -209 263 -217 c 128,-1,33
 239 -225 239 -225 213 -225 c 0,0,1
EndSplineSet
Validated: 1
Ligature2: "'ccmp' Glyph Composition/Decomposition lookup 13 subtable" I uni0328
EndChar

StartChar: Lslash
Encoding: 321 321 148
Width: 600
GlyphClass: 2
Flags: W
AnchorPoint: "Anchor-3" 305 -20 basechar 0
AnchorPoint: "Anchor-0" 275 676 basechar 0
LayerCount: 2
Fore
SplineSet
63 198 m 1,0,-1
 42 251 l 1,1,-1
 160 306 l 1,2,-1
 230 656 l 1,3,-1
 308 656 l 1,4,-1
 246 344 l 1,5,-1
 466 451 l 1,6,-1
 487 399 l 1,7,-1
 232 277 l 1,8,-1
 190 66 l 1,9,-1
 515 66 l 1,10,-1
 502 0 l 1,11,-1
 99 0 l 1,12,-1
 146 238 l 1,13,-1
 63 198 l 1,0,-1
EndSplineSet
Validated: 1
EndChar

StartChar: uni01EA
Encoding: 490 490 170
Width: 600
GlyphClass: 2
Flags: W
AnchorPoint: "Anchor-0" 373 676 basechar 0
LayerCount: 2
Fore
SplineSet
212 -225 m 0,0,1
 174 -225 174 -225 147 -207 c 128,-1,2
 120 -189 120 -189 120 -150 c 0,3,4
 120 -129 120 -129 128.5 -108.5 c 128,-1,5
 137 -88 137 -88 150.5 -69.5 c 128,-1,6
 164 -51 164 -51 181.5 -36 c 128,-1,7
 199 -21 199 -21 218 -10 c 1,8,9
 180 -4 180 -4 147.5 15 c 128,-1,10
 115 34 115 34 91.5 66 c 128,-1,11
 68 98 68 98 54.5 143.5 c 128,-1,12
 41 189 41 189 41 247 c 0,13,14
 41 325 41 325 63 401 c 128,-1,15
 85 477 85 477 125.5 536 c 128,-1,16
 166 595 166 595 224 631.5 c 128,-1,17
 282 668 282 668 355 668 c 0,18,19
 405 668 405 668 444.5 649.5 c 128,-1,20
 484 631 484 631 511 597 c 128,-1,21
 538 563 538 563 552.5 515 c 128,-1,22
 567 467 567 467 567 409 c 0,23,24
 567 337 567 337 549.5 268.5 c 128,-1,25
 532 200 532 200 498.5 143 c 128,-1,26
 465 86 465 86 416 46 c 128,-1,27
 367 6 367 6 305 -8 c 0,28,29
 273 -15 273 -15 250 -29.5 c 128,-1,30
 227 -44 227 -44 212 -61.5 c 128,-1,31
 197 -79 197 -79 190 -96.5 c 128,-1,32
 183 -114 183 -114 183 -126 c 0,33,34
 183 -149 183 -149 199 -160.5 c 128,-1,35
 215 -172 215 -172 238 -172 c 0,36,37
 252 -172 252 -172 263 -168 c 128,-1,38
 274 -164 274 -164 285 -156 c 1,39,-1
 303 -195 l 1,40,41
 286 -209 286 -209 262 -217 c 128,-1,42
 238 -225 238 -225 212 -225 c 0,0,1
261 54 m 0,43,44
 315 54 315 54 357 86 c 128,-1,45
 399 118 399 118 428 169 c 128,-1,46
 457 220 457 220 472.5 284 c 128,-1,47
 488 348 488 348 488 413 c 0,48,49
 488 500 488 500 454 550.5 c 128,-1,50
 420 601 420 601 348 601 c 0,51,52
 294 601 294 601 252 569 c 128,-1,53
 210 537 210 537 180.5 486 c 128,-1,54
 151 435 151 435 135.5 371.5 c 128,-1,55
 120 308 120 308 120 244 c 0,56,57
 120 156 120 156 154.5 105 c 128,-1,58
 189 54 189 54 261 54 c 0,43,44
EndSplineSet
Validated: 1
Ligature2: "'ccmp' Glyph Composition/Decomposition lookup 13 subtable" O uni0328
EndChar

StartChar: Ohorn
Encoding: 416 416 178
Width: 600
GlyphClass: 2
Flags: W
AnchorPoint: "Anchor-3" 233 -20 basechar 0
AnchorPoint: "Anchor-0" 373 676 basechar 0
LayerCount: 2
Fore
SplineSet
254 -12 m 0,0,1
 204 -12 204 -12 164.5 6.5 c 128,-1,2
 125 25 125 25 97.5 59 c 128,-1,3
 70 93 70 93 55.5 141 c 128,-1,4
 41 189 41 189 41 247 c 0,5,6
 41 325 41 325 63 401 c 128,-1,7
 85 477 85 477 125.5 536 c 128,-1,8
 166 595 166 595 224 631.5 c 128,-1,9
 282 668 282 668 355 668 c 0,10,11
 415 668 415 668 462 640 c 1,12,13
 513 644 513 644 541 669.5 c 128,-1,14
 569 695 569 695 569 738 c 0,15,16
 569 749 569 749 566.5 762.5 c 128,-1,17
 564 776 564 776 559 790 c 1,18,-1
 622 812 l 1,19,20
 635 777 635 777 635 747 c 0,21,22
 635 685 635 685 599 651 c 128,-1,23
 563 617 563 617 504 606 c 1,24,25
 567 535 567 535 567 409 c 0,26,27
 567 331 567 331 545.5 255.5 c 128,-1,28
 524 180 524 180 483.5 120.5 c 128,-1,29
 443 61 443 61 385 24.5 c 128,-1,30
 327 -12 327 -12 254 -12 c 0,0,1
261 55 m 0,31,32
 315 55 315 55 357 87 c 128,-1,33
 399 119 399 119 428 170 c 128,-1,34
 457 221 457 221 472.5 285 c 128,-1,35
 488 349 488 349 488 413 c 0,36,37
 488 500 488 500 454 550.5 c 128,-1,38
 420 601 420 601 348 601 c 0,39,40
 294 601 294 601 252 569 c 128,-1,41
 210 537 210 537 180.5 486 c 128,-1,42
 151 435 151 435 135.5 371.5 c 128,-1,43
 120 308 120 308 120 244 c 0,44,45
 120 156 120 156 154.5 105.5 c 128,-1,46
 189 55 189 55 261 55 c 0,31,32
EndSplineSet
Validated: 1
EndChar

StartChar: Oslash
Encoding: 216 216 185
Width: 600
GlyphClass: 2
Flags: W
AnchorPoint: "Anchor-2" 238 0 basechar 0
AnchorPoint: "Anchor-0" 370 676 basechar 0
LayerCount: 2
Fore
SplineSet
254 -12 m 0,0,1
 207 -12 207 -12 170 4 c 128,-1,2
 133 20 133 20 106 49 c 1,3,-1
 34 -34 l 1,4,-1
 -14 6 l 1,5,-1
 70 103 l 1,6,7
 41 164 41 164 41 247 c 0,8,9
 41 325 41 325 63 401 c 128,-1,10
 85 477 85 477 125.5 536 c 128,-1,11
 166 595 166 595 224 631.5 c 128,-1,12
 282 668 282 668 355 668 c 0,13,14
 448 668 448 668 504 606 c 1,15,-1
 576 690 l 1,16,-1
 625 650 l 1,17,-1
 539 551 l 1,18,19
 567 490 567 490 567 409 c 0,20,21
 567 331 567 331 545.5 255.5 c 128,-1,22
 524 180 524 180 483.5 120.5 c 128,-1,23
 443 61 443 61 385 24.5 c 128,-1,24
 327 -12 327 -12 254 -12 c 0,0,1
118 244 m 0,25,26
 118 204 118 204 126 169 c 1,27,-1
 455 550 l 1,28,29
 418 601 418 601 348 601 c 0,30,31
 294 601 294 601 251.5 569 c 128,-1,32
 209 537 209 537 179.5 486 c 128,-1,33
 150 435 150 435 134 371.5 c 128,-1,34
 118 308 118 308 118 244 c 0,25,26
261 55 m 0,35,36
 315 55 315 55 357.5 87 c 128,-1,37
 400 119 400 119 429.5 170 c 128,-1,38
 459 221 459 221 474.5 285 c 128,-1,39
 490 349 490 349 490 413 c 0,40,41
 490 433 490 433 488.5 451 c 128,-1,42
 487 469 487 469 483 485 c 1,43,-1
 154 105 l 1,44,45
 191 55 191 55 261 55 c 0,35,36
EndSplineSet
Validated: 1
EndChar

StartChar: OE
Encoding: 338 338 187
Width: 600
GlyphClass: 2
Flags: W
AnchorPoint: "Anchor-2" 360 0 basechar 0
AnchorPoint: "Anchor-0" 399 676 basechar 0
LayerCount: 2
Fore
SplineSet
259 0 m 2,0,1
 136 0 136 0 81.5 65 c 128,-1,2
 27 130 27 130 27 246 c 0,3,4
 27 337 27 337 52.5 412.5 c 128,-1,5
 78 488 78 488 124.5 542 c 128,-1,6
 171 596 171 596 234.5 626 c 128,-1,7
 298 656 298 656 375 656 c 2,8,-1
 652 656 l 1,9,-1
 639 591 l 1,10,-1
 440 591 l 1,11,-1
 398 378 l 1,12,-1
 549 378 l 1,13,-1
 535 312 l 1,14,-1
 386 312 l 1,15,-1
 335 66 l 1,16,-1
 543 66 l 1,17,-1
 529 0 l 1,18,-1
 259 0 l 2,0,1
262 64 m 2,19,-1
 266 64 l 1,20,-1
 372 593 l 1,21,-1
 364 593 l 2,22,23
 305 593 305 593 257.5 566.5 c 128,-1,24
 210 540 210 540 176.5 493.5 c 128,-1,25
 143 447 143 447 125 385 c 128,-1,26
 107 323 107 323 107 251 c 0,27,28
 107 207 107 207 115 172.5 c 128,-1,29
 123 138 123 138 141.5 114 c 128,-1,30
 160 90 160 90 189.5 77 c 128,-1,31
 219 64 219 64 262 64 c 2,19,-1
EndSplineSet
Validated: 1
EndChar

StartChar: uni1E9E
Encoding: 7838 7838 202
Width: 600
Flags: W
LayerCount: 2
Fore
SplineSet
337 -12 m 0,0,1
 283 -12 283 -12 243 10 c 128,-1,2
 203 32 203 32 182 61 c 1,3,-1
 223 110 l 1,4,5
 243 82 243 82 269 67.5 c 128,-1,6
 295 53 295 53 333 53 c 0,7,8
 363 53 363 53 387.5 62.5 c 128,-1,9
 412 72 412 72 429.5 88.5 c 128,-1,10
 447 105 447 105 456.5 127 c 128,-1,11
 466 149 466 149 466 175 c 0,12,13
 466 231 466 231 426.5 262.5 c 128,-1,14
 387 294 387 294 313 313 c 1,15,-1
 317 364 l 1,16,-1
 482 533 l 1,17,18
 467 566 467 566 439 586 c 128,-1,19
 411 606 411 606 371 606 c 0,20,21
 304 606 304 606 252.5 562 c 128,-1,22
 201 518 201 518 181 421 c 2,23,-1
 97 0 l 1,24,-1
 19 0 l 1,25,-1
 107 438 l 2,26,27
 127 543 127 543 195 605.5 c 128,-1,28
 263 668 263 668 374 668 c 0,29,30
 446 668 446 668 493 629 c 128,-1,31
 540 590 540 590 556 521 c 1,32,-1
 390 351 l 1,33,34
 462 328 462 328 502.5 285.5 c 128,-1,35
 543 243 543 243 543 176 c 0,36,37
 543 137 543 137 529 102.5 c 128,-1,38
 515 68 515 68 488.5 42.5 c 128,-1,39
 462 17 462 17 424 2.5 c 128,-1,40
 386 -12 386 -12 337 -12 c 0,0,1
EndSplineSet
Validated: 1
EndChar

StartChar: Tbar
Encoding: 358 358 208
Width: 600
GlyphClass: 2
Flags: W
AnchorPoint: "Anchor-3" 235 -20 basechar 0
AnchorPoint: "Anchor-0" 373 676 basechar 0
LayerCount: 2
Fore
SplineSet
128 326 m 1,0,-1
 138 376 l 1,1,-1
 214 382 l 1,2,-1
 275 382 l 1,3,-1
 316 589 l 1,4,-1
 98 589 l 1,5,-1
 111 656 l 1,6,-1
 625 656 l 1,7,-1
 611 589 l 1,8,-1
 393 589 l 1,9,-1
 352 382 l 1,10,-1
 486 382 l 1,11,-1
 474 326 l 1,12,-1
 341 326 l 1,13,-1
 276 0 l 1,14,-1
 198 0 l 1,15,-1
 263 326 l 1,16,-1
 128 326 l 1,0,-1
EndSplineSet
Validated: 1
EndChar

StartChar: Uogonek
Encoding: 370 370 219
Width: 600
GlyphClass: 2
Flags: W
AnchorPoint: "Anchor-0" 373 678 basechar 0
LayerCount: 2
Fore
SplineSet
212 -225 m 0,0,1
 174 -225 174 -225 147 -207 c 128,-1,2
 120 -189 120 -189 120 -150 c 0,3,4
 120 -128 120 -128 128.5 -107.5 c 128,-1,5
 137 -87 137 -87 150.5 -68.5 c 128,-1,6
 164 -50 164 -50 181 -35 c 128,-1,7
 198 -20 198 -20 215 -9 c 1,8,9
 149 2 149 2 106.5 49 c 128,-1,10
 64 96 64 96 64 186 c 0,11,12
 64 230 64 230 74 279 c 2,13,-1
 149 656 l 1,14,-1
 227 656 l 1,15,-1
 152 277 l 2,16,17
 147 254 147 254 144 234 c 128,-1,18
 141 214 141 214 141 195 c 0,19,20
 141 128 141 128 172 91.5 c 128,-1,21
 203 55 203 55 265 55 c 0,22,23
 293 55 293 55 318.5 65 c 128,-1,24
 344 75 344 75 365.5 98.5 c 128,-1,25
 387 122 387 122 404 159.5 c 128,-1,26
 421 197 421 197 432 252 c 2,27,-1
 512 656 l 1,28,-1
 588 656 l 1,29,-1
 506 244 l 2,30,31
 495 188 495 188 478 146 c 128,-1,32
 461 104 461 104 437.5 73.5 c 128,-1,33
 414 43 414 43 383.5 23.5 c 128,-1,34
 353 4 353 4 315 -7 c 0,35,36
 282 -16 282 -16 257 -30 c 128,-1,37
 232 -44 232 -44 215.5 -60.5 c 128,-1,38
 199 -77 199 -77 191 -94 c 128,-1,39
 183 -111 183 -111 183 -126 c 0,40,41
 183 -149 183 -149 199 -160.5 c 128,-1,42
 215 -172 215 -172 238 -172 c 0,43,44
 252 -172 252 -172 263 -168 c 128,-1,45
 274 -164 274 -164 285 -156 c 1,46,-1
 303 -195 l 1,47,48
 286 -209 286 -209 262 -217 c 128,-1,49
 238 -225 238 -225 212 -225 c 0,0,1
EndSplineSet
Validated: 1
Ligature2: "'ccmp' Glyph Composition/Decomposition lookup 13 subtable" U uni0328
EndChar

StartChar: Uhorn
Encoding: 431 431 226
Width: 600
GlyphClass: 2
Flags: W
AnchorPoint: "Anchor-3" 233 -20 basechar 0
AnchorPoint: "Anchor-0" 373 676 basechar 0
LayerCount: 2
Fore
SplineSet
255 -12 m 0,0,1
 162 -12 162 -12 113 41 c 128,-1,2
 64 94 64 94 64 186 c 0,3,4
 64 230 64 230 74 279 c 2,5,-1
 149 656 l 1,6,-1
 227 656 l 1,7,-1
 152 277 l 2,8,9
 147 254 147 254 144 234 c 128,-1,10
 141 214 141 214 141 195 c 0,11,12
 141 128 141 128 172 91.5 c 128,-1,13
 203 55 203 55 265 55 c 0,14,15
 293 55 293 55 318.5 65 c 128,-1,16
 344 75 344 75 365.5 98.5 c 128,-1,17
 387 122 387 122 404 159.5 c 128,-1,18
 421 197 421 197 432 252 c 2,19,-1
 512 656 l 1,20,-1
 544 656 l 2,21,22
 595 658 595 658 621 682.5 c 128,-1,23
 647 707 647 707 647 748 c 0,24,25
 647 759 647 759 645 773 c 128,-1,26
 643 787 643 787 638 800 c 1,27,-1
 700 822 l 1,28,29
 713 787 713 787 713 757 c 0,30,31
 713 696 713 696 675.5 663 c 128,-1,32
 638 630 638 630 581 621 c 1,33,-1
 506 244 l 2,34,35
 492 172 492 172 467.5 123 c 128,-1,36
 443 74 443 74 411 44 c 128,-1,37
 379 14 379 14 339.5 1 c 128,-1,38
 300 -12 300 -12 255 -12 c 0,0,1
EndSplineSet
Validated: 1
EndChar

StartChar: Eth
Encoding: 208 208 251
Width: 600
GlyphClass: 2
Flags: W
AnchorPoint: "Anchor-3" 224 -20 basechar 0
AnchorPoint: "Anchor-0" 364 676 basechar 0
LayerCount: 2
Fore
SplineSet
37 0 m 1,0,-1
 101 318 l 1,1,-1
 24 318 l 1,2,-1
 38 370 l 1,3,-1
 112 374 l 1,4,-1
 168 656 l 1,5,-1
 299 656 l 2,6,7
 433 656 433 656 502.5 589.5 c 128,-1,8
 572 523 572 523 572 400 c 0,9,10
 572 311 572 311 547.5 237 c 128,-1,11
 523 163 523 163 477 110.5 c 128,-1,12
 431 58 431 58 364.5 29 c 128,-1,13
 298 0 298 0 214 0 c 2,14,-1
 37 0 l 1,0,-1
127 64 m 1,15,-1
 214 64 l 2,16,17
 279 64 279 64 330.5 87.5 c 128,-1,18
 382 111 382 111 418 154 c 128,-1,19
 454 197 454 197 473 258 c 128,-1,20
 492 319 492 319 492 395 c 0,21,22
 492 490 492 490 442.5 541.5 c 128,-1,23
 393 593 393 593 296 593 c 2,24,-1
 233 593 l 1,25,-1
 189 374 l 1,26,-1
 334 374 l 1,27,-1
 320 318 l 1,28,-1
 178 318 l 1,29,-1
 127 64 l 1,15,-1
EndSplineSet
Validated: 1
EndChar

StartChar: Thorn
Encoding: 222 222 252
Width: 600
Flags: W
LayerCount: 2
Fore
SplineSet
44 0 m 1,0,-1
 175 656 l 1,1,-1
 253 656 l 1,2,-1
 231 543 l 1,3,-1
 353 543 l 2,4,5
 398 543 398 543 434.5 534 c 128,-1,6
 471 525 471 525 497 505.5 c 128,-1,7
 523 486 523 486 537.5 455.5 c 128,-1,8
 552 425 552 425 552 382 c 0,9,10
 552 322 552 322 530.5 278 c 128,-1,11
 509 234 509 234 470.5 205.5 c 128,-1,12
 432 177 432 177 379.5 163.5 c 128,-1,13
 327 150 327 150 264 150 c 2,14,-1
 151 150 l 1,15,-1
 122 0 l 1,16,-1
 44 0 l 1,0,-1
165 213 m 1,17,-1
 267 213 l 2,18,19
 370 213 370 213 422.5 253 c 128,-1,20
 475 293 475 293 475 372 c 0,21,22
 475 429 475 429 438 454.5 c 128,-1,23
 401 480 401 480 330 480 c 2,24,-1
 217 480 l 1,25,-1
 165 213 l 1,17,-1
EndSplineSet
Validated: 1
EndChar

StartChar: uni018F
Encoding: 399 399 253
Width: 600
GlyphClass: 2
Flags: W
AnchorPoint: "Anchor-6" 253 0 basechar 0
AnchorPoint: "Anchor-3" 246 -20 basechar 0
AnchorPoint: "Anchor-2" 253 0 basechar 0
AnchorPoint: "Anchor-0" 370 676 basechar 0
LayerCount: 2
Fore
SplineSet
236 -12 m 0,0,1
 152 -12 152 -12 103.5 45 c 128,-1,2
 55 102 55 102 55 219 c 0,3,4
 55 254 55 254 60 285 c 128,-1,5
 65 316 65 316 70 345 c 1,6,-1
 484 345 l 1,7,8
 486 362 486 362 487 380.5 c 128,-1,9
 488 399 488 399 488 418 c 0,10,11
 488 504 488 504 455.5 554 c 128,-1,12
 423 604 423 604 355 604 c 0,13,14
 309 604 309 604 266.5 585 c 128,-1,15
 224 566 224 566 192 540 c 1,16,-1
 159 593 l 1,17,18
 196 623 196 623 251.5 646 c 128,-1,19
 307 669 307 669 370 669 c 0,20,21
 467 669 467 669 516 604.5 c 128,-1,22
 565 540 565 540 565 425 c 0,23,24
 565 330 565 330 540 249.5 c 128,-1,25
 515 169 515 169 471 111 c 128,-1,26
 427 53 427 53 366.5 20.5 c 128,-1,27
 306 -12 306 -12 236 -12 c 0,0,1
244 52 m 0,28,29
 284 52 284 52 320 69 c 128,-1,30
 356 86 356 86 386 116.5 c 128,-1,31
 416 147 416 147 438 190 c 128,-1,32
 460 233 460 233 473 286 c 1,33,-1
 135 286 l 1,34,35
 128 233 128 233 131 189.5 c 128,-1,36
 134 146 134 146 147.5 115.5 c 128,-1,37
 161 85 161 85 185 68.5 c 128,-1,38
 209 52 209 52 244 52 c 0,28,29
EndSplineSet
Validated: 33
EndChar

StartChar: Eng
Encoding: 330 330 254
Width: 600
GlyphClass: 2
Flags: W
AnchorPoint: "Anchor-3" 244 -20 basechar 0
AnchorPoint: "Anchor-0" 380 676 basechar 0
LayerCount: 2
Fore
SplineSet
321 -12 m 0,0,1
 300 -12 300 -12 276 -7 c 128,-1,2
 252 -2 252 -2 238 6 c 1,3,-1
 269 68 l 1,4,5
 279 62 279 62 290 58.5 c 128,-1,6
 301 55 301 55 315 55 c 0,7,8
 348 55 348 55 377.5 88 c 128,-1,9
 407 121 407 121 429.5 175 c 128,-1,10
 452 229 452 229 465 297.5 c 128,-1,11
 478 366 478 366 478 437 c 0,12,13
 478 483 478 483 469.5 514 c 128,-1,14
 461 545 461 545 446 564.5 c 128,-1,15
 431 584 431 584 410 592.5 c 128,-1,16
 389 601 389 601 364 601 c 0,17,18
 332 601 332 601 286 578.5 c 128,-1,19
 240 556 240 556 198 511 c 1,20,-1
 97 0 l 1,21,-1
 19 0 l 1,22,-1
 150 656 l 1,23,-1
 225 656 l 1,24,-1
 210 584 l 1,25,26
 228 602 228 602 250.5 617.5 c 128,-1,27
 273 633 273 633 297 644.5 c 128,-1,28
 321 656 321 656 344.5 662 c 128,-1,29
 368 668 368 668 389 668 c 0,30,31
 426 668 426 668 457 655.5 c 128,-1,32
 488 643 488 643 510.5 616 c 128,-1,33
 533 589 533 589 545 547 c 128,-1,34
 557 505 557 505 557 445 c 0,35,36
 557 355 557 355 540 272.5 c 128,-1,37
 523 190 523 190 491.5 127 c 128,-1,38
 460 64 460 64 416.5 26 c 128,-1,39
 373 -12 373 -12 321 -12 c 0,0,1
EndSplineSet
Validated: 1
Substitution2: "'ss05' Style Set 5 lookup 2 subtable" uni014A.a
EndChar

StartChar: IJ
Encoding: 306 306 255
Width: 600
GlyphClass: 5
Flags: W
LayerCount: 2
Fore
SplineSet
43 0 m 1,0,-1
 174 656 l 1,1,-1
 252 656 l 1,2,-1
 121 0 l 1,3,-1
 43 0 l 1,0,-1
288 -162 m 0,4,5
 265 -162 265 -162 247.5 -157 c 128,-1,6
 230 -152 230 -152 213 -143 c 1,7,-1
 238 -84 l 1,8,9
 248 -90 248 -90 258 -94 c 128,-1,10
 268 -98 268 -98 284 -98 c 0,11,12
 312 -98 312 -98 328.5 -74.5 c 128,-1,13
 345 -51 345 -51 355 -7 c 2,14,-1
 488 656 l 1,15,-1
 566 656 l 1,16,-1
 434 -5 l 2,17,18
 420 -74 420 -74 385.5 -118 c 128,-1,19
 351 -162 351 -162 288 -162 c 0,4,5
EndSplineSet
Validated: 1
EndChar

StartChar: uni004C00B7004C
Encoding: 1114114 -1 256
Width: 600
GlyphClass: 3
Flags: W
LayerCount: 2
Fore
SplineSet
-4 0 m 1,0,-1
 127 656 l 1,1,-1
 202 656 l 1,2,-1
 84 66 l 1,3,-1
 247 66 l 1,4,-1
 234 0 l 1,5,-1
 -4 0 l 1,0,-1
246 281 m 0,6,7
 217 281 217 281 200 300 c 128,-1,8
 183 319 183 319 183 349 c 0,9,10
 183 368 183 368 190 385 c 128,-1,11
 197 402 197 402 209 415 c 128,-1,12
 221 428 221 428 237.5 436 c 128,-1,13
 254 444 254 444 273 444 c 0,14,15
 302 444 302 444 319 424.5 c 128,-1,16
 336 405 336 405 336 375 c 0,17,18
 336 357 336 357 329 340 c 128,-1,19
 322 323 322 323 310 310 c 128,-1,20
 298 297 298 297 281.5 289 c 128,-1,21
 265 281 265 281 246 281 c 0,6,7
304 0 m 1,22,-1
 435 656 l 1,23,-1
 510 656 l 1,24,-1
 392 66 l 1,25,-1
 555 66 l 1,26,-1
 542 0 l 1,27,-1
 304 0 l 1,22,-1
EndSplineSet
Validated: 1
Ligature2: "'ccmp' Glyph Composition/Decomposition lookup 13 subtable" L periodcentered L
EndChar

StartChar: aringacute
Encoding: 507 507 266
Width: 600
Flags: W
LayerCount: 2
Fore
SplineSet
219 -12 m 0,0,1
 143 -12 143 -12 97.5 35.5 c 128,-1,2
 52 83 52 83 52 174 c 0,3,4
 52 239 52 239 73 298 c 128,-1,5
 94 357 94 357 130 401.5 c 128,-1,6
 166 446 166 446 214.5 472 c 128,-1,7
 263 498 263 498 319 498 c 0,8,9
 371 498 371 498 409.5 478 c 128,-1,10
 448 458 448 458 468 425 c 1,11,-1
 472 425 l 1,12,-1
 491 486 l 1,13,-1
 553 486 l 1,14,-1
 456 0 l 1,15,-1
 393 0 l 1,16,-1
 401 74 l 1,17,-1
 397 74 l 1,18,19
 359 35 359 35 312.5 11.5 c 128,-1,20
 266 -12 266 -12 219 -12 c 0,0,1
242 52 m 0,21,22
 282 52 282 52 325.5 76 c 128,-1,23
 369 100 369 100 409 146 c 1,24,-1
 454 362 l 1,25,26
 429 400 429 400 396.5 417 c 128,-1,27
 364 434 364 434 329 434 c 0,28,29
 287 434 287 434 251 413.5 c 128,-1,30
 215 393 215 393 188.5 358.5 c 128,-1,31
 162 324 162 324 146.5 279.5 c 128,-1,32
 131 235 131 235 131 186 c 0,33,34
 131 117 131 117 161 84.5 c 128,-1,35
 191 52 191 52 242 52 c 0,21,22
372 556 m 0,36,37
 331 556 331 556 304 577 c 128,-1,38
 277 598 277 598 277 638 c 0,39,40
 277 668 277 668 292.5 693.5 c 128,-1,41
 308 719 308 719 334 733 c 1,42,-1
 333 734 l 1,43,-1
 474 843 l 1,44,-1
 509 802 l 1,45,-1
 419 747 l 1,46,47
 451 742 451 742 471 721.5 c 128,-1,48
 491 701 491 701 491 667 c 0,49,50
 491 644 491 644 482 624 c 128,-1,51
 473 604 473 604 457.5 589 c 128,-1,52
 442 574 442 574 420 565 c 128,-1,53
 398 556 398 556 372 556 c 0,36,37
377 592 m 0,54,55
 403 592 403 592 421 613.5 c 128,-1,56
 439 635 439 635 439 664 c 0,57,58
 439 685 439 685 426 699 c 128,-1,59
 413 713 413 713 390 713 c 0,60,61
 365 713 365 713 347 691.5 c 128,-1,62
 329 670 329 670 329 641 c 0,63,64
 329 619 329 619 341.5 605.5 c 128,-1,65
 354 592 354 592 377 592 c 0,54,55
EndSplineSet
Validated: 1
Substitution2: "'ss02' Style Set 2 lookup 0 subtable" aringacute.a
EndChar

StartChar: aogonek
Encoding: 261 261 268
Width: 600
GlyphClass: 2
Flags: W
AnchorPoint: "Anchor-0" 353 507 basechar 0
LayerCount: 2
Fore
SplineSet
366 -225 m 0,0,1
 329 -225 329 -225 301.5 -207 c 128,-1,2
 274 -189 274 -189 274 -148 c 0,3,4
 274 -123 274 -123 284.5 -101 c 128,-1,5
 295 -79 295 -79 311.5 -60 c 128,-1,6
 328 -41 328 -41 349.5 -26 c 128,-1,7
 371 -11 371 -11 393 1 c 1,8,-1
 401 74 l 1,9,-1
 397 74 l 1,10,11
 359 35 359 35 312.5 11.5 c 128,-1,12
 266 -12 266 -12 219 -12 c 0,13,14
 143 -12 143 -12 97.5 35.5 c 128,-1,15
 52 83 52 83 52 174 c 0,16,17
 52 239 52 239 73 298 c 128,-1,18
 94 357 94 357 130 401.5 c 128,-1,19
 166 446 166 446 214.5 472 c 128,-1,20
 263 498 263 498 319 498 c 0,21,22
 371 498 371 498 409.5 478 c 128,-1,23
 448 458 448 458 468 425 c 1,24,-1
 472 425 l 1,25,-1
 491 486 l 1,26,-1
 553 486 l 1,27,-1
 455 -5 l 1,28,29
 394 -31 394 -31 364 -62 c 128,-1,30
 334 -93 334 -93 334 -126 c 0,31,32
 334 -151 334 -151 350.5 -162.5 c 128,-1,33
 367 -174 367 -174 391 -174 c 0,34,35
 418 -174 418 -174 441 -158 c 1,36,-1
 458 -193 l 1,37,38
 441 -207 441 -207 418 -216 c 128,-1,39
 395 -225 395 -225 366 -225 c 0,0,1
242 52 m 0,40,41
 282 52 282 52 325.5 76 c 128,-1,42
 369 100 369 100 409 146 c 1,43,-1
 454 362 l 1,44,45
 429 400 429 400 396.5 417 c 128,-1,46
 364 434 364 434 329 434 c 0,47,48
 287 434 287 434 251 413.5 c 128,-1,49
 215 393 215 393 188.5 358.5 c 128,-1,50
 162 324 162 324 146.5 279.5 c 128,-1,51
 131 235 131 235 131 186 c 0,52,53
 131 117 131 117 161 84.5 c 128,-1,54
 191 52 191 52 242 52 c 0,40,41
EndSplineSet
Validated: 1
Ligature2: "'ccmp' Glyph Composition/Decomposition lookup 13 subtable" a uni0328
Substitution2: "'ss02' Style Set 2 lookup 0 subtable" aogonek.a
EndChar

StartChar: ae
Encoding: 230 230 281
Width: 600
GlyphClass: 2
Flags: W
AnchorPoint: "Anchor-3" 256 -20 basechar 0
AnchorPoint: "Anchor-2" 393 0 basechar 0
AnchorPoint: "Anchor-0" 340 507 basechar 0
LayerCount: 2
Fore
SplineSet
88 -12 m 0,0,1
 36 -12 36 -12 7 17 c 128,-1,2
 -22 46 -22 46 -22 97 c 0,3,4
 -22 187 -22 187 51.5 235 c 128,-1,5
 125 283 125 283 268 306 c 1,6,7
 282 363 282 363 265 399.5 c 128,-1,8
 248 436 248 436 199 436 c 0,9,10
 166 436 166 436 134.5 422.5 c 128,-1,11
 103 409 103 409 79 392 c 1,12,-1
 51 440 l 1,13,14
 80 461 80 461 123 479.5 c 128,-1,15
 166 498 166 498 217 498 c 0,16,17
 262 498 262 498 291 472.5 c 128,-1,18
 320 447 320 447 327 405 c 1,19,20
 359 453 359 453 400 475.5 c 128,-1,21
 441 498 441 498 485 498 c 0,22,23
 515 498 515 498 536.5 486 c 128,-1,24
 558 474 558 474 572 453 c 128,-1,25
 586 432 586 432 592.5 404.5 c 128,-1,26
 599 377 599 377 599 346 c 0,27,28
 599 301 599 301 591.5 271 c 128,-1,29
 584 241 584 241 578 224 c 1,30,-1
 314 224 l 1,31,32
 312 210 312 210 311 196.5 c 128,-1,33
 310 183 310 183 310 169 c 0,34,35
 310 115 310 115 333.5 82 c 128,-1,36
 357 49 357 49 405 49 c 0,37,38
 435 49 435 49 461.5 58.5 c 128,-1,39
 488 68 488 68 514 86 c 1,40,-1
 538 36 l 1,41,42
 512 16 512 16 473.5 2 c 128,-1,43
 435 -12 435 -12 396 -12 c 0,44,45
 342 -12 342 -12 309.5 13 c 128,-1,46
 277 38 277 38 261 75 c 1,47,48
 218 30 218 30 174 9 c 128,-1,49
 130 -12 130 -12 88 -12 c 0,0,1
109 49 m 0,50,51
 139 49 139 49 177.5 69.5 c 128,-1,52
 216 90 216 90 248 126 c 1,53,54
 247 132 247 132 246.5 138.5 c 128,-1,55
 246 145 246 145 246 151 c 0,56,57
 246 178 246 178 248 201.5 c 128,-1,58
 250 225 250 225 255 254 c 1,59,60
 154 235 154 235 102 202.5 c 128,-1,61
 50 170 50 170 50 112 c 0,62,63
 50 80 50 80 66.5 64.5 c 128,-1,64
 83 49 83 49 109 49 c 0,50,51
470 437 m 0,65,66
 446 437 446 437 424 425.5 c 128,-1,67
 402 414 402 414 383.5 393.5 c 128,-1,68
 365 373 365 373 350.5 344.5 c 128,-1,69
 336 316 336 316 326 283 c 1,70,-1
 530 283 l 1,71,72
 536 314 536 314 536 343 c 0,73,74
 536 387 536 387 520.5 412 c 128,-1,75
 505 437 505 437 470 437 c 0,65,66
EndSplineSet
Validated: 33
EndChar

StartChar: uni0180
Encoding: 384 384 284
Width: 600
Flags: W
LayerCount: 2
Fore
SplineSet
270 -12 m 0,0,1
 222 -12 222 -12 183 8.5 c 128,-1,2
 144 29 144 29 121 61 c 1,3,-1
 118 61 l 1,4,-1
 100 0 l 1,5,-1
 36 0 l 1,6,-1
 149 566 l 1,7,-1
 76 566 l 1,8,-1
 85 620 l 1,9,-1
 161 626 l 1,10,-1
 178 712 l 1,11,-1
 255 712 l 1,12,-1
 237 626 l 1,13,-1
 452 626 l 1,14,-1
 442 566 l 1,15,-1
 225 566 l 1,16,-1
 212 502 l 1,17,-1
 187 395 l 1,18,-1
 190 395 l 1,19,20
 227 430 227 430 273.5 454 c 128,-1,21
 320 478 320 478 369 478 c 0,22,23
 447 478 447 478 492 429.5 c 128,-1,24
 537 381 537 381 537 289 c 0,25,26
 537 226 537 226 516 171 c 128,-1,27
 495 116 495 116 459 75.5 c 128,-1,28
 423 35 423 35 374.5 11.5 c 128,-1,29
 326 -12 326 -12 270 -12 c 0,0,1
262 52 m 0,30,31
 303 52 303 52 338.5 70 c 128,-1,32
 374 88 374 88 400.5 119 c 128,-1,33
 427 150 427 150 442.5 191 c 128,-1,34
 458 232 458 232 458 278 c 0,35,36
 458 347 458 347 427 380.5 c 128,-1,37
 396 414 396 414 344 414 c 0,38,39
 306 414 306 414 260.5 389.5 c 128,-1,40
 215 365 215 365 177 320 c 1,41,-1
 137 122 l 1,42,43
 163 84 163 84 195 68 c 128,-1,44
 227 52 227 52 262 52 c 0,30,31
EndSplineSet
Validated: 1
EndChar

StartChar: dcaron
Encoding: 271 271 291
Width: 600
GlyphClass: 3
Flags: W
LayerCount: 2
Fore
SplineSet
193 -12 m 0,0,1
 124 -12 124 -12 83 35.5 c 128,-1,2
 42 83 42 83 42 174 c 0,3,4
 42 239 42 239 62 298 c 128,-1,5
 82 357 82 357 117 401.5 c 128,-1,6
 152 446 152 446 199.5 472 c 128,-1,7
 247 498 247 498 302 498 c 0,8,9
 347 498 347 498 380.5 480 c 128,-1,10
 414 462 414 462 434 431 c 1,11,-1
 437 431 l 1,12,-1
 453 526 l 1,13,-1
 491 712 l 1,14,-1
 567 712 l 1,15,-1
 424 0 l 1,16,-1
 361 0 l 1,17,-1
 367 66 l 1,18,-1
 363 66 l 1,19,20
 326 29 326 29 282 8.5 c 128,-1,21
 238 -12 238 -12 193 -12 c 0,0,1
224 52 m 0,22,23
 260 52 260 52 298.5 73 c 128,-1,24
 337 94 337 94 375 139 c 1,25,-1
 422 365 l 1,26,27
 399 402 399 402 370 418 c 128,-1,28
 341 434 341 434 308 434 c 0,29,30
 269 434 269 434 234.5 413.5 c 128,-1,31
 200 393 200 393 174.5 358.5 c 128,-1,32
 149 324 149 324 134.5 279.5 c 128,-1,33
 120 235 120 235 120 186 c 0,34,35
 120 117 120 117 148.5 84.5 c 128,-1,36
 177 52 177 52 224 52 c 0,22,23
606 548 m 1,37,-1
 655 816 l 1,38,-1
 727 816 l 1,39,-1
 709 735 l 1,40,-1
 657 548 l 1,41,-1
 606 548 l 1,37,-1
EndSplineSet
Validated: 1
Ligature2: "'ccmp' Glyph Composition/Decomposition lookup 13 subtable" d uni030C
EndChar

StartChar: dcroat
Encoding: 273 273 295
Width: 600
GlyphClass: 2
Flags: W
AnchorPoint: "Anchor-3" 249 -20 basechar 0
AnchorPoint: "Anchor-0" 559 736 basechar 0
LayerCount: 2
Fore
SplineSet
214 -12 m 0,0,1
 138 -12 138 -12 93 35.5 c 128,-1,2
 48 83 48 83 48 174 c 0,3,4
 48 235 48 235 68.5 290.5 c 128,-1,5
 89 346 89 346 124.5 387.5 c 128,-1,6
 160 429 160 429 208.5 453.5 c 128,-1,7
 257 478 257 478 313 478 c 0,8,9
 365 478 365 478 400.5 458.5 c 128,-1,10
 436 439 436 439 457 407 c 1,11,-1
 460 407 l 1,12,-1
 477 502 l 1,13,-1
 490 566 l 1,14,-1
 316 566 l 1,15,-1
 326 626 l 1,16,-1
 502 626 l 1,17,-1
 519 712 l 1,18,-1
 595 712 l 1,19,-1
 578 626 l 1,20,-1
 648 626 l 1,21,-1
 640 572 l 1,22,-1
 566 566 l 1,23,-1
 452 0 l 1,24,-1
 389 0 l 1,25,-1
 396 74 l 1,26,-1
 392 74 l 1,27,28
 354 35 354 35 308 11.5 c 128,-1,29
 262 -12 262 -12 214 -12 c 0,0,1
238 52 m 0,30,31
 277 52 277 52 320.5 76 c 128,-1,32
 364 100 364 100 404 146 c 1,33,-1
 445 342 l 1,34,35
 420 380 420 380 389 397 c 128,-1,36
 358 414 358 414 323 414 c 0,37,38
 281 414 281 414 245 395 c 128,-1,39
 209 376 209 376 182.5 344.5 c 128,-1,40
 156 313 156 313 141 272 c 128,-1,41
 126 231 126 231 126 186 c 0,42,43
 126 117 126 117 156.5 84.5 c 128,-1,44
 187 52 187 52 238 52 c 0,30,31
EndSplineSet
Validated: 1
EndChar

StartChar: eogonek
Encoding: 281 281 303
Width: 600
GlyphClass: 2
Flags: W
AnchorPoint: "Anchor-0" 346 507 basechar 0
LayerCount: 2
Fore
SplineSet
336 -225 m 0,0,1
 299 -225 299 -225 271.5 -207 c 128,-1,2
 244 -189 244 -189 244 -148 c 0,3,4
 244 -103 244 -103 272 -67.5 c 128,-1,5
 300 -32 300 -32 338 -2 c 1,6,7
 323 -7 323 -7 305.5 -9.5 c 128,-1,8
 288 -12 288 -12 270 -12 c 0,9,10
 175 -12 175 -12 119 41.5 c 128,-1,11
 63 95 63 95 63 198 c 0,12,13
 63 264 63 264 85.5 319 c 128,-1,14
 108 374 108 374 146.5 413.5 c 128,-1,15
 185 453 185 453 235 475.5 c 128,-1,16
 285 498 285 498 340 498 c 0,17,18
 385 498 385 498 419.5 484 c 128,-1,19
 454 470 454 470 477.5 445 c 128,-1,20
 501 420 501 420 513 385.5 c 128,-1,21
 525 351 525 351 525 311 c 0,22,23
 525 285 525 285 520.5 259.5 c 128,-1,24
 516 234 516 234 512 224 c 1,25,-1
 140 224 l 1,26,27
 139 219 139 219 139 213.5 c 128,-1,28
 139 208 139 208 139 202 c 0,29,30
 139 128 139 128 179 88.5 c 128,-1,31
 219 49 219 49 285 49 c 0,32,33
 333 49 333 49 375 67 c 128,-1,34
 417 85 417 85 451 112 c 1,35,-1
 480 60 l 1,36,37
 399 7 399 7 351.5 -39 c 128,-1,38
 304 -85 304 -85 304 -126 c 0,39,40
 304 -151 304 -151 321 -162.5 c 128,-1,41
 338 -174 338 -174 361 -174 c 0,42,43
 388 -174 388 -174 411 -158 c 1,44,-1
 429 -193 l 1,45,46
 411 -207 411 -207 388 -216 c 128,-1,47
 365 -225 365 -225 336 -225 c 0,0,1
336 437 m 0,48,49
 308 437 308 437 280 426.5 c 128,-1,50
 252 416 252 416 227.5 396 c 128,-1,51
 203 376 203 376 183 347.5 c 128,-1,52
 163 319 163 319 152 284 c 1,53,-1
 450 284 l 1,54,55
 453 299 453 299 453 314 c 0,56,57
 453 371 453 371 421.5 404 c 128,-1,58
 390 437 390 437 336 437 c 0,48,49
EndSplineSet
Validated: 1
Ligature2: "'ccmp' Glyph Composition/Decomposition lookup 13 subtable" e uni0328
EndChar

StartChar: hbar
Encoding: 295 295 328
Width: 600
Flags: W
LayerCount: 2
Fore
SplineSet
37 0 m 1,0,-1
 150 566 l 1,1,-1
 76 566 l 1,2,-1
 84 620 l 1,3,-1
 162 626 l 1,4,-1
 179 712 l 1,5,-1
 256 712 l 1,6,-1
 238 626 l 1,7,-1
 452 626 l 1,8,-1
 442 566 l 1,9,-1
 226 566 l 1,10,-1
 198 429 l 1,11,-1
 183 368 l 1,12,-1
 187 368 l 1,13,14
 209 390 209 390 233.5 410 c 128,-1,15
 258 430 258 430 284.5 445 c 128,-1,16
 311 460 311 460 340.5 468.5 c 128,-1,17
 370 477 370 477 402 477 c 0,18,19
 466 477 466 477 496.5 444.5 c 128,-1,20
 527 412 527 412 527 356 c 0,21,22
 527 335 527 335 524.5 316 c 128,-1,23
 522 297 522 297 517 277 c 2,24,-1
 462 0 l 1,25,-1
 385 0 l 1,26,-1
 439 268 l 2,27,28
 443 288 443 288 445.5 303.5 c 128,-1,29
 448 319 448 319 448 336 c 0,30,31
 448 411 448 411 371 411 c 0,32,33
 322 411 322 411 272 380 c 128,-1,34
 222 349 222 349 172 294 c 1,35,-1
 113 0 l 1,36,-1
 37 0 l 1,0,-1
EndSplineSet
Validated: 1
EndChar

StartChar: dotlessi
Encoding: 305 305 340
Width: 600
GlyphClass: 2
Flags: W
AnchorPoint: "Anchor-6" 364 0 basechar 0
AnchorPoint: "Anchor-3" 333 -20 basechar 0
AnchorPoint: "Anchor-2" 351 0 basechar 0
AnchorPoint: "Anchor-0" 320 507 basechar 0
LayerCount: 2
Fore
SplineSet
347 -12 m 0,0,1
 289 -12 289 -12 252.5 19 c 128,-1,2
 216 50 216 50 216 110 c 0,3,4
 216 133 216 133 224 163 c 2,5,-1
 282 424 l 1,6,-1
 104 424 l 1,7,-1
 117 486 l 1,8,-1
 371 486 l 1,9,-1
 298 156 l 2,10,11
 296 147 296 147 295 139.5 c 128,-1,12
 294 132 294 132 294 124 c 0,13,14
 294 86 294 86 315 69 c 128,-1,15
 336 52 336 52 369 52 c 0,16,17
 392 52 392 52 414 59 c 128,-1,18
 436 66 436 66 462 78 c 1,19,-1
 480 20 l 1,20,21
 449 6 449 6 418 -3 c 128,-1,22
 387 -12 387 -12 347 -12 c 0,0,1
EndSplineSet
Validated: 1
EndChar

StartChar: kgreenlandic
Encoding: 312 312 345
Width: 600
Flags: W
LayerCount: 2
Fore
SplineSet
49 0 m 1,0,-1
 146 486 l 1,1,-1
 222 486 l 1,2,-1
 171 228 l 1,3,-1
 175 228 l 1,4,-1
 492 486 l 1,5,-1
 585 486 l 1,6,-1
 357 292 l 1,7,-1
 509 0 l 1,8,-1
 429 0 l 1,9,-1
 301 247 l 1,10,-1
 152 128 l 1,11,-1
 126 0 l 1,12,-1
 49 0 l 1,0,-1
EndSplineSet
Validated: 1
EndChar

StartChar: lslash
Encoding: 322 322 352
Width: 600
GlyphClass: 2
Flags: W
AnchorPoint: "Anchor-3" 323 -20 basechar 0
AnchorPoint: "Anchor-0" 350 736 basechar 0
LayerCount: 2
Fore
SplineSet
325 -12 m 0,0,1
 268 -12 268 -12 231.5 20.5 c 128,-1,2
 195 53 195 53 195 117 c 0,3,4
 195 142 195 142 202 171 c 2,5,-1
 237 336 l 1,6,-1
 118 275 l 1,7,-1
 99 324 l 1,8,-1
 251 402 l 1,9,-1
 303 650 l 1,10,-1
 141 650 l 1,11,-1
 154 712 l 1,12,-1
 391 712 l 1,13,-1
 334 439 l 1,14,-1
 499 524 l 1,15,-1
 520 476 l 1,16,-1
 320 373 l 1,17,-1
 277 168 l 2,18,19
 272 143 272 143 272 124 c 0,20,21
 272 86 272 86 292 69 c 128,-1,22
 312 52 312 52 346 52 c 0,23,24
 370 52 370 52 392.5 58.5 c 128,-1,25
 415 65 415 65 441 79 c 1,26,-1
 460 20 l 1,27,28
 428 4 428 4 394.5 -4 c 128,-1,29
 361 -12 361 -12 325 -12 c 0,0,1
EndSplineSet
Validated: 1
EndChar

StartChar: napostrophe
Encoding: 329 329 365
Width: 600
Flags: W
LayerCount: 2
Fore
SplineSet
141 0 m 1,0,-1
 238 486 l 1,1,-1
 301 486 l 1,2,-1
 290 393 l 1,3,-1
 294 393 l 1,4,5
 315 414 315 414 337.5 433 c 128,-1,6
 360 452 360 452 385 466.5 c 128,-1,7
 410 481 410 481 437.5 489.5 c 128,-1,8
 465 498 465 498 496 498 c 0,9,10
 556 498 556 498 582 465 c 128,-1,11
 608 432 608 432 608 377 c 0,12,13
 608 337 608 337 599 297 c 2,14,-1
 540 0 l 1,15,-1
 463 0 l 1,16,-1
 521 289 l 2,17,18
 525 308 525 308 527.5 324 c 128,-1,19
 530 340 530 340 530 357 c 0,20,21
 530 393 530 393 512.5 412.5 c 128,-1,22
 495 432 495 432 462 432 c 0,23,24
 417 432 417 432 373.5 402.5 c 128,-1,25
 330 373 330 373 282 323 c 1,26,-1
 218 0 l 1,27,-1
 141 0 l 1,0,-1
3 373 m 1,28,-1
 -9 418 l 1,29,30
 51 436 51 436 88 471 c 128,-1,31
 125 506 125 506 137 554 c 1,32,33
 122 549 122 549 110 549 c 0,34,35
 87 549 87 549 72 565.5 c 128,-1,36
 57 582 57 582 57 611 c 0,37,38
 57 648 57 648 82 673.5 c 128,-1,39
 107 699 107 699 141 699 c 0,40,41
 173 699 173 699 194.5 677 c 128,-1,42
 216 655 216 655 216 610 c 0,43,44
 216 569 216 569 201 531.5 c 128,-1,45
 186 494 186 494 158.5 463.5 c 128,-1,46
 131 433 131 433 91.5 409.5 c 128,-1,47
 52 386 52 386 3 373 c 1,28,-1
EndSplineSet
Validated: 1
EndChar

StartChar: uni01EB
Encoding: 491 491 374
Width: 600
GlyphClass: 2
Flags: W
AnchorPoint: "Anchor-0" 340 507 basechar 0
LayerCount: 2
Fore
SplineSet
213 -225 m 0,0,1
 176 -225 176 -225 149 -207 c 128,-1,2
 122 -189 122 -189 122 -148 c 0,3,4
 122 -126 122 -126 130 -105.5 c 128,-1,5
 138 -85 138 -85 151.5 -67 c 128,-1,6
 165 -49 165 -49 181 -34.5 c 128,-1,7
 197 -20 197 -20 214 -9 c 1,8,9
 177 -5 177 -5 146.5 11.5 c 128,-1,10
 116 28 116 28 93.5 55 c 128,-1,11
 71 82 71 82 58.5 119 c 128,-1,12
 46 156 46 156 46 201 c 0,13,14
 46 265 46 265 69 319 c 128,-1,15
 92 373 92 373 130.5 413 c 128,-1,16
 169 453 169 453 219.5 475.5 c 128,-1,17
 270 498 270 498 326 498 c 0,18,19
 374 498 374 498 411.5 482.5 c 128,-1,20
 449 467 449 467 475 439 c 128,-1,21
 501 411 501 411 515 371.5 c 128,-1,22
 529 332 529 332 529 285 c 0,23,24
 529 226 529 226 511 177 c 128,-1,25
 493 128 493 128 463 91 c 128,-1,26
 433 54 433 54 393 29 c 128,-1,27
 353 4 353 4 310 -6 c 0,28,29
 277 -14 277 -14 252.5 -28.5 c 128,-1,30
 228 -43 228 -43 212 -60 c 128,-1,31
 196 -77 196 -77 188.5 -94.5 c 128,-1,32
 181 -112 181 -112 181 -126 c 0,33,34
 181 -151 181 -151 198 -162.5 c 128,-1,35
 215 -174 215 -174 239 -174 c 0,36,37
 266 -174 266 -174 289 -158 c 1,38,-1
 306 -193 l 1,39,40
 289 -207 289 -207 265.5 -216 c 128,-1,41
 242 -225 242 -225 213 -225 c 0,0,1
255 51 m 0,42,43
 294 51 294 51 329.5 69 c 128,-1,44
 365 87 365 87 392 118 c 128,-1,45
 419 149 419 149 435.5 190.5 c 128,-1,46
 452 232 452 232 452 280 c 0,47,48
 452 352 452 352 417.5 393 c 128,-1,49
 383 434 383 434 320 434 c 0,50,51
 281 434 281 434 245.5 416 c 128,-1,52
 210 398 210 398 183 367 c 128,-1,53
 156 336 156 336 140 294.5 c 128,-1,54
 124 253 124 253 124 206 c 0,55,56
 124 134 124 134 158.5 92.5 c 128,-1,57
 193 51 193 51 255 51 c 0,42,43
EndSplineSet
Validated: 1
Ligature2: "'ccmp' Glyph Composition/Decomposition lookup 13 subtable" o uni0328
EndChar

StartChar: ohorn
Encoding: 417 417 384
Width: 600
GlyphClass: 2
Flags: W
AnchorPoint: "Anchor-3" 234 -20 basechar 0
AnchorPoint: "Anchor-0" 339 507 basechar 0
LayerCount: 2
Fore
SplineSet
250 -12 m 0,0,1
 202 -12 202 -12 164 3.5 c 128,-1,2
 126 19 126 19 100 47 c 128,-1,3
 74 75 74 75 60 114.5 c 128,-1,4
 46 154 46 154 46 201 c 0,5,6
 46 265 46 265 69 319 c 128,-1,7
 92 373 92 373 130.5 413 c 128,-1,8
 169 453 169 453 219.5 475.5 c 128,-1,9
 270 498 270 498 326 498 c 0,10,11
 384 498 384 498 427 475 c 1,12,13
 475 482 475 482 503 508.5 c 128,-1,14
 531 535 531 535 531 582 c 0,15,16
 531 606 531 606 523 629 c 1,17,-1
 584 651 l 1,18,19
 591 633 591 633 593 618 c 128,-1,20
 595 603 595 603 595 586 c 0,21,22
 595 554 595 554 585 530.5 c 128,-1,23
 575 507 575 507 558 489.5 c 128,-1,24
 541 472 541 472 518.5 461 c 128,-1,25
 496 450 496 450 471 443 c 1,26,27
 529 385 529 385 529 285 c 0,28,29
 529 221 529 221 506 166.5 c 128,-1,30
 483 112 483 112 445 72.5 c 128,-1,31
 407 33 407 33 356 10.5 c 128,-1,32
 305 -12 305 -12 250 -12 c 0,0,1
255 52 m 0,33,34
 294 52 294 52 329.5 70 c 128,-1,35
 365 88 365 88 392 119 c 128,-1,36
 419 150 419 150 435.5 191.5 c 128,-1,37
 452 233 452 233 452 280 c 0,38,39
 452 352 452 352 417.5 393 c 128,-1,40
 383 434 383 434 320 434 c 0,41,42
 281 434 281 434 245.5 416 c 128,-1,43
 210 398 210 398 183 367 c 128,-1,44
 156 336 156 336 140 294.5 c 128,-1,45
 124 253 124 253 124 206 c 0,46,47
 124 135 124 135 158.5 93.5 c 128,-1,48
 193 52 193 52 255 52 c 0,33,34
EndSplineSet
Validated: 1
EndChar

StartChar: oslash
Encoding: 248 248 390
Width: 600
GlyphClass: 2
Flags: W
AnchorPoint: "Anchor-3" 234 -20 basechar 0
AnchorPoint: "Anchor-2" 238 0 basechar 0
AnchorPoint: "Anchor-0" 339 507 basechar 0
LayerCount: 2
Fore
SplineSet
250 -12 m 0,0,1
 165 -12 165 -12 112 36 c 1,2,-1
 42 -30 l 1,3,-1
 -1 14 l 1,4,-1
 73 84 l 1,5,6
 60 109 60 109 53 138 c 128,-1,7
 46 167 46 167 46 201 c 0,8,9
 46 265 46 265 69 319 c 128,-1,10
 92 373 92 373 130.5 413 c 128,-1,11
 169 453 169 453 219.5 475.5 c 128,-1,12
 270 498 270 498 326 498 c 0,13,14
 410 498 410 498 463 450 c 1,15,-1
 533 516 l 1,16,-1
 576 472 l 1,17,-1
 502 402 l 1,18,19
 515 377 515 377 522 348 c 128,-1,20
 529 319 529 319 529 285 c 0,21,22
 529 221 529 221 506 166.5 c 128,-1,23
 483 112 483 112 445 72.5 c 128,-1,24
 407 33 407 33 356 10.5 c 128,-1,25
 305 -12 305 -12 250 -12 c 0,0,1
121 203 m 0,26,27
 121 165 121 165 131 138 c 1,28,-1
 412 403 l 1,29,30
 377 436 377 436 323 436 c 0,31,32
 281 436 281 436 244 417.5 c 128,-1,33
 207 399 207 399 180 367 c 128,-1,34
 153 335 153 335 137 293 c 128,-1,35
 121 251 121 251 121 203 c 0,26,27
252 50 m 0,36,37
 294 50 294 50 331 68.5 c 128,-1,38
 368 87 368 87 395.5 119 c 128,-1,39
 423 151 423 151 439 193 c 128,-1,40
 455 235 455 235 455 283 c 0,41,42
 455 301 455 301 452.5 318 c 128,-1,43
 450 335 450 335 445 349 c 1,44,-1
 163 84 l 1,45,46
 197 50 197 50 252 50 c 0,36,37
EndSplineSet
Validated: 1
EndChar

StartChar: oe
Encoding: 339 339 392
Width: 600
GlyphClass: 2
Flags: W
AnchorPoint: "Anchor-3" 270 -20 basechar 0
AnchorPoint: "Anchor-2" 409 0 basechar 0
AnchorPoint: "Anchor-0" 340 507 basechar 0
LayerCount: 2
Fore
SplineSet
124 -12 m 0,0,1
 60 -12 60 -12 25.5 36.5 c 128,-1,2
 -9 85 -9 85 -9 173 c 0,3,4
 -9 245 -9 245 9.5 305 c 128,-1,5
 28 365 28 365 59.5 408 c 128,-1,6
 91 451 91 451 132.5 474.5 c 128,-1,7
 174 498 174 498 219 498 c 0,8,9
 267 498 267 498 295 468 c 128,-1,10
 323 438 323 438 331 382 c 1,11,12
 359 439 359 439 400 468.5 c 128,-1,13
 441 498 441 498 486 498 c 0,14,15
 543 498 543 498 571 457.5 c 128,-1,16
 599 417 599 417 599 344 c 0,17,18
 599 308 599 308 591.5 274 c 128,-1,19
 584 240 584 240 579 224 c 1,20,-1
 330 224 l 1,21,22
 328 209 328 209 327 194 c 128,-1,23
 326 179 326 179 326 164 c 0,24,25
 326 105 326 105 349.5 77 c 128,-1,26
 373 49 373 49 417 49 c 0,27,28
 448 49 448 49 474.5 60 c 128,-1,29
 501 71 501 71 522 86 c 1,30,-1
 546 35 l 1,31,32
 520 15 520 15 482.5 1.5 c 128,-1,33
 445 -12 445 -12 404 -12 c 0,34,35
 359 -12 359 -12 325.5 13 c 128,-1,36
 292 38 292 38 281 88 c 1,37,38
 251 37 251 37 210.5 12.5 c 128,-1,39
 170 -12 170 -12 124 -12 c 0,0,1
473 437 m 0,40,41
 452 437 452 437 432.5 425 c 128,-1,42
 413 413 413 413 396.5 392.5 c 128,-1,43
 380 372 380 372 366 344 c 128,-1,44
 352 316 352 316 343 284 c 1,45,-1
 529 284 l 1,46,47
 532 298 532 298 534 313 c 128,-1,48
 536 328 536 328 536 342 c 0,49,50
 536 383 536 383 523 410 c 128,-1,51
 510 437 510 437 473 437 c 0,40,41
62 176 m 0,52,53
 62 119 62 119 81 85 c 128,-1,54
 100 51 100 51 138 51 c 0,55,56
 168 51 168 51 195 72.5 c 128,-1,57
 222 94 222 94 241.5 129.5 c 128,-1,58
 261 165 261 165 272.5 211 c 128,-1,59
 284 257 284 257 284 307 c 0,60,61
 284 367 284 367 266 401 c 128,-1,62
 248 435 248 435 213 435 c 0,63,64
 180 435 180 435 152.5 411.5 c 128,-1,65
 125 388 125 388 104.5 351 c 128,-1,66
 84 314 84 314 73 268 c 128,-1,67
 62 222 62 222 62 176 c 0,52,53
EndSplineSet
Validated: 1
EndChar

StartChar: germandbls
Encoding: 223 223 407
Width: 600
Flags: W
LayerCount: 2
Fore
SplineSet
353 -12 m 0,0,1
 315 -12 315 -12 277.5 0 c 128,-1,2
 240 12 240 12 208 39 c 1,3,-1
 242 93 l 1,4,5
 268 71 268 71 293.5 59.5 c 128,-1,6
 319 48 319 48 353 48 c 0,7,8
 375 48 375 48 394 54.5 c 128,-1,9
 413 61 413 61 427.5 72 c 128,-1,10
 442 83 442 83 450.5 99 c 128,-1,11
 459 115 459 115 459 133 c 0,12,13
 459 157 459 157 447 175.5 c 128,-1,14
 435 194 435 194 417.5 209.5 c 128,-1,15
 400 225 400 225 379.5 239 c 128,-1,16
 359 253 359 253 341.5 269.5 c 128,-1,17
 324 286 324 286 312 305 c 128,-1,18
 300 324 300 324 300 350 c 0,19,20
 300 389 300 389 321.5 415.5 c 128,-1,21
 343 442 343 442 368.5 466 c 128,-1,22
 394 490 394 490 415.5 517 c 128,-1,23
 437 544 437 544 437 584 c 0,24,25
 437 619 437 619 418 640.5 c 128,-1,26
 399 662 399 662 356 662 c 0,27,28
 301 662 301 662 262.5 620.5 c 128,-1,29
 224 579 224 579 208 501 c 2,30,-1
 109 0 l 1,31,-1
 32 0 l 1,32,-1
 136 518 l 2,33,34
 155 612 155 612 212.5 668 c 128,-1,35
 270 724 270 724 359 724 c 0,36,37
 392 724 392 724 420 716 c 128,-1,38
 448 708 448 708 468.5 691.5 c 128,-1,39
 489 675 489 675 500.5 650 c 128,-1,40
 512 625 512 625 512 592 c 0,41,42
 512 561 512 561 502 537.5 c 128,-1,43
 492 514 492 514 477 495 c 128,-1,44
 462 476 462 476 444 460.5 c 128,-1,45
 426 445 426 445 411 430 c 128,-1,46
 396 415 396 415 386 399 c 128,-1,47
 376 383 376 383 376 363 c 0,48,49
 376 344 376 344 387.5 329.5 c 128,-1,50
 399 315 399 315 416.5 301 c 128,-1,51
 434 287 434 287 454 272 c 128,-1,52
 474 257 474 257 491.5 238.5 c 128,-1,53
 509 220 509 220 520.5 196.5 c 128,-1,54
 532 173 532 173 532 141 c 256,55,56
 532 109 532 109 519 81 c 128,-1,57
 506 53 506 53 483 32.5 c 128,-1,58
 460 12 460 12 426.5 0 c 128,-1,59
 393 -12 393 -12 353 -12 c 0,0,1
EndSplineSet
Validated: 1
EndChar

StartChar: longs
Encoding: 383 383 408
Width: 600
Flags: W
LayerCount: 2
Fore
SplineSet
169 0 m 1,0,-1
 255 424 l 1,1,-1
 115 424 l 1,2,-1
 126 481 l 1,3,-1
 267 486 l 1,4,-1
 278 540 l 2,5,6
 298 637 298 637 352 680.5 c 128,-1,7
 406 724 406 724 489 724 c 0,8,9
 534 724 534 724 569.5 710 c 128,-1,10
 605 696 605 696 630 675 c 1,11,-1
 593 626 l 1,12,13
 570 643 570 643 546 652.5 c 128,-1,14
 522 662 522 662 491 662 c 0,15,16
 439 662 439 662 403.5 633 c 128,-1,17
 368 604 368 604 354 537 c 2,18,-1
 246 0 l 1,19,-1
 169 0 l 1,0,-1
EndSplineSet
Validated: 1
EndChar

StartChar: tbar
Encoding: 359 359 415
Width: 600
GlyphClass: 2
Flags: W
AnchorPoint: "Anchor-3" 308 -20 basechar 0
AnchorPoint: "Anchor-0" 297 635 basechar 0
LayerCount: 2
Fore
SplineSet
38 224 m 1,0,-1
 50 280 l 1,1,-1
 186 284 l 1,2,-1
 215 424 l 1,3,-1
 74 424 l 1,4,-1
 85 481 l 1,5,-1
 231 486 l 1,6,-1
 273 642 l 1,7,-1
 336 642 l 1,8,-1
 304 486 l 1,9,-1
 544 486 l 1,10,-1
 531 424 l 1,11,-1
 291 424 l 1,12,-1
 262 284 l 1,13,-1
 490 284 l 1,14,-1
 478 224 l 1,15,-1
 249 224 l 1,16,-1
 242 188 l 2,17,18
 239 174 239 174 238 164 c 128,-1,19
 237 154 237 154 237 143 c 0,20,21
 237 97 237 97 261 74.5 c 128,-1,22
 285 52 285 52 327 52 c 0,23,24
 363 52 363 52 395 62.5 c 128,-1,25
 427 73 427 73 453 87 c 1,26,-1
 478 32 l 1,27,28
 446 12 446 12 402 0 c 128,-1,29
 358 -12 358 -12 307 -12 c 0,30,31
 230 -12 230 -12 194.5 26 c 128,-1,32
 159 64 159 64 159 127 c 0,33,34
 159 143 159 143 161.5 158 c 128,-1,35
 164 173 164 173 167 190 c 2,36,-1
 174 224 l 1,37,-1
 38 224 l 1,0,-1
EndSplineSet
Validated: 1
EndChar

StartChar: uogonek
Encoding: 371 371 426
Width: 600
GlyphClass: 2
Flags: W
AnchorPoint: "Anchor-0" 337 507 basechar 0
LayerCount: 2
Fore
SplineSet
362 -225 m 0,0,1
 324 -225 324 -225 297 -207 c 128,-1,2
 270 -189 270 -189 270 -148 c 0,3,4
 270 -123 270 -123 280.5 -101 c 128,-1,5
 291 -79 291 -79 307.5 -60 c 128,-1,6
 324 -41 324 -41 345.5 -26 c 128,-1,7
 367 -11 367 -11 389 1 c 1,8,-1
 402 99 l 1,9,-1
 398 99 l 1,10,11
 376 78 376 78 351.5 58 c 128,-1,12
 327 38 327 38 300 22.5 c 128,-1,13
 273 7 273 7 243.5 -2.5 c 128,-1,14
 214 -12 214 -12 182 -12 c 0,15,16
 116 -12 116 -12 86 21 c 128,-1,17
 56 54 56 54 56 109 c 0,18,19
 56 130 56 130 58.5 149.5 c 128,-1,20
 61 169 61 169 65 189 c 2,21,-1
 125 486 l 1,22,-1
 201 486 l 1,23,-1
 143 197 l 2,24,25
 139 178 139 178 136.5 162 c 128,-1,26
 134 146 134 146 134 129 c 0,27,28
 134 93 134 93 153.5 73.5 c 128,-1,29
 173 54 173 54 211 54 c 0,30,31
 261 54 261 54 310 85 c 128,-1,32
 359 116 359 116 409 172 c 1,33,-1
 472 486 l 1,34,-1
 549 486 l 1,35,-1
 451 -5 l 1,36,37
 389 -31 389 -31 359 -62 c 128,-1,38
 329 -93 329 -93 329 -126 c 0,39,40
 329 -151 329 -151 346 -162.5 c 128,-1,41
 363 -174 363 -174 387 -174 c 0,42,43
 414 -174 414 -174 437 -158 c 1,44,-1
 454 -193 l 1,45,46
 437 -207 437 -207 414 -216 c 128,-1,47
 391 -225 391 -225 362 -225 c 0,0,1
EndSplineSet
Validated: 1
Ligature2: "'ccmp' Glyph Composition/Decomposition lookup 13 subtable" u uni0328
EndChar

StartChar: uhorn
Encoding: 432 432 433
Width: 600
GlyphClass: 2
Flags: W
AnchorPoint: "Anchor-3" 249 -20 basechar 0
AnchorPoint: "Anchor-0" 337 507 basechar 0
LayerCount: 2
Fore
SplineSet
182 -12 m 0,0,1
 116 -12 116 -12 86 21 c 128,-1,2
 56 54 56 54 56 109 c 0,3,4
 56 130 56 130 58.5 149.5 c 128,-1,5
 61 169 61 169 65 189 c 2,6,-1
 125 486 l 1,7,-1
 201 486 l 1,8,-1
 143 197 l 2,9,10
 139 178 139 178 136.5 162 c 128,-1,11
 134 146 134 146 134 129 c 0,12,13
 134 93 134 93 153.5 73.5 c 128,-1,14
 173 54 173 54 211 54 c 0,15,16
 261 54 261 54 310 85 c 128,-1,17
 359 116 359 116 409 172 c 1,18,-1
 472 486 l 1,19,-1
 501 486 l 1,20,21
 537 490 537 490 564.5 518.5 c 128,-1,22
 592 547 592 547 592 592 c 0,23,24
 592 615 592 615 585 639 c 1,25,-1
 646 661 l 1,26,27
 652 643 652 643 654.5 628 c 128,-1,28
 657 613 657 613 657 597 c 0,29,30
 657 567 657 567 646.5 542.5 c 128,-1,31
 636 518 636 518 619.5 500 c 128,-1,32
 603 482 603 482 582.5 470 c 128,-1,33
 562 458 562 458 542 452 c 1,34,-1
 452 0 l 1,35,-1
 389 0 l 1,36,-1
 402 99 l 1,37,-1
 398 99 l 1,38,39
 376 78 376 78 351.5 58 c 128,-1,40
 327 38 327 38 300 22.5 c 128,-1,41
 273 7 273 7 243.5 -2.5 c 128,-1,42
 214 -12 214 -12 182 -12 c 0,0,1
EndSplineSet
Validated: 1
EndChar

StartChar: eth
Encoding: 240 240 458
Width: 600
GlyphClass: 2
Flags: W
AnchorPoint: "Anchor-3" 244 -20 basechar 0
AnchorPoint: "Anchor-0" 430 736 basechar 0
LayerCount: 2
Fore
SplineSet
239 -12 m 0,0,1
 197 -12 197 -12 160.5 1 c 128,-1,2
 124 14 124 14 97 39 c 128,-1,3
 70 64 70 64 54.5 100.5 c 128,-1,4
 39 137 39 137 39 184 c 0,5,6
 39 242 39 242 60 290.5 c 128,-1,7
 81 339 81 339 117 373.5 c 128,-1,8
 153 408 153 408 201.5 427 c 128,-1,9
 250 446 250 446 306 446 c 0,10,11
 359 446 359 446 399 425.5 c 128,-1,12
 439 405 439 405 463 375 c 1,13,14
 458 436 458 436 439.5 484.5 c 128,-1,15
 421 533 421 533 389 571 c 1,16,-1
 238 500 l 1,17,-1
 212 550 l 1,18,-1
 348 613 l 1,19,20
 306 650 306 650 251 678 c 1,21,-1
 285 734 l 1,22,23
 359 699 359 699 415 645 c 1,24,-1
 564 714 l 1,25,-1
 589 664 l 1,26,-1
 454 601 l 1,27,28
 494 549 494 549 516.5 484 c 128,-1,29
 539 419 539 419 539 339 c 0,30,31
 539 258 539 258 518 193 c 128,-1,32
 497 128 497 128 458 82.5 c 128,-1,33
 419 37 419 37 363.5 12.5 c 128,-1,34
 308 -12 308 -12 239 -12 c 0,0,1
248 52 m 0,35,36
 296 52 296 52 334 71 c 128,-1,37
 372 90 372 90 399.5 124 c 128,-1,38
 427 158 427 158 443 205 c 128,-1,39
 459 252 459 252 463 309 c 1,40,41
 435 351 435 351 396.5 369 c 128,-1,42
 358 387 358 387 316 387 c 0,43,44
 268 387 268 387 230 370.5 c 128,-1,45
 192 354 192 354 166.5 326.5 c 128,-1,46
 141 299 141 299 127.5 263.5 c 128,-1,47
 114 228 114 228 114 191 c 0,48,49
 114 126 114 126 151 89 c 128,-1,50
 188 52 188 52 248 52 c 0,35,36
EndSplineSet
Validated: 1
EndChar

StartChar: thorn
Encoding: 254 254 459
Width: 600
GlyphClass: 2
Flags: W
AnchorPoint: "Anchor-3" 36 -219 basechar 0
AnchorPoint: "Anchor-0" 218 736 basechar 0
LayerCount: 2
Fore
SplineSet
-5 -205 m 1,0,-1
 178 712 l 1,1,-1
 255 712 l 1,2,-1
 216 522 l 1,3,-1
 190 415 l 1,4,-1
 193 415 l 1,5,6
 230 449 230 449 276 473.5 c 128,-1,7
 322 498 322 498 370 498 c 0,8,9
 448 498 448 498 492.5 448.5 c 128,-1,10
 537 399 537 399 537 305 c 0,11,12
 537 239 537 239 517.5 181 c 128,-1,13
 498 123 498 123 463 80.5 c 128,-1,14
 428 38 428 38 379 13 c 128,-1,15
 330 -12 330 -12 270 -12 c 0,16,17
 224 -12 224 -12 185 7.5 c 128,-1,18
 146 27 146 27 123 58 c 1,19,-1
 120 58 l 1,20,-1
 102 -46 l 1,21,-1
 71 -205 l 1,22,-1
 -5 -205 l 1,0,-1
265 52 m 0,23,24
 307 52 307 52 342 71.5 c 128,-1,25
 377 91 377 91 403 124 c 128,-1,26
 429 157 429 157 443.5 201 c 128,-1,27
 458 245 458 245 458 294 c 0,28,29
 458 365 458 365 427.5 399.5 c 128,-1,30
 397 434 397 434 345 434 c 0,31,32
 308 434 308 434 264 409.5 c 128,-1,33
 220 385 220 385 181 340 c 1,34,-1
 137 122 l 1,35,36
 163 84 163 84 196.5 68 c 128,-1,37
 230 52 230 52 265 52 c 0,23,24
EndSplineSet
Validated: 1
EndChar

StartChar: eng
Encoding: 331 331 460
Width: 600
GlyphClass: 2
Flags: W
AnchorPoint: "Anchor-0" 351 507 basechar 0
LayerCount: 2
Fore
SplineSet
310 -183 m 0,0,1
 287 -183 287 -183 269.5 -178 c 128,-1,2
 252 -173 252 -173 235 -164 c 1,3,-1
 261 -107 l 1,4,5
 270 -113 270 -113 280 -116.5 c 128,-1,6
 290 -120 290 -120 306 -120 c 0,7,8
 336 -120 336 -120 352.5 -98 c 128,-1,9
 369 -76 369 -76 379 -29 c 2,10,-1
 442 289 l 2,11,12
 451 326 451 326 451 357 c 0,13,14
 451 393 451 393 431.5 412.5 c 128,-1,15
 412 432 412 432 374 432 c 0,16,17
 325 432 325 432 275.5 401 c 128,-1,18
 226 370 226 370 175 314 c 1,19,-1
 112 0 l 1,20,-1
 36 0 l 1,21,-1
 133 486 l 1,22,-1
 195 486 l 1,23,-1
 183 387 l 1,24,-1
 187 387 l 1,25,26
 209 409 209 409 233.5 429 c 128,-1,27
 258 449 258 449 285 464.5 c 128,-1,28
 312 480 312 480 342 489 c 128,-1,29
 372 498 372 498 405 498 c 0,30,31
 470 498 470 498 500 465 c 128,-1,32
 530 432 530 432 530 377 c 0,33,34
 530 356 530 356 527.5 336.5 c 128,-1,35
 525 317 525 317 521 297 c 2,36,-1
 455 -30 l 2,37,38
 440 -101 440 -101 407 -142 c 128,-1,39
 374 -183 374 -183 310 -183 c 0,0,1
EndSplineSet
Validated: 1
EndChar

StartChar: uni0237
Encoding: 567 567 461
Width: 600
GlyphClass: 2
Flags: W
AnchorPoint: "Anchor-3" 145 -219 basechar 0
AnchorPoint: "Anchor-0" 393 507 basechar 0
LayerCount: 2
Fore
SplineSet
122 -217 m 0,0,1
 76 -217 76 -217 40 -203 c 128,-1,2
 4 -189 4 -189 -18 -173 c 1,3,-1
 15 -118 l 1,4,5
 37 -134 37 -134 62.5 -144 c 128,-1,6
 88 -154 88 -154 121 -154 c 0,7,8
 187 -154 187 -154 220 -117 c 128,-1,9
 253 -80 253 -80 267 -14 c 2,10,-1
 355 424 l 1,11,-1
 131 424 l 1,12,-1
 145 486 l 1,13,-1
 444 486 l 1,14,-1
 344 -15 l 2,15,16
 334 -64 334 -64 316.5 -101.5 c 128,-1,17
 299 -139 299 -139 272.5 -164.5 c 128,-1,18
 246 -190 246 -190 209 -203.5 c 128,-1,19
 172 -217 172 -217 122 -217 c 0,0,1
EndSplineSet
Validated: 1
EndChar

StartChar: ij
Encoding: 307 307 462
Width: 600
GlyphClass: 5
Flags: W
LayerCount: 2
Fore
SplineSet
66 0 m 1,0,-1
 163 486 l 1,1,-1
 240 486 l 1,2,-1
 143 0 l 1,3,-1
 66 0 l 1,0,-1
228 587 m 0,4,5
 205 587 205 587 188 601 c 128,-1,6
 171 615 171 615 171 640 c 0,7,8
 171 669 171 669 191 689 c 128,-1,9
 211 709 211 709 239 709 c 0,10,11
 264 709 264 709 280.5 694.5 c 128,-1,12
 297 680 297 680 297 654 c 0,13,14
 297 625 297 625 276.5 606 c 128,-1,15
 256 587 256 587 228 587 c 0,4,5
247 -217 m 0,16,17
 224 -217 224 -217 206.5 -212 c 128,-1,18
 189 -207 189 -207 172 -198 c 1,19,-1
 197 -141 l 1,20,21
 207 -147 207 -147 216.5 -150.5 c 128,-1,22
 226 -154 226 -154 243 -154 c 0,23,24
 271 -154 271 -154 287.5 -130 c 128,-1,25
 304 -106 304 -106 314 -62 c 2,26,-1
 425 486 l 1,27,-1
 501 486 l 1,28,-1
 391 -61 l 2,29,30
 377 -131 377 -131 343 -174 c 128,-1,31
 309 -217 309 -217 247 -217 c 0,16,17
489 587 m 0,32,33
 466 587 466 587 448.5 601 c 128,-1,34
 431 615 431 615 431 640 c 0,35,36
 431 669 431 669 451.5 689 c 128,-1,37
 472 709 472 709 499 709 c 0,38,39
 524 709 524 709 540.5 694.5 c 128,-1,40
 557 680 557 680 557 654 c 0,41,42
 557 625 557 625 536.5 606 c 128,-1,43
 516 587 516 587 489 587 c 0,32,33
EndSplineSet
Validated: 1
EndChar

StartChar: uni006C00B7006C
Encoding: 1114117 -1 463
Width: 600
GlyphClass: 3
Flags: W
LayerCount: 2
Fore
SplineSet
147 -12 m 0,0,1
 93 -12 93 -12 58 20 c 128,-1,2
 23 52 23 52 23 114 c 0,3,4
 23 142 23 142 30 171 c 2,5,-1
 131 650 l 1,6,-1
 -4 650 l 1,7,-1
 10 712 l 1,8,-1
 215 712 l 1,9,-1
 102 168 l 2,10,11
 97 143 97 143 97 124 c 0,12,13
 97 86 97 86 114.5 69 c 128,-1,14
 132 52 132 52 161 52 c 0,15,16
 198 52 198 52 236 74 c 1,17,-1
 255 16 l 1,18,19
 228 2 228 2 202 -5 c 128,-1,20
 176 -12 176 -12 147 -12 c 0,0,1
246 279 m 0,21,22
 217 279 217 279 200 298 c 128,-1,23
 183 317 183 317 183 347 c 0,24,25
 183 366 183 366 190 383 c 128,-1,26
 197 400 197 400 209 413 c 128,-1,27
 221 426 221 426 237.5 434 c 128,-1,28
 254 442 254 442 273 442 c 0,29,30
 302 442 302 442 319 422.5 c 128,-1,31
 336 403 336 403 336 373 c 0,32,33
 336 355 336 355 329 338 c 128,-1,34
 322 321 322 321 310 308 c 128,-1,35
 298 295 298 295 281.5 287 c 128,-1,36
 265 279 265 279 246 279 c 0,21,22
455 -12 m 0,37,38
 401 -12 401 -12 366 20 c 128,-1,39
 331 52 331 52 331 114 c 0,40,41
 331 142 331 142 338 171 c 2,42,-1
 439 650 l 1,43,-1
 305 650 l 1,44,-1
 318 712 l 1,45,-1
 523 712 l 1,46,-1
 410 168 l 2,47,48
 405 143 405 143 405 124 c 0,49,50
 405 86 405 86 422.5 69 c 128,-1,51
 440 52 440 52 469 52 c 0,52,53
 506 52 506 52 544 74 c 1,54,-1
 563 16 l 1,55,56
 536 2 536 2 510 -5 c 128,-1,57
 484 -12 484 -12 455 -12 c 0,37,38
EndSplineSet
Validated: 1
Ligature2: "'ccmp' Glyph Composition/Decomposition lookup 13 subtable" l periodcentered l
EndChar

StartChar: uni01330301
Encoding: 1114118 -1 464
Width: 600
GlyphClass: 3
Flags: W
LayerCount: 2
Fore
SplineSet
66 0 m 1,0,-1
 163 486 l 1,1,-1
 240 486 l 1,2,-1
 143 0 l 1,3,-1
 66 0 l 1,0,-1
247 -217 m 0,4,5
 224 -217 224 -217 206.5 -212 c 128,-1,6
 189 -207 189 -207 172 -198 c 1,7,-1
 197 -141 l 1,8,9
 207 -147 207 -147 216.5 -150.5 c 128,-1,10
 226 -154 226 -154 243 -154 c 0,11,12
 271 -154 271 -154 287.5 -130 c 128,-1,13
 304 -106 304 -106 314 -62 c 2,14,-1
 425 486 l 1,15,-1
 501 486 l 1,16,-1
 391 -61 l 2,17,18
 377 -131 377 -131 343 -174 c 128,-1,19
 309 -217 309 -217 247 -217 c 0,4,5
191 579 m 1,20,-1
 156 624 l 1,21,-1
 324 777 l 1,22,-1
 371 717 l 1,23,-1
 191 579 l 1,20,-1
451 579 m 1,24,-1
 416 624 l 1,25,-1
 584 777 l 1,26,-1
 631 717 l 1,27,-1
 451 579 l 1,24,-1
EndSplineSet
Validated: 1
Substitution2: "'case' Case-Sensitive Forms lookup 25 subtable" uni01320301
Ligature2: "'ccmp' Glyph Composition/Decomposition lookup 13 subtable" ij uni0301
EndChar

StartChar: uni0250
Encoding: 592 592 465
Width: 600
GlyphClass: 2
Flags: W
AnchorPoint: "Anchor-3" 244 -20 basechar 0
AnchorPoint: "Anchor-0" 347 507 basechar 0
LayerCount: 2
Fore
SplineSet
392 498 m 256,0,1
 450 498 450 498 489.5 469 c 128,-1,2
 529 440 529 440 529 385 c 0,3,4
 529 338 529 338 507.5 302.5 c 128,-1,5
 486 267 486 267 439.5 242 c 128,-1,6
 393 217 393 217 320.5 202.5 c 128,-1,7
 248 188 248 188 146 182 c 1,8,9
 143 169 143 169 141 157 c 128,-1,10
 139 145 139 145 139 136 c 0,11,12
 139 96 139 96 161.5 73 c 128,-1,13
 184 50 184 50 238 50 c 0,14,15
 294 50 294 50 343.5 68.5 c 128,-1,16
 393 87 393 87 434 110 c 1,17,-1
 460 54 l 1,18,19
 415 30 415 30 354 9 c 128,-1,20
 293 -12 293 -12 222 -12 c 0,21,22
 144 -12 144 -12 104 24.5 c 128,-1,23
 64 61 64 61 64 128 c 0,24,25
 64 141 64 141 65 153.5 c 128,-1,26
 66 166 66 166 69 182 c 2,27,-1
 128 486 l 1,28,-1
 191 486 l 1,29,-1
 181 405 l 1,30,-1
 184 405 l 1,31,32
 226 445 226 445 280 471.5 c 128,-1,33
 334 498 334 498 392 498 c 256,0,1
367 437 m 0,34,35
 321 437 321 437 271.5 413 c 128,-1,36
 222 389 222 389 176 344 c 1,37,-1
 154 231 l 1,38,39
 238 237 238 237 295 248 c 128,-1,40
 352 259 352 259 387 276.5 c 128,-1,41
 422 294 422 294 437.5 317 c 128,-1,42
 453 340 453 340 453 369 c 0,43,44
 453 405 453 405 429 421 c 128,-1,45
 405 437 405 437 367 437 c 0,34,35
EndSplineSet
Validated: 1
EndChar

StartChar: uni0252
Encoding: 594 594 466
Width: 600
GlyphClass: 2
Flags: W
AnchorPoint: "Anchor-3" 253 -20 basechar 0
AnchorPoint: "Anchor-0" 356 507 basechar 0
LayerCount: 2
Fore
SplineSet
270 -12 m 0,0,1
 222 -12 222 -12 182.5 8.5 c 128,-1,2
 143 29 143 29 120 61 c 1,3,-1
 116 61 l 1,4,-1
 98 0 l 1,5,-1
 36 0 l 1,6,-1
 133 486 l 1,7,-1
 196 486 l 1,8,-1
 187 411 l 1,9,-1
 191 411 l 1,10,11
 229 447 229 447 275.5 472.5 c 128,-1,12
 322 498 322 498 371 498 c 0,13,14
 446 498 446 498 491.5 448.5 c 128,-1,15
 537 399 537 399 537 305 c 0,16,17
 537 239 537 239 516.5 181 c 128,-1,18
 496 123 496 123 460 80.5 c 128,-1,19
 424 38 424 38 375.5 13 c 128,-1,20
 327 -12 327 -12 270 -12 c 0,0,1
260 52 m 0,21,22
 303 52 303 52 339 71.5 c 128,-1,23
 375 91 375 91 401.5 124 c 128,-1,24
 428 157 428 157 443 201 c 128,-1,25
 458 245 458 245 458 294 c 0,26,27
 458 365 458 365 428 399.5 c 128,-1,28
 398 434 398 434 347 434 c 0,29,30
 309 434 309 434 264 409.5 c 128,-1,31
 219 385 219 385 181 342 c 1,32,-1
 136 122 l 1,33,34
 162 84 162 84 194.5 68 c 128,-1,35
 227 52 227 52 260 52 c 0,21,22
EndSplineSet
Validated: 1
EndChar

StartChar: uni0253
Encoding: 595 595 467
Width: 600
GlyphClass: 2
Flags: W
AnchorPoint: "Anchor-3" 253 -20 basechar 0
AnchorPoint: "Anchor-0" 356 736 basechar 0
LayerCount: 2
Fore
SplineSet
270 -12 m 0,0,1
 222 -12 222 -12 183 8.5 c 128,-1,2
 144 29 144 29 121 61 c 1,3,-1
 118 61 l 1,4,-1
 100 0 l 1,5,-1
 36 0 l 1,6,-1
 143 532 l 2,7,8
 161 626 161 626 211.5 675 c 128,-1,9
 262 724 262 724 349 724 c 0,10,11
 378 724 378 724 402 717.5 c 128,-1,12
 426 711 426 711 444 700 c 1,13,-1
 416 640 l 1,14,15
 384 659 384 659 348 659 c 0,16,17
 299 659 299 659 267.5 631 c 128,-1,18
 236 603 236 603 219 531 c 2,19,-1
 190 408 l 1,20,-1
 193 408 l 1,21,22
 230 442 230 442 275.5 466.5 c 128,-1,23
 321 491 321 491 369 491 c 0,24,25
 447 491 447 491 492 442 c 128,-1,26
 537 393 537 393 537 302 c 0,27,28
 537 236 537 236 516.5 179 c 128,-1,29
 496 122 496 122 460 79.5 c 128,-1,30
 424 37 424 37 375.5 12.5 c 128,-1,31
 327 -12 327 -12 270 -12 c 0,0,1
262 52 m 0,32,33
 304 52 304 52 340 71 c 128,-1,34
 376 90 376 90 402 122.5 c 128,-1,35
 428 155 428 155 443 198.5 c 128,-1,36
 458 242 458 242 458 291 c 0,37,38
 458 360 458 360 427 393 c 128,-1,39
 396 426 396 426 344 426 c 0,40,41
 306 426 306 426 262 401.5 c 128,-1,42
 218 377 218 377 179 333 c 1,43,-1
 137 122 l 1,44,45
 163 84 163 84 195 68 c 128,-1,46
 227 52 227 52 262 52 c 0,32,33
EndSplineSet
Validated: 1
EndChar

StartChar: uni0254
Encoding: 596 596 468
Width: 600
GlyphClass: 2
Flags: W
AnchorPoint: "Anchor-3" 225 -20 basechar 0
AnchorPoint: "Anchor-2" 244 0 basechar 0
AnchorPoint: "Anchor-0" 324 507 basechar 0
LayerCount: 2
Fore
SplineSet
207 -12 m 0,0,1
 144 -12 144 -12 99 12.5 c 128,-1,2
 54 37 54 37 25 72 c 1,3,-1
 73 116 l 1,4,5
 99 86 99 86 132.5 69 c 128,-1,6
 166 52 166 52 214 52 c 0,7,8
 259 52 259 52 299 69 c 128,-1,9
 339 86 339 86 369 116 c 128,-1,10
 399 146 399 146 416.5 188.5 c 128,-1,11
 434 231 434 231 434 282 c 0,12,13
 434 354 434 354 393 394 c 128,-1,14
 352 434 352 434 285 434 c 0,15,16
 238 434 238 434 201 416 c 128,-1,17
 164 398 164 398 131 371 c 1,18,-1
 100 423 l 1,19,20
 135 453 135 453 183 475.5 c 128,-1,21
 231 498 231 498 297 498 c 0,22,23
 343 498 343 498 382.5 484.5 c 128,-1,24
 422 471 422 471 451 444.5 c 128,-1,25
 480 418 480 418 496.5 379.5 c 128,-1,26
 513 341 513 341 513 290 c 0,27,28
 513 221 513 221 489 165 c 128,-1,29
 465 109 465 109 423.5 69.5 c 128,-1,30
 382 30 382 30 326.5 9 c 128,-1,31
 271 -12 271 -12 207 -12 c 0,0,1
EndSplineSet
Validated: 1
EndChar

StartChar: uni0255
Encoding: 597 597 469
Width: 600
GlyphClass: 2
Flags: W
AnchorPoint: "Anchor-3" 286 -20 basechar 0
AnchorPoint: "Anchor-0" 370 507 basechar 0
LayerCount: 2
Fore
SplineSet
314 49 m 0,0,1
 366 49 366 49 397 69 c 128,-1,2
 428 89 428 89 428 116 c 0,3,4
 428 131 428 131 415.5 142.5 c 128,-1,5
 403 154 403 154 373 154 c 0,6,7
 337 154 337 154 297.5 132.5 c 128,-1,8
 258 111 258 111 218 72 c 1,9,10
 239 60 239 60 263.5 54.5 c 128,-1,11
 288 49 288 49 314 49 c 0,0,1
96 -100 m 1,12,-1
 37 -73 l 1,13,14
 57 -37 57 -37 79.5 -5 c 128,-1,15
 102 27 102 27 125 55 c 1,16,17
 98 82 98 82 82.5 118.5 c 128,-1,18
 67 155 67 155 67 202 c 0,19,20
 67 268 67 268 91.5 322.5 c 128,-1,21
 116 377 116 377 156.5 416 c 128,-1,22
 197 455 197 455 250 476.5 c 128,-1,23
 303 498 303 498 360 498 c 0,24,25
 424 498 424 498 470.5 472 c 128,-1,26
 517 446 517 446 543 411 c 1,27,-1
 495 370 l 1,28,29
 468 403 468 403 433.5 420 c 128,-1,30
 399 437 399 437 351 437 c 0,31,32
 313 437 313 437 275.5 419.5 c 128,-1,33
 238 402 238 402 208 371 c 128,-1,34
 178 340 178 340 159.5 299 c 128,-1,35
 141 258 141 258 141 211 c 0,36,37
 141 149 141 149 174 108 c 1,38,39
 226 159 226 159 279.5 185 c 128,-1,40
 333 211 333 211 384 211 c 0,41,42
 438 211 438 211 464.5 188 c 128,-1,43
 491 165 491 165 491 128 c 0,44,45
 491 98 491 98 478.5 72.5 c 128,-1,46
 466 47 466 47 442 28.5 c 128,-1,47
 418 10 418 10 383 -1 c 128,-1,48
 348 -12 348 -12 303 -12 c 0,49,50
 231 -12 231 -12 173 20 c 1,51,52
 153 -6 153 -6 133.5 -36 c 128,-1,53
 114 -66 114 -66 96 -100 c 1,12,-1
EndSplineSet
Validated: 1
EndChar

StartChar: uni0256
Encoding: 598 598 470
Width: 600
GlyphClass: 2
Flags: W
AnchorPoint: "Anchor-3" 227 -86 basechar 0
AnchorPoint: "Anchor-0" 559 736 basechar 0
LayerCount: 2
Fore
SplineSet
450 -183 m 0,0,1
 405 -183 405 -183 384.5 -161.5 c 128,-1,2
 364 -140 364 -140 364 -98 c 0,3,4
 364 -66 364 -66 374 -21.5 c 128,-1,5
 384 23 384 23 395 70 c 1,6,-1
 391 69 l 1,7,8
 353 33 353 33 308.5 10.5 c 128,-1,9
 264 -12 264 -12 218 -12 c 0,10,11
 143 -12 143 -12 97.5 35.5 c 128,-1,12
 52 83 52 83 52 174 c 0,13,14
 52 239 52 239 73 298 c 128,-1,15
 94 357 94 357 130 401.5 c 128,-1,16
 166 446 166 446 214.5 472 c 128,-1,17
 263 498 263 498 319 498 c 0,18,19
 371 498 371 498 408 479 c 128,-1,20
 445 460 445 460 466 428 c 1,21,-1
 469 428 l 1,22,-1
 485 523 l 1,23,-1
 523 713 l 1,24,-1
 600 713 l 1,25,-1
 448 -37 l 2,26,27
 446 -50 446 -50 444 -60 c 128,-1,28
 442 -70 442 -70 442 -79 c 0,29,30
 442 -118 442 -118 480 -118 c 0,31,32
 490 -118 490 -118 499 -115.5 c 128,-1,33
 508 -113 508 -113 516 -110 c 1,34,-1
 515 -170 l 1,35,36
 505 -175 505 -175 487.5 -179 c 128,-1,37
 470 -183 470 -183 450 -183 c 0,0,1
242 52 m 0,38,39
 282 52 282 52 325.5 76.5 c 128,-1,40
 369 101 369 101 409 147 c 1,41,-1
 453 362 l 1,42,43
 428 401 428 401 396 417.5 c 128,-1,44
 364 434 364 434 329 434 c 0,45,46
 287 434 287 434 251 413.5 c 128,-1,47
 215 393 215 393 188.5 358.5 c 128,-1,48
 162 324 162 324 146.5 279.5 c 128,-1,49
 131 235 131 235 131 186 c 0,50,51
 131 117 131 117 161 84.5 c 128,-1,52
 191 52 191 52 242 52 c 0,38,39
EndSplineSet
Validated: 1
EndChar

StartChar: uni0257
Encoding: 599 599 471
Width: 600
GlyphClass: 2
Flags: W
AnchorPoint: "Anchor-3" 249 -20 basechar 0
AnchorPoint: "Anchor-0" 388 736 basechar 0
LayerCount: 2
Fore
SplineSet
218 -12 m 0,0,1
 143 -12 143 -12 97.5 35.5 c 128,-1,2
 52 83 52 83 52 174 c 0,3,4
 52 239 52 239 73 298 c 128,-1,5
 94 357 94 357 130 401.5 c 128,-1,6
 166 446 166 446 214.5 472 c 128,-1,7
 263 498 263 498 319 498 c 0,8,9
 371 498 371 498 408 479 c 128,-1,10
 445 460 445 460 466 428 c 1,11,-1
 469 428 l 1,12,-1
 498 584 l 2,13,14
 512 652 512 652 547 688 c 128,-1,15
 582 724 582 724 645 724 c 0,16,17
 679 724 679 724 699 713 c 1,18,-1
 672 650 l 1,19,20
 657 657 657 657 641 657 c 0,21,22
 610 657 610 657 594.5 634 c 128,-1,23
 579 611 579 611 571 569 c 2,24,-1
 456 1 l 1,25,-1
 393 1 l 1,26,-1
 401 74 l 1,27,-1
 397 74 l 1,28,29
 359 36 359 36 312.5 12 c 128,-1,30
 266 -12 266 -12 218 -12 c 0,0,1
242 52 m 0,31,32
 282 52 282 52 325.5 76.5 c 128,-1,33
 369 101 369 101 409 147 c 1,34,-1
 453 362 l 1,35,36
 428 401 428 401 396 417.5 c 128,-1,37
 364 434 364 434 329 434 c 0,38,39
 287 434 287 434 251 413.5 c 128,-1,40
 215 393 215 393 188.5 358.5 c 128,-1,41
 162 324 162 324 146.5 279.5 c 128,-1,42
 131 235 131 235 131 186 c 0,43,44
 131 117 131 117 161 84.5 c 128,-1,45
 191 52 191 52 242 52 c 0,31,32
EndSplineSet
Validated: 1
EndChar

StartChar: uni0258
Encoding: 600 600 472
Width: 600
GlyphClass: 2
Flags: W
AnchorPoint: "Anchor-3" 256 -20 basechar 0
AnchorPoint: "Anchor-0" 334 507 basechar 0
LayerCount: 2
Fore
SplineSet
320 437 m 0,0,1
 288 437 288 437 258.5 425 c 128,-1,2
 229 413 229 413 205.5 392.5 c 128,-1,3
 182 372 182 372 166 344 c 128,-1,4
 150 316 150 316 145 284 c 1,5,-1
 451 284 l 1,6,-1
 451 288 l 2,7,8
 451 364 451 364 414.5 400.5 c 128,-1,9
 378 437 378 437 320 437 c 0,0,1
241 -12 m 0,10,11
 181 -12 181 -12 134 8.5 c 128,-1,12
 87 29 87 29 60 59 c 1,13,-1
 102 106 l 1,14,15
 129 80 129 80 163.5 64.5 c 128,-1,16
 198 49 198 49 246 49 c 0,17,18
 282 49 282 49 314.5 61 c 128,-1,19
 347 73 347 73 373 95.5 c 128,-1,20
 399 118 399 118 417.5 150.5 c 128,-1,21
 436 183 436 183 445 224 c 1,22,-1
 77 224 l 1,23,24
 74 240 74 240 74 259 c 0,25,26
 74 300 74 300 91.5 342.5 c 128,-1,27
 109 385 109 385 142 420 c 128,-1,28
 175 455 175 455 223 477 c 128,-1,29
 271 499 271 499 331 499 c 0,30,31
 374 499 374 499 410.5 485 c 128,-1,32
 447 471 447 471 473 445 c 128,-1,33
 499 419 499 419 513.5 380.5 c 128,-1,34
 528 342 528 342 528 293 c 0,35,36
 528 221 528 221 506.5 164.5 c 128,-1,37
 485 108 485 108 446.5 69 c 128,-1,38
 408 30 408 30 355.5 9 c 128,-1,39
 303 -12 303 -12 241 -12 c 0,10,11
EndSplineSet
Validated: 1
EndChar

StartChar: uni0299
Encoding: 665 665 474
Width: 600
GlyphClass: 2
Flags: W
AnchorPoint: "Anchor-3" 263 -20 basechar 0
AnchorPoint: "Anchor-0" 344 507 basechar 0
LayerCount: 2
Fore
SplineSet
66 0 m 1,0,-1
 162 486 l 1,1,-1
 359 486 l 2,2,3
 392 486 392 486 420 480.5 c 128,-1,4
 448 475 448 475 468.5 463.5 c 128,-1,5
 489 452 489 452 500.5 433.5 c 128,-1,6
 512 415 512 415 512 388 c 0,7,8
 512 335 512 335 483.5 303 c 128,-1,9
 455 271 455 271 411 259 c 1,10,-1
 410 256 l 1,11,12
 442 246 442 246 465.5 226 c 128,-1,13
 489 206 489 206 489 166 c 0,14,15
 489 130 489 130 476 100 c 128,-1,16
 463 70 463 70 436 47.5 c 128,-1,17
 409 25 409 25 368 12.5 c 128,-1,18
 327 0 327 0 272 0 c 2,19,-1
 66 0 l 1,0,-1
154 58 m 1,20,-1
 274 58 l 2,21,22
 347 58 347 58 380 87 c 128,-1,23
 413 116 413 116 413 160 c 0,24,25
 413 192 413 192 385 210 c 128,-1,26
 357 228 357 228 302 228 c 2,27,-1
 189 228 l 1,28,-1
 154 58 l 1,20,-1
198 281 m 1,29,-1
 305 281 l 2,30,31
 375 281 375 281 405 307 c 128,-1,32
 435 333 435 333 435 371 c 0,33,34
 435 397 435 397 411.5 412.5 c 128,-1,35
 388 428 388 428 338 428 c 2,36,-1
 228 428 l 1,37,-1
 198 281 l 1,29,-1
EndSplineSet
Validated: 1
EndChar

StartChar: uni0259
Encoding: 601 601 475
Width: 600
GlyphClass: 2
Flags: W
AnchorPoint: "Anchor-6" 246 0 basechar 0
AnchorPoint: "Anchor-3" 241 -20 basechar 0
AnchorPoint: "Anchor-2" 246 0 basechar 0
AnchorPoint: "Anchor-0" 346 507 basechar 0
LayerCount: 2
Fore
SplineSet
244 -12 m 0,0,1
 157 -12 157 -12 105 37 c 128,-1,2
 53 86 53 86 53 175 c 0,3,4
 53 207 53 207 58.5 234 c 128,-1,5
 64 261 64 261 68 272 c 1,6,-1
 453 272 l 1,7,8
 454 277 454 277 454 281.5 c 128,-1,9
 454 286 454 286 454 291 c 0,10,11
 454 363 454 363 419 400 c 128,-1,12
 384 437 384 437 318 437 c 0,13,14
 269 437 269 437 230.5 422.5 c 128,-1,15
 192 408 192 408 155 384 c 1,16,-1
 127 437 l 1,17,18
 165 463 165 463 217.5 480.5 c 128,-1,19
 270 498 270 498 333 498 c 0,20,21
 427 498 427 498 479 446.5 c 128,-1,22
 531 395 531 395 531 292 c 0,23,24
 531 224 531 224 509 168.5 c 128,-1,25
 487 113 487 113 449 72.5 c 128,-1,26
 411 32 411 32 358 10 c 128,-1,27
 305 -12 305 -12 244 -12 c 0,0,1
249 49 m 0,28,29
 319 49 319 49 371.5 92.5 c 128,-1,30
 424 136 424 136 444 212 c 1,31,-1
 128 212 l 1,32,33
 126 202 126 202 125 192.5 c 128,-1,34
 124 183 124 183 124 174 c 0,35,36
 125 111 125 111 159 80 c 128,-1,37
 193 49 193 49 249 49 c 0,28,29
EndSplineSet
Validated: 1
Substitution2: "'sups' Superscript lookup 20 subtable" uni0259.sups
EndChar

StartChar: uni025A
Encoding: 602 602 476
Width: 600
GlyphClass: 2
Flags: W
AnchorPoint: "Anchor-3" 163 -20 basechar 0
AnchorPoint: "Anchor-0" 256 507 basechar 0
LayerCount: 2
Fore
SplineSet
164 -12 m 0,0,1
 116 -12 116 -12 82 5 c 128,-1,2
 48 22 48 22 27.5 50.5 c 128,-1,3
 7 79 7 79 -0.5 117 c 128,-1,4
 -8 155 -8 155 -3 197 c 1,5,-1
 341 329 l 1,6,7
 334 383 334 383 304 408 c 128,-1,8
 274 433 274 433 226 433 c 0,9,10
 188 433 188 433 157.5 421.5 c 128,-1,11
 127 410 127 410 95 391 c 1,12,-1
 78 448 l 1,13,14
 116 471 116 471 157.5 484.5 c 128,-1,15
 199 498 199 498 248 498 c 0,16,17
 317 498 317 498 361 461.5 c 128,-1,18
 405 425 405 425 416 358 c 1,19,-1
 502 391 l 1,20,-1
 542 374 l 1,21,22
 539 345 539 345 539.5 327.5 c 128,-1,23
 540 310 540 310 544 300 c 128,-1,24
 548 290 548 290 555.5 286.5 c 128,-1,25
 563 283 563 283 574 283 c 256,26,27
 585 283 585 283 596 287.5 c 128,-1,28
 607 292 607 292 615 298 c 1,29,-1
 628 255 l 1,30,31
 614 246 614 246 597 238 c 128,-1,32
 580 230 580 230 558 230 c 0,33,34
 544 230 544 230 530.5 234.5 c 128,-1,35
 517 239 517 239 506.5 250.5 c 128,-1,36
 496 262 496 262 490 280.5 c 128,-1,37
 484 299 484 299 484 326 c 1,38,-1
 420 301 l 1,39,40
 419 287 419 287 417 271.5 c 128,-1,41
 415 256 415 256 412 239 c 0,42,43
 402 187 402 187 379 141.5 c 128,-1,44
 356 96 356 96 323.5 62 c 128,-1,45
 291 28 291 28 250.5 8 c 128,-1,46
 210 -12 210 -12 164 -12 c 0,0,1
175 53 m 0,47,48
 204 53 204 53 229.5 67 c 128,-1,49
 255 81 255 81 276 105.5 c 128,-1,50
 297 130 297 130 312 162.5 c 128,-1,51
 327 195 327 195 335 232 c 0,52,53
 339 253 339 253 341 271 c 1,54,-1
 65 166 l 1,55,56
 64 112 64 112 94 82.5 c 128,-1,57
 124 53 124 53 175 53 c 0,47,48
EndSplineSet
Validated: 33
EndChar

StartChar: uni025B
Encoding: 603 603 477
Width: 600
GlyphClass: 2
Flags: W
AnchorPoint: "Anchor-3" 244 -20 basechar 0
AnchorPoint: "Anchor-2" 252 0 basechar 0
AnchorPoint: "Anchor-0" 347 507 basechar 0
LayerCount: 2
Fore
SplineSet
254 -12 m 0,0,1
 212 -12 212 -12 175.5 -2.5 c 128,-1,2
 139 7 139 7 112 25 c 128,-1,3
 85 43 85 43 69 68 c 128,-1,4
 53 93 53 93 53 123 c 0,5,6
 53 154 53 154 65 177.5 c 128,-1,7
 77 201 77 201 96.5 217.5 c 128,-1,8
 116 234 116 234 142 244 c 128,-1,9
 168 254 168 254 197 258 c 1,10,-1
 198 262 l 1,11,12
 158 278 158 278 140 302 c 128,-1,13
 122 326 122 326 122 358 c 0,14,15
 122 391 122 391 138.5 417 c 128,-1,16
 155 443 155 443 183.5 461 c 128,-1,17
 212 479 212 479 251 488.5 c 128,-1,18
 290 498 290 498 335 498 c 0,19,20
 398 498 398 498 449.5 477.5 c 128,-1,21
 501 457 501 457 536 423 c 1,22,-1
 494 371 l 1,23,24
 459 404 459 404 421 420.5 c 128,-1,25
 383 437 383 437 330 437 c 0,26,27
 267 437 267 437 234 412.5 c 128,-1,28
 201 388 201 388 201 354 c 0,29,30
 201 319 201 319 229 301.5 c 128,-1,31
 257 284 257 284 320 284 c 2,32,-1
 390 284 l 1,33,-1
 378 224 l 1,34,-1
 295 224 l 2,35,36
 214 224 214 224 173 204 c 128,-1,37
 132 184 132 184 132 138 c 0,38,39
 132 119 132 119 143 103 c 128,-1,40
 154 87 154 87 172.5 75 c 128,-1,41
 191 63 191 63 216.5 56 c 128,-1,42
 242 49 242 49 272 49 c 0,43,44
 296 49 296 49 317.5 51.5 c 128,-1,45
 339 54 339 54 360 60 c 128,-1,46
 381 66 381 66 403 76.5 c 128,-1,47
 425 87 425 87 449 102 c 1,48,-1
 473 47 l 1,49,50
 444 28 444 28 418 16.5 c 128,-1,51
 392 5 392 5 366 -1.5 c 128,-1,52
 340 -8 340 -8 313 -10 c 128,-1,53
 286 -12 286 -12 254 -12 c 0,0,1
EndSplineSet
Validated: 1
EndChar

StartChar: uni025C
Encoding: 604 604 478
Width: 600
GlyphClass: 2
Flags: W
AnchorPoint: "Anchor-3" 255 -20 basechar 0
AnchorPoint: "Anchor-0" 336 507 basechar 0
LayerCount: 2
Fore
SplineSet
263 -12 m 0,0,1
 200 -12 200 -12 145 7 c 128,-1,2
 90 26 90 26 47 64 c 1,3,-1
 90 118 l 1,4,5
 128 85 128 85 171.5 67.5 c 128,-1,6
 215 50 215 50 267 50 c 0,7,8
 335 50 335 50 373.5 79 c 128,-1,9
 412 108 412 108 412 149 c 0,10,11
 412 184 412 184 378.5 204 c 128,-1,12
 345 224 345 224 277 224 c 2,13,-1
 201 224 l 1,14,-1
 212 284 l 1,15,-1
 285 284 l 2,16,17
 352 284 352 284 392.5 305.5 c 128,-1,18
 433 327 433 327 433 365 c 0,19,20
 433 402 433 402 399 419.5 c 128,-1,21
 365 437 365 437 314 437 c 0,22,23
 279 437 279 437 236 425 c 128,-1,24
 193 413 193 413 151 390 c 1,25,-1
 126 444 l 1,26,27
 177 473 177 473 228.5 485.5 c 128,-1,28
 280 498 280 498 330 498 c 0,29,30
 367 498 367 498 400 490.5 c 128,-1,31
 433 483 433 483 457.5 468.5 c 128,-1,32
 482 454 482 454 496.5 432 c 128,-1,33
 511 410 511 410 511 381 c 0,34,35
 511 331 511 331 478.5 302.5 c 128,-1,36
 446 274 446 274 401 261 c 1,37,-1
 400 257 l 1,38,39
 438 245 438 245 464.5 216.5 c 128,-1,40
 491 188 491 188 491 149 c 0,41,42
 491 113 491 113 474 83.5 c 128,-1,43
 457 54 457 54 427 33 c 128,-1,44
 397 12 397 12 355 0 c 128,-1,45
 313 -12 313 -12 263 -12 c 0,0,1
EndSplineSet
Validated: 1
EndChar

StartChar: uni025E
Encoding: 606 606 479
Width: 600
GlyphClass: 2
Flags: W
AnchorPoint: "Anchor-3" 256 -20 basechar 0
AnchorPoint: "Anchor-0" 340 507 basechar 0
LayerCount: 2
Fore
SplineSet
273 -12 m 0,0,1
 222 -12 222 -12 180 3.5 c 128,-1,2
 138 19 138 19 108.5 47 c 128,-1,3
 79 75 79 75 62.5 114.5 c 128,-1,4
 46 154 46 154 46 201 c 0,5,6
 46 265 46 265 69 319 c 128,-1,7
 92 373 92 373 132 413 c 128,-1,8
 172 453 172 453 226.5 475.5 c 128,-1,9
 281 498 281 498 343 498 c 0,10,11
 379 498 379 498 411 490.5 c 128,-1,12
 443 483 443 483 467.5 468.5 c 128,-1,13
 492 454 492 454 506 432 c 128,-1,14
 520 410 520 410 520 381 c 0,15,16
 520 330 520 330 488.5 301.5 c 128,-1,17
 457 273 457 273 412 260 c 1,18,-1
 411 256 l 1,19,20
 449 244 449 244 474.5 216 c 128,-1,21
 500 188 500 188 500 149 c 0,22,23
 500 113 500 113 483 83.5 c 128,-1,24
 466 54 466 54 436 33 c 128,-1,25
 406 12 406 12 364.5 0 c 128,-1,26
 323 -12 323 -12 273 -12 c 0,0,1
282 50 m 0,27,28
 348 50 348 50 384.5 80 c 128,-1,29
 421 110 421 110 421 149 c 0,30,31
 421 184 421 184 387 204 c 128,-1,32
 353 224 353 224 286 224 c 2,33,-1
 264 224 l 1,34,-1
 275 284 l 1,35,-1
 293 284 l 2,36,37
 361 284 361 284 401 305.5 c 128,-1,38
 441 327 441 327 441 364 c 0,39,40
 441 400 441 400 411.5 418.5 c 128,-1,41
 382 437 382 437 339 437 c 0,42,43
 293 437 293 437 254 418.5 c 128,-1,44
 215 400 215 400 186 368.5 c 128,-1,45
 157 337 157 337 140.5 295 c 128,-1,46
 124 253 124 253 124 206 c 0,47,48
 124 171 124 171 135.5 142 c 128,-1,49
 147 113 147 113 168 92.5 c 128,-1,50
 189 72 189 72 218 61 c 128,-1,51
 247 50 247 50 282 50 c 0,27,28
EndSplineSet
Validated: 1
EndChar

StartChar: uni025F
Encoding: 607 607 480
Width: 600
GlyphClass: 2
Flags: W
AnchorPoint: "Anchor-3" 145 -219 basechar 0
AnchorPoint: "Anchor-0" 393 507 basechar 0
LayerCount: 2
Fore
SplineSet
122 -217 m 0,0,1
 76 -217 76 -217 40 -203 c 128,-1,2
 4 -189 4 -189 -18 -173 c 1,3,-1
 15 -118 l 1,4,5
 37 -134 37 -134 62.5 -144 c 128,-1,6
 88 -154 88 -154 121 -154 c 0,7,8
 187 -154 187 -154 220 -117 c 128,-1,9
 253 -80 253 -80 267 -14 c 2,10,-1
 312 212 l 1,11,-1
 122 212 l 1,12,-1
 132 266 l 1,13,-1
 324 272 l 1,14,-1
 355 424 l 1,15,-1
 131 424 l 1,16,-1
 145 486 l 1,17,-1
 444 486 l 1,18,-1
 401 272 l 1,19,-1
 558 272 l 1,20,-1
 546 212 l 1,21,-1
 389 212 l 1,22,-1
 344 -15 l 2,23,24
 334 -64 334 -64 316.5 -101.5 c 128,-1,25
 299 -139 299 -139 272.5 -164.5 c 128,-1,26
 246 -190 246 -190 209 -203.5 c 128,-1,27
 172 -217 172 -217 122 -217 c 0,0,1
EndSplineSet
Validated: 1
EndChar

StartChar: uni0260
Encoding: 608 608 481
Width: 600
GlyphClass: 2
Flags: W
AnchorPoint: "Anchor-3" 249 -219 basechar 0
AnchorPoint: "Anchor-0" 337 537 basechar 0
LayerCount: 2
Fore
SplineSet
201 -217 m 0,0,1
 141 -217 141 -217 95 -200 c 128,-1,2
 49 -183 49 -183 16 -157 c 1,3,-1
 52 -102 l 1,4,5
 81 -128 81 -128 121 -141 c 128,-1,6
 161 -154 161 -154 202 -154 c 0,7,8
 267 -154 267 -154 315 -123 c 128,-1,9
 363 -92 363 -92 379 -21 c 2,10,-1
 401 82 l 1,11,-1
 397 82 l 1,12,13
 362 47 362 47 316.5 25.5 c 128,-1,14
 271 4 271 4 224 4 c 0,15,16
 146 4 146 4 100.5 51 c 128,-1,17
 55 98 55 98 55 186 c 0,18,19
 55 250 55 250 76 307.5 c 128,-1,20
 97 365 97 365 133 408 c 128,-1,21
 169 451 169 451 217 476 c 128,-1,22
 265 501 265 501 319 501 c 0,23,24
 371 501 371 501 408 481.5 c 128,-1,25
 445 462 445 462 466 430 c 1,26,-1
 469 430 l 1,27,-1
 479 491 l 2,28,29
 493 559 493 559 527.5 595.5 c 128,-1,30
 562 632 562 632 625 632 c 0,31,32
 660 632 660 632 680 620 c 1,33,-1
 653 558 l 1,34,35
 645 561 645 561 637 563 c 128,-1,36
 629 565 629 565 621 565 c 0,37,38
 591 565 591 565 575.5 542 c 128,-1,39
 560 519 560 519 551 477 c 2,40,-1
 451 -25 l 2,41,42
 441 -76 441 -76 418 -112.5 c 128,-1,43
 395 -149 395 -149 362 -172.5 c 128,-1,44
 329 -196 329 -196 288 -206.5 c 128,-1,45
 247 -217 247 -217 201 -217 c 0,0,1
247 68 m 0,46,47
 287 68 287 68 329 90 c 128,-1,48
 371 112 371 112 409 154 c 1,49,-1
 453 361 l 1,50,51
 427 399 427 399 395.5 416.5 c 128,-1,52
 364 434 364 434 328 434 c 0,53,54
 289 434 289 434 253.5 415 c 128,-1,55
 218 396 218 396 191.5 363.5 c 128,-1,56
 165 331 165 331 149.5 288 c 128,-1,57
 134 245 134 245 134 198 c 0,58,59
 134 132 134 132 163.5 100 c 128,-1,60
 193 68 193 68 247 68 c 0,46,47
EndSplineSet
Validated: 1
EndChar

StartChar: uni0262
Encoding: 610 610 483
Width: 600
GlyphClass: 2
Flags: W
AnchorPoint: "Anchor-3" 273 -20 basechar 0
AnchorPoint: "Anchor-0" 350 507 basechar 0
LayerCount: 2
Fore
SplineSet
279 -12 m 0,0,1
 237 -12 237 -12 198 2 c 128,-1,2
 159 16 159 16 128.5 42.5 c 128,-1,3
 98 69 98 69 80 107.5 c 128,-1,4
 62 146 62 146 62 196 c 0,5,6
 62 259 62 259 83.5 314.5 c 128,-1,7
 105 370 105 370 144.5 410.5 c 128,-1,8
 184 451 184 451 239.5 474.5 c 128,-1,9
 295 498 295 498 362 498 c 0,10,11
 425 498 425 498 468.5 474.5 c 128,-1,12
 512 451 512 451 539 419 c 1,13,-1
 492 371 l 1,14,15
 470 399 470 399 435.5 418 c 128,-1,16
 401 437 401 437 356 437 c 0,17,18
 310 437 310 437 270.5 419 c 128,-1,19
 231 401 231 401 202 369.5 c 128,-1,20
 173 338 173 338 156.5 295.5 c 128,-1,21
 140 253 140 253 140 204 c 0,22,23
 140 165 140 165 152 136 c 128,-1,24
 164 107 164 107 184.5 87.5 c 128,-1,25
 205 68 205 68 232 58.5 c 128,-1,26
 259 49 259 49 290 49 c 0,27,28
 325 49 325 49 356.5 58 c 128,-1,29
 388 67 388 67 408 81 c 1,30,-1
 433 207 l 1,31,-1
 307 207 l 1,32,-1
 316 260 l 1,33,-1
 513 260 l 1,34,-1
 471 46 l 1,35,36
 439 20 439 20 389.5 4 c 128,-1,37
 340 -12 340 -12 279 -12 c 0,0,1
EndSplineSet
Validated: 1
EndChar

StartChar: uni0263
Encoding: 611 611 484
Width: 600
GlyphClass: 2
Flags: W
AnchorPoint: "Anchor-3" 197 -219 basechar 0
AnchorPoint: "Anchor-0" 330 507 basechar 0
LayerCount: 2
Fore
SplineSet
200 -224 m 0,0,1
 156 -224 156 -224 133 -200.5 c 128,-1,2
 110 -177 110 -177 110 -138 c 0,3,4
 110 -96 110 -96 133.5 -51.5 c 128,-1,5
 157 -7 157 -7 200 53 c 1,6,-1
 87 486 l 1,7,-1
 164 486 l 1,8,-1
 225 230 l 2,9,10
 233 198 233 198 240 164.5 c 128,-1,11
 247 131 247 131 257 95 c 1,12,-1
 261 95 l 1,13,14
 284 132 284 132 303.5 165 c 128,-1,15
 323 198 323 198 343 230 c 2,16,-1
 504 486 l 1,17,-1
 582 486 l 1,18,-1
 303 51 l 1,19,20
 316 13 316 13 323.5 -18.5 c 128,-1,21
 331 -50 331 -50 331 -78 c 0,22,23
 331 -142 331 -142 296 -183 c 128,-1,24
 261 -224 261 -224 200 -224 c 0,0,1
209 -168 m 0,25,26
 234 -168 234 -168 248.5 -147 c 128,-1,27
 263 -126 263 -126 263 -91 c 0,28,29
 263 -62 263 -62 258.5 -36.5 c 128,-1,30
 254 -11 254 -11 246 14 c 1,31,-1
 242 14 l 1,32,33
 213 -27 213 -27 194.5 -66.5 c 128,-1,34
 176 -106 176 -106 176 -129 c 0,35,36
 176 -149 176 -149 185 -158.5 c 128,-1,37
 194 -168 194 -168 209 -168 c 0,25,26
EndSplineSet
Validated: 1
EndChar

StartChar: uni0264
Encoding: 612 612 485
Width: 600
GlyphClass: 2
Flags: W
AnchorPoint: "Anchor-3" 235 -20 basechar 0
AnchorPoint: "Anchor-0" 338 507 basechar 0
LayerCount: 2
Fore
SplineSet
238 -12 m 0,0,1
 172 -12 172 -12 134.5 21.5 c 128,-1,2
 97 55 97 55 97 114 c 0,3,4
 97 149 97 149 109.5 182 c 128,-1,5
 122 215 122 215 143.5 246 c 128,-1,6
 165 277 165 277 194.5 306.5 c 128,-1,7
 224 336 224 336 259 365 c 1,8,9
 237 398 237 398 213 416.5 c 128,-1,10
 189 435 189 435 161 435 c 0,11,12
 147 435 147 435 135 431 c 128,-1,13
 123 427 123 427 112 420 c 1,14,-1
 98 476 l 1,15,16
 115 487 115 487 138 492.5 c 128,-1,17
 161 498 161 498 184 498 c 0,18,19
 223 498 223 498 258 474.5 c 128,-1,20
 293 451 293 451 320 411 c 1,21,22
 362 451 362 451 406.5 474.5 c 128,-1,23
 451 498 451 498 491 498 c 0,24,25
 513 498 513 498 534.5 492 c 128,-1,26
 556 486 556 486 569 475 c 1,27,-1
 532 419 l 1,28,29
 514 435 514 435 488 435 c 0,30,31
 459 435 459 435 429.5 415.5 c 128,-1,32
 400 396 400 396 366 363 c 1,33,34
 398 323 398 323 420 279 c 128,-1,35
 442 235 442 235 442 188 c 0,36,37
 442 147 442 147 428 110.5 c 128,-1,38
 414 74 414 74 387.5 47 c 128,-1,39
 361 20 361 20 323 4 c 128,-1,40
 285 -12 285 -12 238 -12 c 0,0,1
248 52 m 0,41,42
 276 52 276 52 298.5 62.5 c 128,-1,43
 321 73 321 73 336.5 91 c 128,-1,44
 352 109 352 109 360 132 c 128,-1,45
 368 155 368 155 368 180 c 0,46,47
 368 218 368 218 349.5 255 c 128,-1,48
 331 292 331 292 305 324 c 1,49,50
 278 303 278 303 253.5 279 c 128,-1,51
 229 255 229 255 211 230.5 c 128,-1,52
 193 206 193 206 182.5 180 c 128,-1,53
 172 154 172 154 172 128 c 0,54,55
 172 96 172 96 191 74 c 128,-1,56
 210 52 210 52 248 52 c 0,41,42
EndSplineSet
Validated: 1
EndChar

StartChar: uni0265
Encoding: 613 613 486
Width: 600
GlyphClass: 2
Flags: W
AnchorPoint: "Anchor-3" 238 -20 basechar 0
AnchorPoint: "Anchor-0" 337 507 basechar 0
LayerCount: 2
Fore
SplineSet
335 -205 m 1,0,-1
 384 36 l 1,1,-1
 400 97 l 1,2,-1
 396 97 l 1,3,4
 373 75 373 75 349 55.5 c 128,-1,5
 325 36 325 36 298.5 21 c 128,-1,6
 272 6 272 6 242.5 -3 c 128,-1,7
 213 -12 213 -12 181 -12 c 0,8,9
 116 -12 116 -12 86 21 c 128,-1,10
 56 54 56 54 56 109 c 0,11,12
 56 130 56 130 58.5 149.5 c 128,-1,13
 61 169 61 169 65 189 c 2,14,-1
 125 486 l 1,15,-1
 201 486 l 1,16,-1
 143 197 l 2,17,18
 139 178 139 178 136.5 162 c 128,-1,19
 134 146 134 146 134 129 c 0,20,21
 134 93 134 93 153.5 73.5 c 128,-1,22
 173 54 173 54 211 54 c 0,23,24
 261 54 261 54 310.5 85 c 128,-1,25
 360 116 360 116 410 172 c 1,26,-1
 473 486 l 1,27,-1
 550 486 l 1,28,-1
 411 -205 l 1,29,-1
 335 -205 l 1,0,-1
EndSplineSet
Validated: 1
EndChar

StartChar: uni0266
Encoding: 614 614 487
Width: 600
GlyphClass: 2
Flags: W
AnchorPoint: "Anchor-3" 261 -20 basechar 0
AnchorPoint: "Anchor-0" 318 736 basechar 0
LayerCount: 2
Fore
SplineSet
36 0 m 1,0,-1
 143 532 l 2,1,2
 162 626 162 626 212 675 c 128,-1,3
 262 724 262 724 349 724 c 0,4,5
 378 724 378 724 402 717.5 c 128,-1,6
 426 711 426 711 444 700 c 1,7,-1
 416 640 l 1,8,9
 384 659 384 659 348 659 c 0,10,11
 299 659 299 659 267 630 c 128,-1,12
 235 601 235 601 219 531 c 2,13,-1
 184 381 l 1,14,-1
 188 381 l 1,15,16
 210 403 210 403 234.5 423 c 128,-1,17
 259 443 259 443 286 458 c 128,-1,18
 313 473 313 473 342 482 c 128,-1,19
 371 491 371 491 403 491 c 0,20,21
 468 491 468 491 498 458 c 128,-1,22
 528 425 528 425 528 370 c 0,23,24
 528 348 528 348 526 329 c 128,-1,25
 524 310 524 310 519 290 c 2,26,-1
 461 0 l 1,27,-1
 384 0 l 1,28,-1
 441 281 l 2,29,30
 445 301 445 301 447.5 317 c 128,-1,31
 450 333 450 333 450 350 c 0,32,33
 450 424 450 424 373 424 c 0,34,35
 324 424 324 424 274 393.5 c 128,-1,36
 224 363 224 363 174 307 c 1,37,-1
 112 0 l 1,38,-1
 36 0 l 1,0,-1
EndSplineSet
Validated: 1
EndChar

StartChar: uni0267
Encoding: 615 615 488
Width: 600
GlyphClass: 2
Flags: W
AnchorPoint: "Anchor-0" 318 736 basechar 0
LayerCount: 2
Fore
SplineSet
310 -183 m 0,0,1
 287 -183 287 -183 269.5 -178 c 128,-1,2
 252 -173 252 -173 235 -164 c 1,3,-1
 261 -107 l 1,4,5
 270 -113 270 -113 280 -116.5 c 128,-1,6
 290 -120 290 -120 306 -120 c 0,7,8
 336 -120 336 -120 352.5 -98 c 128,-1,9
 369 -76 369 -76 379 -29 c 2,10,-1
 441 281 l 2,11,12
 445 301 445 301 447.5 317 c 128,-1,13
 450 333 450 333 450 350 c 0,14,15
 450 424 450 424 373 424 c 0,16,17
 324 424 324 424 274 393.5 c 128,-1,18
 224 363 224 363 174 307 c 1,19,-1
 112 0 l 1,20,-1
 36 0 l 1,21,-1
 143 532 l 2,22,23
 162 626 162 626 212 675 c 128,-1,24
 262 724 262 724 349 724 c 0,25,26
 378 724 378 724 402 717.5 c 128,-1,27
 426 711 426 711 444 700 c 1,28,-1
 416 640 l 1,29,30
 384 659 384 659 348 659 c 0,31,32
 299 659 299 659 267 630 c 128,-1,33
 235 601 235 601 219 531 c 2,34,-1
 184 381 l 1,35,-1
 188 381 l 1,36,37
 210 403 210 403 234.5 423 c 128,-1,38
 259 443 259 443 286 458 c 128,-1,39
 313 473 313 473 342 482 c 128,-1,40
 371 491 371 491 403 491 c 0,41,42
 468 491 468 491 498 458 c 128,-1,43
 528 425 528 425 528 370 c 0,44,45
 528 348 528 348 526 329 c 128,-1,46
 524 310 524 310 519 290 c 2,47,-1
 455 -30 l 2,48,49
 441 -101 441 -101 407.5 -142 c 128,-1,50
 374 -183 374 -183 310 -183 c 0,0,1
EndSplineSet
Validated: 1
EndChar

StartChar: uni029C
Encoding: 668 668 489
Width: 600
GlyphClass: 2
Flags: W
AnchorPoint: "Anchor-3" 234 -20 basechar 0
AnchorPoint: "Anchor-0" 336 507 basechar 0
LayerCount: 2
Fore
SplineSet
35 0 m 1,0,-1
 132 486 l 1,1,-1
 209 486 l 1,2,-1
 170 286 l 1,3,-1
 425 286 l 1,4,-1
 464 486 l 1,5,-1
 541 486 l 1,6,-1
 444 0 l 1,7,-1
 367 0 l 1,8,-1
 411 218 l 1,9,-1
 155 218 l 1,10,-1
 112 0 l 1,11,-1
 35 0 l 1,0,-1
EndSplineSet
Validated: 1
EndChar

StartChar: uni026A
Encoding: 618 618 491
Width: 600
GlyphClass: 2
Flags: W
AnchorPoint: "Anchor-3" 234 -20 basechar 0
AnchorPoint: "Anchor-0" 339 507 basechar 0
LayerCount: 2
Fore
SplineSet
40 0 m 1,0,-1
 53 66 l 1,1,-1
 211 66 l 1,2,-1
 282 420 l 1,3,-1
 123 420 l 1,4,-1
 136 486 l 1,5,-1
 536 486 l 1,6,-1
 523 420 l 1,7,-1
 362 420 l 1,8,-1
 291 66 l 1,9,-1
 451 66 l 1,10,-1
 438 0 l 1,11,-1
 40 0 l 1,0,-1
EndSplineSet
Validated: 1
EndChar

StartChar: uni029E
Encoding: 670 670 493
Width: 600
GlyphClass: 2
Flags: W
AnchorPoint: "Anchor-3" 350 -219 basechar 0
AnchorPoint: "Anchor-0" 314 507 basechar 0
LayerCount: 2
Fore
SplineSet
316 -205 m 1,0,-1
 409 259 l 1,1,-1
 405 259 l 1,2,-1
 88 0 l 1,3,-1
 -5 0 l 1,4,-1
 223 194 l 1,5,-1
 71 486 l 1,6,-1
 151 486 l 1,7,-1
 279 239 l 1,8,-1
 428 358 l 1,9,-1
 454 486 l 1,10,-1
 531 486 l 1,11,-1
 392 -205 l 1,12,-1
 316 -205 l 1,0,-1
EndSplineSet
Validated: 1
EndChar

StartChar: uni026C
Encoding: 620 620 495
Width: 600
GlyphClass: 2
Flags: W
AnchorPoint: "Anchor-3" 323 -20 basechar 0
AnchorPoint: "Anchor-0" 350 736 basechar 0
LayerCount: 2
Fore
SplineSet
217 306 m 2,0,1
 148 306 148 306 115 333 c 128,-1,2
 82 360 82 360 82 405 c 0,3,4
 82 443 82 443 106.5 467.5 c 128,-1,5
 131 492 131 492 170 492 c 0,6,7
 202 492 202 492 223.5 477 c 128,-1,8
 245 462 245 462 258 436 c 1,9,-1
 303 650 l 1,10,-1
 141 650 l 1,11,-1
 154 712 l 1,12,-1
 391 712 l 1,13,-1
 318 366 l 1,14,-1
 460 366 l 1,15,-1
 446 306 l 1,16,-1
 306 306 l 1,17,-1
 277 168 l 2,18,19
 272 143 272 143 272 124 c 0,20,21
 272 86 272 86 292 69 c 128,-1,22
 312 52 312 52 346 52 c 0,23,24
 370 52 370 52 392.5 58.5 c 128,-1,25
 415 65 415 65 441 79 c 1,26,-1
 460 20 l 1,27,28
 428 4 428 4 394.5 -4 c 128,-1,29
 361 -12 361 -12 325 -12 c 0,30,31
 268 -12 268 -12 231.5 20.5 c 128,-1,32
 195 53 195 53 195 117 c 0,33,34
 195 142 195 142 202 171 c 2,35,-1
 230 306 l 1,36,-1
 217 306 l 2,0,1
243 366 m 1,37,38
 248 393 248 393 228.5 415.5 c 128,-1,39
 209 438 209 438 176 438 c 0,40,41
 161 438 161 438 151.5 429 c 128,-1,42
 142 420 142 420 142 405 c 0,43,44
 142 388 142 388 158.5 377 c 128,-1,45
 175 366 175 366 208 366 c 2,46,-1
 243 366 l 1,37,38
EndSplineSet
Validated: 33
EndChar

StartChar: uni026D
Encoding: 621 621 496
Width: 600
GlyphClass: 2
Flags: W
AnchorPoint: "Anchor-3" 276 -187 basechar 0
AnchorPoint: "Anchor-0" 350 736 basechar 0
LayerCount: 2
Fore
SplineSet
289 -183 m 0,0,1
 232 -183 232 -183 196 -150.5 c 128,-1,2
 160 -118 160 -118 160 -54 c 0,3,4
 160 -30 160 -30 166 0 c 2,5,-1
 303 650 l 1,6,-1
 141 650 l 1,7,-1
 154 712 l 1,8,-1
 391 712 l 1,9,-1
 242 -3 l 2,10,11
 237 -28 237 -28 237 -47 c 0,12,13
 237 -85 237 -85 257 -102 c 128,-1,14
 277 -119 277 -119 310 -119 c 0,15,16
 334 -119 334 -119 356.5 -112.5 c 128,-1,17
 379 -106 379 -106 406 -92 c 1,18,-1
 425 -151 l 1,19,20
 392 -167 392 -167 358.5 -175 c 128,-1,21
 325 -183 325 -183 289 -183 c 0,0,1
EndSplineSet
Validated: 1
EndChar

StartChar: uni026E
Encoding: 622 622 497
Width: 600
GlyphClass: 2
Flags: W
AnchorPoint: "Anchor-3" 261 -219 basechar 0
AnchorPoint: "Anchor-0" 203 736 basechar 0
LayerCount: 2
Fore
SplineSet
268 -217 m 0,0,1
 233 -217 233 -217 205 -210.5 c 128,-1,2
 177 -204 177 -204 154.5 -192.5 c 128,-1,3
 132 -181 132 -181 115 -167 c 128,-1,4
 98 -153 98 -153 85 -138 c 1,5,-1
 128 -93 l 1,6,7
 150 -116 150 -116 184 -135 c 128,-1,8
 218 -154 218 -154 272 -154 c 0,9,10
 302 -154 302 -154 331 -140 c 128,-1,11
 360 -126 360 -126 383.5 -101 c 128,-1,12
 407 -76 407 -76 421 -42 c 128,-1,13
 435 -8 435 -8 435 33 c 0,14,15
 435 86 435 86 405.5 111.5 c 128,-1,16
 376 137 376 137 322 137 c 0,17,18
 301 137 301 137 286 133 c 128,-1,19
 271 129 271 129 252 121 c 1,20,-1
 230 164 l 1,21,-1
 477 424 l 1,22,-1
 183 424 l 1,23,-1
 98 0 l 1,24,-1
 21 0 l 1,25,-1
 164 712 l 1,26,-1
 240 712 l 1,27,-1
 195 486 l 1,28,-1
 583 486 l 1,29,-1
 575 441 l 1,30,-1
 336 187 l 1,31,32
 376 193 376 193 409 184.5 c 128,-1,33
 442 176 442 176 464.5 157 c 128,-1,34
 487 138 487 138 499.5 110 c 128,-1,35
 512 82 512 82 512 48 c 0,36,37
 512 -8 512 -8 492 -56 c 128,-1,38
 472 -104 472 -104 438 -140 c 128,-1,39
 404 -176 404 -176 360 -196.5 c 128,-1,40
 316 -217 316 -217 268 -217 c 0,0,1
EndSplineSet
Validated: 33
EndChar

StartChar: uni029F
Encoding: 671 671 498
Width: 600
GlyphClass: 2
Flags: W
AnchorPoint: "Anchor-3" 303 -20 basechar 0
AnchorPoint: "Anchor-0" 240 507 basechar 0
LayerCount: 2
Fore
SplineSet
105 0 m 1,0,-1
 202 486 l 1,1,-1
 278 486 l 1,2,-1
 194 62 l 1,3,-1
 494 62 l 1,4,-1
 481 0 l 1,5,-1
 105 0 l 1,0,-1
EndSplineSet
Validated: 1
EndChar

StartChar: uni026F
Encoding: 623 623 499
Width: 600
GlyphClass: 2
Flags: W
AnchorPoint: "Anchor-3" 246 -20 basechar 0
AnchorPoint: "Anchor-0" 334 506 basechar 0
LayerCount: 2
Fore
SplineSet
580 486 m 1,0,-1
 483 0 l 1,1,-1
 424 0 l 1,2,-1
 431 66 l 1,3,-1
 428 66 l 1,4,5
 399 29 399 29 367 8.5 c 128,-1,6
 335 -12 335 -12 297 -12 c 0,7,8
 263 -12 263 -12 244.5 6.5 c 128,-1,9
 226 25 226 25 224 67 c 1,10,11
 189 24 189 24 155 6 c 128,-1,12
 121 -12 121 -12 88 -12 c 0,13,14
 53 -12 53 -12 32.5 8.5 c 128,-1,15
 12 29 12 29 12 73 c 0,16,17
 12 86 12 86 13 98 c 128,-1,18
 14 110 14 110 18 128 c 2,19,-1
 90 486 l 1,20,-1
 166 486 l 1,21,-1
 96 138 l 2,22,23
 94 126 94 126 93 117 c 128,-1,24
 92 108 92 108 92 100 c 0,25,26
 92 75 92 75 100.5 64.5 c 128,-1,27
 109 54 109 54 126 54 c 0,28,29
 152 54 152 54 176 74 c 128,-1,30
 200 94 200 94 227 134 c 1,31,-1
 298 486 l 1,32,-1
 372 486 l 1,33,-1
 300 138 l 2,34,35
 298 126 298 126 297 117 c 128,-1,36
 296 108 296 108 296 100 c 0,37,38
 296 75 296 75 305.5 64.5 c 128,-1,39
 315 54 315 54 331 54 c 0,40,41
 359 54 359 54 382.5 74 c 128,-1,42
 406 94 406 94 435 134 c 1,43,-1
 504 486 l 1,44,-1
 580 486 l 1,0,-1
EndSplineSet
Validated: 1
EndChar

StartChar: uni0270
Encoding: 624 624 500
Width: 600
GlyphClass: 2
Flags: W
AnchorPoint: "Anchor-3" 396 -219 basechar 0
AnchorPoint: "Anchor-0" 334 506 basechar 0
LayerCount: 2
Fore
SplineSet
368 -205 m 1,0,-1
 401 -44 l 2,1,2
 406 -20 406 -20 412.5 5.5 c 128,-1,3
 419 31 419 31 429 66 c 1,4,-1
 426 66 l 1,5,6
 396 28 396 28 364 8 c 128,-1,7
 332 -12 332 -12 294 -12 c 0,8,9
 262 -12 262 -12 243 6.5 c 128,-1,10
 224 25 224 25 222 67 c 1,11,12
 188 24 188 24 154 6 c 128,-1,13
 120 -12 120 -12 86 -12 c 0,14,15
 51 -12 51 -12 31 8.5 c 128,-1,16
 11 29 11 29 10 73 c 0,17,18
 11 86 11 86 12 98 c 128,-1,19
 13 110 13 110 16 128 c 2,20,-1
 88 486 l 1,21,-1
 164 486 l 1,22,-1
 94 138 l 2,23,24
 92 126 92 126 91.5 117 c 128,-1,25
 91 108 91 108 90 100 c 0,26,27
 91 75 91 75 99.5 64.5 c 128,-1,28
 108 54 108 54 124 54 c 0,29,30
 151 54 151 54 175 74 c 128,-1,31
 199 94 199 94 225 134 c 1,32,-1
 296 486 l 1,33,-1
 370 486 l 1,34,-1
 298 138 l 2,35,36
 296 126 296 126 295.5 117 c 128,-1,37
 295 108 295 108 294 100 c 0,38,39
 295 75 295 75 304.5 64.5 c 128,-1,40
 314 54 314 54 329 54 c 0,41,42
 358 54 358 54 381.5 74 c 128,-1,43
 405 94 405 94 433 134 c 1,44,-1
 502 486 l 1,45,-1
 578 486 l 1,46,-1
 439 -205 l 1,47,-1
 368 -205 l 1,0,-1
EndSplineSet
Validated: 1
EndChar

StartChar: uni0271
Encoding: 625 625 501
Width: 600
GlyphClass: 2
Flags: W
AnchorPoint: "Anchor-0" 350 506 basechar 0
LayerCount: 2
Fore
SplineSet
355 -183 m 0,0,1
 332 -183 332 -183 315.5 -178 c 128,-1,2
 299 -173 299 -173 284 -165 c 1,3,-1
 309 -108 l 1,4,5
 317 -114 317 -114 326 -117 c 128,-1,6
 335 -120 335 -120 350 -120 c 0,7,8
 373 -120 373 -120 386 -96.5 c 128,-1,9
 399 -73 399 -73 409 -25 c 2,10,-1
 484 348 l 2,11,12
 486 360 486 360 487 369 c 128,-1,13
 488 378 488 378 488 386 c 0,14,15
 488 411 488 411 479.5 421.5 c 128,-1,16
 471 432 471 432 454 432 c 0,17,18
 428 432 428 432 404 412 c 128,-1,19
 380 392 380 392 353 352 c 1,20,-1
 282 0 l 1,21,-1
 208 0 l 1,22,-1
 280 348 l 2,23,24
 282 360 282 360 283 369 c 128,-1,25
 284 378 284 378 284 386 c 0,26,27
 284 411 284 411 274.5 421.5 c 128,-1,28
 265 432 265 432 249 432 c 0,29,30
 221 432 221 432 197.5 412 c 128,-1,31
 174 392 174 392 145 352 c 1,32,-1
 76 0 l 1,33,-1
 0 0 l 1,34,-1
 97 486 l 1,35,-1
 156 486 l 1,36,-1
 149 420 l 1,37,-1
 152 420 l 1,38,39
 181 457 181 457 213 477.5 c 128,-1,40
 245 498 245 498 283 498 c 0,41,42
 317 498 317 498 335.5 479.5 c 128,-1,43
 354 461 354 461 356 419 c 1,44,45
 391 462 391 462 425 480 c 128,-1,46
 459 498 459 498 492 498 c 0,47,48
 527 498 527 498 547.5 477.5 c 128,-1,49
 568 457 568 457 568 413 c 0,50,51
 568 400 568 400 567 388 c 128,-1,52
 566 376 566 376 562 358 c 2,53,-1
 485 -26 l 2,54,55
 470 -101 470 -101 441.5 -142 c 128,-1,56
 413 -183 413 -183 355 -183 c 0,0,1
EndSplineSet
Validated: 1
EndChar

StartChar: uni0272
Encoding: 626 626 502
Width: 600
GlyphClass: 2
Flags: W
AnchorPoint: "Anchor-0" 358 507 basechar 0
LayerCount: 2
Fore
SplineSet
-37 -183 m 0,0,1
 -72 -183 -72 -183 -95 -170 c 1,2,-1
 -67 -107 l 1,3,4
 -51 -116 -51 -116 -34 -116 c 0,5,6
 -6 -116 -6 -116 7.5 -94 c 128,-1,7
 21 -72 21 -72 29 -35 c 2,8,-1
 133 486 l 1,9,-1
 195 486 l 1,10,-1
 183 387 l 1,11,-1
 187 387 l 1,12,13
 209 409 209 409 233.5 429 c 128,-1,14
 258 449 258 449 285 464.5 c 128,-1,15
 312 480 312 480 342 489 c 128,-1,16
 372 498 372 498 405 498 c 0,17,18
 470 498 470 498 500 465 c 128,-1,19
 530 432 530 432 530 377 c 0,20,21
 530 356 530 356 527.5 336.5 c 128,-1,22
 525 317 525 317 521 297 c 2,23,-1
 461 0 l 1,24,-1
 384 0 l 1,25,-1
 442 289 l 2,26,27
 451 326 451 326 451 357 c 0,28,29
 451 393 451 393 431.5 412.5 c 128,-1,30
 412 432 412 432 374 432 c 0,31,32
 325 432 325 432 275.5 401 c 128,-1,33
 226 370 226 370 175 314 c 1,34,-1
 106 -33 l 2,35,36
 91 -107 91 -107 59 -145 c 128,-1,37
 27 -183 27 -183 -37 -183 c 0,0,1
EndSplineSet
Validated: 1
EndChar

StartChar: uni0273
Encoding: 627 627 503
Width: 600
GlyphClass: 2
Flags: W
AnchorPoint: "Anchor-0" 358 507 basechar 0
LayerCount: 2
Fore
SplineSet
452 -183 m 0,0,1
 413 -183 413 -183 392 -162 c 128,-1,2
 371 -141 371 -141 371 -99 c 0,3,4
 371 -70 371 -70 376 -42 c 2,5,-1
 442 289 l 2,6,7
 451 326 451 326 451 357 c 0,8,9
 451 393 451 393 431.5 412.5 c 128,-1,10
 412 432 412 432 374 432 c 0,11,12
 325 432 325 432 275.5 401 c 128,-1,13
 226 370 226 370 175 314 c 1,14,-1
 112 0 l 1,15,-1
 36 0 l 1,16,-1
 133 486 l 1,17,-1
 195 486 l 1,18,-1
 183 387 l 1,19,-1
 187 387 l 1,20,21
 209 409 209 409 233.5 429 c 128,-1,22
 258 449 258 449 285 464.5 c 128,-1,23
 312 480 312 480 342 489 c 128,-1,24
 372 498 372 498 405 498 c 0,25,26
 470 498 470 498 500 465 c 128,-1,27
 530 432 530 432 530 377 c 0,28,29
 530 356 530 356 527.5 336.5 c 128,-1,30
 525 317 525 317 521 297 c 2,31,-1
 452 -45 l 2,32,33
 449 -62 449 -62 449 -81 c 0,34,35
 449 -119 449 -119 485 -119 c 0,36,37
 502 -119 502 -119 519 -113 c 1,38,-1
 520 -171 l 1,39,40
 509 -176 509 -176 492.5 -179.5 c 128,-1,41
 476 -183 476 -183 452 -183 c 0,0,1
EndSplineSet
Validated: 1
EndChar

StartChar: uni0274
Encoding: 628 628 504
Width: 600
GlyphClass: 2
Flags: W
AnchorPoint: "Anchor-3" 244 -20 basechar 0
AnchorPoint: "Anchor-0" 330 507 basechar 0
LayerCount: 2
Fore
SplineSet
51 0 m 1,0,-1
 146 486 l 1,1,-1
 222 486 l 1,2,-1
 338 211 l 2,3,4
 347 189 347 189 358 159.5 c 128,-1,5
 369 130 369 130 378 107 c 1,6,-1
 382 107 l 1,7,8
 388 155 388 155 394.5 200 c 128,-1,9
 401 245 401 245 409 284 c 2,10,-1
 448 486 l 1,11,-1
 523 486 l 1,12,-1
 428 0 l 1,13,-1
 353 0 l 1,14,-1
 236 275 l 2,15,16
 226 297 226 297 215.5 326.5 c 128,-1,17
 205 356 205 356 196 379 c 1,18,-1
 192 379 l 1,19,20
 187 331 187 331 180 286 c 128,-1,21
 173 241 173 241 165 202 c 2,22,-1
 126 0 l 1,23,-1
 51 0 l 1,0,-1
EndSplineSet
Validated: 1
EndChar

StartChar: uni0275
Encoding: 629 629 505
Width: 600
GlyphClass: 2
Flags: W
AnchorPoint: "Anchor-3" 234 -20 basechar 0
AnchorPoint: "Anchor-0" 339 507 basechar 0
LayerCount: 2
Fore
SplineSet
250 -12 m 0,0,1
 202 -12 202 -12 164.5 3.5 c 128,-1,2
 127 19 127 19 100.5 47 c 128,-1,3
 74 75 74 75 60 114.5 c 128,-1,4
 46 154 46 154 46 201 c 0,5,6
 46 265 46 265 69 319 c 128,-1,7
 92 373 92 373 130.5 413 c 128,-1,8
 169 453 169 453 219.5 475.5 c 128,-1,9
 270 498 270 498 326 498 c 0,10,11
 374 498 374 498 411.5 482.5 c 128,-1,12
 449 467 449 467 475 439 c 128,-1,13
 501 411 501 411 515 371.5 c 128,-1,14
 529 332 529 332 529 285 c 0,15,16
 529 221 529 221 506.5 166.5 c 128,-1,17
 484 112 484 112 445.5 72.5 c 128,-1,18
 407 33 407 33 356.5 10.5 c 128,-1,19
 306 -12 306 -12 250 -12 c 0,0,1
320 437 m 0,20,21
 288 437 288 437 259 425.5 c 128,-1,22
 230 414 230 414 205 394 c 128,-1,23
 180 374 180 374 161 345.5 c 128,-1,24
 142 317 142 317 132 284 c 1,25,-1
 455 284 l 1,26,27
 453 356 453 356 418 396.5 c 128,-1,28
 383 437 383 437 320 437 c 0,20,21
256 49 m 0,29,30
 290 49 290 49 321.5 62 c 128,-1,31
 353 75 353 75 378.5 98.5 c 128,-1,32
 404 122 404 122 422.5 154 c 128,-1,33
 441 186 441 186 449 224 c 1,34,-1
 121 224 l 1,35,36
 120 219 120 219 120 215 c 128,-1,37
 120 211 120 211 120 206 c 0,38,39
 120 133 120 133 155 91 c 128,-1,40
 190 49 190 49 256 49 c 0,29,30
EndSplineSet
Validated: 1
EndChar

StartChar: uni0276
Encoding: 630 630 506
Width: 600
GlyphClass: 2
Flags: W
AnchorPoint: "Anchor-3" 303 -20 basechar 0
AnchorPoint: "Anchor-0" 376 507 basechar 0
LayerCount: 2
Fore
SplineSet
185 -12 m 0,0,1
 103 -12 103 -12 53 36 c 128,-1,2
 3 84 3 84 3 178 c 0,3,4
 3 246 3 246 23.5 304.5 c 128,-1,5
 44 363 44 363 80.5 406 c 128,-1,6
 117 449 117 449 166.5 473.5 c 128,-1,7
 216 498 216 498 275 498 c 0,8,9
 300 498 300 498 322.5 495 c 128,-1,10
 345 492 345 492 371 486 c 1,11,-1
 624 486 l 1,12,-1
 612 424 l 1,13,-1
 408 424 l 1,14,-1
 380 284 l 1,15,-1
 547 284 l 1,16,-1
 536 224 l 1,17,-1
 368 224 l 1,18,-1
 336 62 l 1,19,-1
 549 62 l 1,20,-1
 537 0 l 1,21,-1
 274 0 l 1,22,23
 252 -6 252 -6 231 -9 c 128,-1,24
 210 -12 210 -12 185 -12 c 0,0,1
197 52 m 0,25,26
 213 52 213 52 230 55 c 128,-1,27
 247 58 247 58 264 63 c 1,28,-1
 333 424 l 1,29,30
 319 428 319 428 304 431 c 128,-1,31
 289 434 289 434 273 434 c 0,32,33
 232 434 232 434 196.5 414 c 128,-1,34
 161 394 161 394 135 360 c 128,-1,35
 109 326 109 326 94.5 280.5 c 128,-1,36
 80 235 80 235 80 185 c 0,37,38
 80 117 80 117 111.5 84.5 c 128,-1,39
 143 52 143 52 197 52 c 0,25,26
EndSplineSet
Validated: 1
EndChar

StartChar: uni0278
Encoding: 632 632 507
Width: 600
GlyphClass: 2
Flags: W
AnchorPoint: "Anchor-3" 190 -219 basechar 0
AnchorPoint: "Anchor-0" 392 736 basechar 0
LayerCount: 2
Fore
SplineSet
100 210 m 0,0,1
 100 175 100 175 109 147.5 c 128,-1,2
 118 120 118 120 133.5 100.5 c 128,-1,3
 149 81 149 81 169 68.5 c 128,-1,4
 189 56 189 56 210 52 c 1,5,-1
 290 436 l 1,6,7
 251 433 251 433 216.5 415 c 128,-1,8
 182 397 182 397 156 367.5 c 128,-1,9
 130 338 130 338 115 298 c 128,-1,10
 100 258 100 258 100 210 c 0,0,1
478 276 m 0,11,12
 478 311 478 311 469 338 c 128,-1,13
 460 365 460 365 445 384.5 c 128,-1,14
 430 404 430 404 410.5 416 c 128,-1,15
 391 428 391 428 370 433 c 1,16,-1
 289 49 l 1,17,18
 327 52 327 52 361.5 70.5 c 128,-1,19
 396 89 396 89 422 119 c 128,-1,20
 448 149 448 149 463 189 c 128,-1,21
 478 229 478 229 478 276 c 0,11,12
156 -205 m 1,22,-1
 198 -7 l 1,23,24
 165 -2 165 -2 133 13.5 c 128,-1,25
 101 29 101 29 76.5 55 c 128,-1,26
 52 81 52 81 37 117.5 c 128,-1,27
 22 154 22 154 22 201 c 0,28,29
 22 268 22 268 45 321.5 c 128,-1,30
 68 375 68 375 106.5 412.5 c 128,-1,31
 145 450 145 450 196 471 c 128,-1,32
 247 492 247 492 303 495 c 1,33,-1
 348 712 l 1,34,-1
 428 712 l 1,35,-1
 382 492 l 1,36,37
 415 486 415 486 446.5 470.5 c 128,-1,38
 478 455 478 455 502 429 c 128,-1,39
 526 403 526 403 541 367 c 128,-1,40
 556 331 556 331 556 284 c 0,41,42
 556 217 556 217 533.5 164 c 128,-1,43
 511 111 511 111 472.5 73.5 c 128,-1,44
 434 36 434 36 383.5 15 c 128,-1,45
 333 -6 333 -6 277 -9 c 1,46,-1
 236 -205 l 1,47,-1
 156 -205 l 1,22,-1
EndSplineSet
Validated: 1
EndChar

StartChar: uni0279
Encoding: 633 633 508
Width: 600
GlyphClass: 2
Flags: W
AnchorPoint: "Anchor-3" 217 -20 basechar 0
AnchorPoint: "Anchor-0" 446 507 basechar 0
LayerCount: 2
Fore
SplineSet
492 486 m 1,0,-1
 395 0 l 1,1,-1
 332 0 l 1,2,-1
 353 139 l 1,3,-1
 349 139 l 1,4,5
 329 108 329 108 304 80.5 c 128,-1,6
 279 53 279 53 251.5 32.5 c 128,-1,7
 224 12 224 12 193.5 0 c 128,-1,8
 163 -12 163 -12 132 -12 c 0,9,10
 70 -12 70 -12 34 13 c 1,11,-1
 64 79 l 1,12,13
 83 67 83 67 102 62.5 c 128,-1,14
 121 58 121 58 145 58 c 0,15,16
 202 58 202 58 258 106.5 c 128,-1,17
 314 155 314 155 365 233 c 1,18,-1
 416 486 l 1,19,-1
 492 486 l 1,0,-1
EndSplineSet
Validated: 1
EndChar

StartChar: uni027A
Encoding: 634 634 509
Width: 600
GlyphClass: 2
Flags: W
AnchorPoint: "Anchor-3" 217 -20 basechar 0
AnchorPoint: "Anchor-0" 505 736 basechar 0
LayerCount: 2
Fore
SplineSet
131 -12 m 256,0,1
 99 -12 99 -12 74.5 -5 c 128,-1,2
 50 2 50 2 33 13 c 1,3,-1
 65 79 l 1,4,5
 85 67 85 67 104 62.5 c 128,-1,6
 123 58 123 58 149 59 c 0,7,8
 204 61 204 61 259 108.5 c 128,-1,9
 314 156 314 156 365 234 c 1,10,-1
 468 712 l 1,11,-1
 545 712 l 1,12,-1
 395 0 l 1,13,-1
 332 0 l 1,14,-1
 353 138 l 1,15,-1
 349 138 l 1,16,17
 329 107 329 107 304 80 c 128,-1,18
 279 53 279 53 251.5 32.5 c 128,-1,19
 224 12 224 12 193.5 0 c 128,-1,20
 163 -12 163 -12 131 -12 c 256,0,1
EndSplineSet
Validated: 33
EndChar

StartChar: uni027B
Encoding: 635 635 510
Width: 600
GlyphClass: 2
Flags: W
AnchorPoint: "Anchor-3" 102 -20 basechar 0
AnchorPoint: "Anchor-0" 362 507 basechar 0
LayerCount: 2
Fore
SplineSet
333 -183 m 0,0,1
 285 -183 285 -183 263.5 -158.5 c 128,-1,2
 242 -134 242 -134 242 -93 c 0,3,4
 242 -80 242 -80 244 -66 c 128,-1,5
 246 -52 246 -52 249 -38 c 2,6,-1
 274 89 l 1,7,-1
 271 89 l 1,8,9
 239 38 239 38 203 13 c 128,-1,10
 167 -12 167 -12 116 -12 c 0,11,12
 97 -12 97 -12 76.5 -6.5 c 128,-1,13
 56 -1 56 -1 33 13 c 1,14,-1
 64 79 l 1,15,16
 84 66 84 66 103 62 c 128,-1,17
 122 58 122 58 140 58 c 0,18,19
 175 58 175 58 211 83 c 128,-1,20
 247 108 247 108 284 174 c 1,21,-1
 345 486 l 1,22,-1
 422 486 l 1,23,-1
 319 -28 l 2,24,25
 317 -42 317 -42 315.5 -53 c 128,-1,26
 314 -64 314 -64 314 -75 c 0,27,28
 314 -97 314 -97 326 -108 c 128,-1,29
 338 -119 338 -119 358 -119 c 0,30,31
 374 -119 374 -119 389.5 -112.5 c 128,-1,32
 405 -106 405 -106 418 -98 c 1,33,-1
 422 -158 l 1,34,35
 406 -166 406 -166 382.5 -174.5 c 128,-1,36
 359 -183 359 -183 333 -183 c 0,0,1
EndSplineSet
Validated: 1
EndChar

StartChar: uni027D
Encoding: 637 637 511
Width: 600
GlyphClass: 2
Flags: W
AnchorPoint: "Anchor-3" 221 -187 basechar 0
AnchorPoint: "Anchor-0" 382 507 basechar 0
LayerCount: 2
Fore
SplineSet
234 -183 m 0,0,1
 160 -183 160 -183 126 -145 c 128,-1,2
 92 -107 92 -107 92 -44 c 0,3,4
 92 -28 92 -28 94.5 -13 c 128,-1,5
 97 2 97 2 100 19 c 2,6,-1
 194 486 l 1,7,-1
 257 486 l 1,8,-1
 236 347 l 1,9,-1
 240 347 l 1,10,11
 260 378 260 378 284.5 405.5 c 128,-1,12
 309 433 309 433 337 453.5 c 128,-1,13
 365 474 365 474 395 486 c 128,-1,14
 425 498 425 498 457 498 c 256,15,16
 489 498 489 498 514 491 c 128,-1,17
 539 484 539 484 555 473 c 1,18,-1
 524 407 l 1,19,20
 505 419 505 419 486.5 423.5 c 128,-1,21
 468 428 468 428 444 428 c 0,22,23
 387 428 387 428 331 379.5 c 128,-1,24
 275 331 275 331 224 253 c 1,25,-1
 176 17 l 2,26,27
 173 3 173 3 172 -7 c 128,-1,28
 171 -17 171 -17 171 -28 c 0,29,30
 171 -74 171 -74 193 -96.5 c 128,-1,31
 215 -119 215 -119 254 -119 c 0,32,33
 284 -119 284 -119 310.5 -108 c 128,-1,34
 337 -97 337 -97 360 -84 c 1,35,-1
 386 -139 l 1,36,37
 357 -157 357 -157 318 -170 c 128,-1,38
 279 -183 279 -183 234 -183 c 0,0,1
EndSplineSet
Validated: 1
EndChar

StartChar: uni027E
Encoding: 638 638 512
Width: 600
GlyphClass: 2
Flags: W
AnchorPoint: "Anchor-3" 137 -20 basechar 0
AnchorPoint: "Anchor-0" 376 507 basechar 0
LayerCount: 2
Fore
SplineSet
97 0 m 1,0,-1
 156 294 l 2,1,2
 176 392 176 392 238 445 c 128,-1,3
 300 498 300 498 412 498 c 0,4,5
 430 498 430 498 449.5 496.5 c 128,-1,6
 469 495 469 495 488.5 492 c 128,-1,7
 508 489 508 489 525 484 c 128,-1,8
 542 479 542 479 555 473 c 1,9,-1
 525 405 l 1,10,11
 497 419 497 419 465.5 423 c 128,-1,12
 434 427 434 427 406 427 c 0,13,14
 339 427 339 427 292 390 c 128,-1,15
 245 353 245 353 229 275 c 2,16,-1
 175 0 l 1,17,-1
 97 0 l 1,0,-1
EndSplineSet
Validated: 1
EndChar

StartChar: uni0280
Encoding: 640 640 513
Width: 600
GlyphClass: 2
Flags: W
AnchorPoint: "Anchor-3" 270 -20 basechar 0
AnchorPoint: "Anchor-0" 350 507 basechar 0
LayerCount: 2
Fore
SplineSet
71 0 m 1,0,-1
 167 486 l 1,1,-1
 359 486 l 2,2,3
 427 486 427 486 469.5 458 c 128,-1,4
 512 430 512 430 512 366 c 0,5,6
 512 304 512 304 474 260.5 c 128,-1,7
 436 217 436 217 372 200 c 1,8,-1
 461 0 l 1,9,-1
 381 0 l 1,10,-1
 302 192 l 1,11,-1
 186 192 l 1,12,-1
 147 0 l 1,13,-1
 71 0 l 1,0,-1
198 250 m 1,14,-1
 300 250 l 2,15,16
 364 250 364 250 398.5 279.5 c 128,-1,17
 433 309 433 309 433 351 c 0,18,19
 433 391 433 391 407 408 c 128,-1,20
 381 425 381 425 333 425 c 2,21,-1
 231 425 l 1,22,-1
 198 250 l 1,14,-1
EndSplineSet
Validated: 1
EndChar

StartChar: uni0281
Encoding: 641 641 514
Width: 600
GlyphClass: 2
Flags: W
AnchorPoint: "Anchor-3" 244 -20 basechar 0
AnchorPoint: "Anchor-0" 324 507 basechar 0
LayerCount: 2
Fore
SplineSet
509 486 m 1,0,-1
 413 0 l 1,1,-1
 221 0 l 2,2,3
 153 0 153 0 110.5 27.5 c 128,-1,4
 68 55 68 55 68 120 c 0,5,6
 68 182 68 182 106 225.5 c 128,-1,7
 144 269 144 269 208 286 c 1,8,-1
 119 486 l 1,9,-1
 199 486 l 1,10,-1
 278 294 l 1,11,-1
 394 294 l 1,12,-1
 433 486 l 1,13,-1
 509 486 l 1,0,-1
382 236 m 1,14,-1
 280 236 l 2,15,16
 216 236 216 236 181.5 206.5 c 128,-1,17
 147 177 147 177 147 135 c 0,18,19
 147 95 147 95 173 78 c 128,-1,20
 199 61 199 61 247 61 c 2,21,-1
 349 61 l 1,22,-1
 382 236 l 1,14,-1
EndSplineSet
Validated: 1
EndChar

StartChar: uni0282
Encoding: 642 642 515
Width: 600
GlyphClass: 2
Flags: W
AnchorPoint: "Anchor-3" 240 -219 basechar 0
AnchorPoint: "Anchor-0" 337 507 basechar 0
LayerCount: 2
Fore
SplineSet
123 -183 m 0,0,1
 70 -183 70 -183 48 -155.5 c 128,-1,2
 26 -128 26 -128 26 -85 c 0,3,4
 26 -73 26 -73 27.5 -59 c 128,-1,5
 29 -45 29 -45 33 -26 c 128,-1,6
 37 -7 37 -7 42 18 c 128,-1,7
 47 43 47 43 55 77 c 1,8,-1
 99 126 l 1,9,10
 135 85 135 85 183 66.5 c 128,-1,11
 231 48 231 48 284 48 c 0,12,13
 335 48 335 48 368.5 66 c 128,-1,14
 402 84 402 84 402 125 c 0,15,16
 402 160 402 160 368.5 179 c 128,-1,17
 335 198 335 198 274 218 c 0,18,19
 198 244 198 244 163 276.5 c 128,-1,20
 128 309 128 309 128 360 c 0,21,22
 128 395 128 395 142.5 421 c 128,-1,23
 157 447 157 447 182 464 c 128,-1,24
 207 481 207 481 240 489.5 c 128,-1,25
 273 498 273 498 310 498 c 0,26,27
 380 498 380 498 431 474 c 128,-1,28
 482 450 482 450 513 419 c 1,29,-1
 470 372 l 1,30,31
 440 398 440 398 398 418 c 128,-1,32
 356 438 356 438 302 438 c 0,33,34
 254 438 254 438 227.5 419.5 c 128,-1,35
 201 401 201 401 201 369 c 0,36,37
 201 335 201 335 231.5 316 c 128,-1,38
 262 297 262 297 321 277 c 0,39,40
 355 265 355 265 383.5 252.5 c 128,-1,41
 412 240 412 240 432 224 c 128,-1,42
 452 208 452 208 463.5 186.5 c 128,-1,43
 475 165 475 165 475 135 c 0,44,45
 475 96 475 96 459 68 c 128,-1,46
 443 40 443 40 415 22 c 128,-1,47
 387 4 387 4 350 -4 c 128,-1,48
 313 -12 313 -12 270 -12 c 0,49,50
 228 -12 228 -12 188 -1.5 c 128,-1,51
 148 9 148 9 115 29 c 1,52,53
 105 -16 105 -16 101.5 -38 c 128,-1,54
 98 -60 98 -60 98 -71 c 0,55,56
 98 -97 98 -97 108.5 -108 c 128,-1,57
 119 -119 119 -119 140 -119 c 0,58,59
 151 -119 151 -119 161 -116.5 c 128,-1,60
 171 -114 171 -114 180 -110 c 1,61,-1
 187 -170 l 1,62,63
 176 -175 176 -175 161 -179 c 128,-1,64
 146 -183 146 -183 123 -183 c 0,0,1
EndSplineSet
Validated: 1
EndChar

StartChar: uni0283
Encoding: 643 643 516
Width: 600
GlyphClass: 2
Flags: W
AnchorPoint: "Anchor-3" 127 -219 basechar 0
AnchorPoint: "Anchor-0" 483 730 basechar 0
LayerCount: 2
Fore
SplineSet
104 -217 m 0,0,1
 65 -217 65 -217 33.5 -203.5 c 128,-1,2
 2 -190 2 -190 -18 -173 c 1,3,-1
 15 -121 l 1,4,5
 35 -137 35 -137 57.5 -145.5 c 128,-1,6
 80 -154 80 -154 109 -154 c 0,7,8
 147 -154 147 -154 168.5 -131 c 128,-1,9
 190 -108 190 -108 199 -55 c 2,10,-1
 320 564 l 2,11,12
 335 639 335 639 378 681.5 c 128,-1,13
 421 724 421 724 499 724 c 0,14,15
 537 724 537 724 571 709.5 c 128,-1,16
 605 695 605 695 630 675 c 1,17,-1
 593 626 l 1,18,19
 571 642 571 642 548.5 652 c 128,-1,20
 526 662 526 662 502 662 c 0,21,22
 457 662 457 662 432.5 638 c 128,-1,23
 408 614 408 614 398 563 c 2,24,-1
 277 -55 l 2,25,26
 262 -132 262 -132 221.5 -174.5 c 128,-1,27
 181 -217 181 -217 104 -217 c 0,0,1
EndSplineSet
Validated: 1
EndChar

StartChar: uni0284
Encoding: 644 644 517
Width: 600
GlyphClass: 2
Flags: W
AnchorPoint: "Anchor-3" 127 -219 basechar 0
AnchorPoint: "Anchor-0" 483 730 basechar 0
LayerCount: 2
Fore
SplineSet
104 -217 m 0,0,1
 65 -217 65 -217 33.5 -203.5 c 128,-1,2
 2 -190 2 -190 -18 -173 c 1,3,-1
 15 -121 l 1,4,5
 35 -137 35 -137 57.5 -145.5 c 128,-1,6
 80 -154 80 -154 109 -154 c 0,7,8
 147 -154 147 -154 168.5 -131 c 128,-1,9
 190 -108 190 -108 199 -55 c 2,10,-1
 254 226 l 1,11,-1
 82 226 l 1,12,-1
 92 280 l 1,13,-1
 266 286 l 1,14,-1
 320 564 l 2,15,16
 335 639 335 639 378 681.5 c 128,-1,17
 421 724 421 724 499 724 c 0,18,19
 537 724 537 724 571 709.5 c 128,-1,20
 605 695 605 695 630 675 c 1,21,-1
 593 626 l 1,22,23
 571 642 571 642 548.5 652 c 128,-1,24
 526 662 526 662 502 662 c 0,25,26
 457 662 457 662 432.5 638 c 128,-1,27
 408 614 408 614 398 563 c 2,28,-1
 344 286 l 1,29,-1
 518 286 l 1,30,-1
 506 226 l 1,31,-1
 332 226 l 1,32,-1
 277 -55 l 2,33,34
 262 -132 262 -132 221.5 -174.5 c 128,-1,35
 181 -217 181 -217 104 -217 c 0,0,1
EndSplineSet
Validated: 1
EndChar

StartChar: uni0287
Encoding: 647 647 518
Width: 600
GlyphClass: 2
Flags: W
AnchorPoint: "Anchor-3" 279 -156 basechar 0
AnchorPoint: "Anchor-0" 300 507 basechar 0
LayerCount: 2
Fore
SplineSet
273 498 m 0,0,1
 350 498 350 498 385.5 460 c 128,-1,2
 421 422 421 422 421 359 c 0,3,4
 421 343 421 343 418.5 328 c 128,-1,5
 416 313 416 313 413 296 c 2,6,-1
 365 62 l 1,7,-1
 506 62 l 1,8,-1
 495 5 l 1,9,-1
 349 0 l 1,10,-1
 307 -156 l 1,11,-1
 244 -156 l 1,12,-1
 276 0 l 1,13,-1
 36 0 l 1,14,-1
 49 62 l 1,15,-1
 289 62 l 1,16,-1
 338 298 l 2,17,18
 341 312 341 312 342 322 c 128,-1,19
 343 332 343 332 343 343 c 0,20,21
 343 389 343 389 319 411.5 c 128,-1,22
 295 434 295 434 253 434 c 0,23,24
 217 434 217 434 185 423.5 c 128,-1,25
 153 413 153 413 127 399 c 1,26,-1
 102 454 l 1,27,28
 134 474 134 474 178 486 c 128,-1,29
 222 498 222 498 273 498 c 0,0,1
EndSplineSet
Validated: 1
EndChar

StartChar: uni0288
Encoding: 648 648 519
Width: 600
GlyphClass: 2
Flags: W
AnchorPoint: "Anchor-3" 267 -187 basechar 0
AnchorPoint: "Anchor-0" 297 635 basechar 0
LayerCount: 2
Fore
SplineSet
273 -183 m 0,0,1
 196 -183 196 -183 160.5 -144.5 c 128,-1,2
 125 -106 125 -106 125 -44 c 0,3,4
 125 -28 125 -28 127 -13 c 128,-1,5
 129 2 129 2 133 19 c 2,6,-1
 215 424 l 1,7,-1
 74 424 l 1,8,-1
 85 481 l 1,9,-1
 231 486 l 1,10,-1
 273 642 l 1,11,-1
 336 642 l 1,12,-1
 304 486 l 1,13,-1
 544 486 l 1,14,-1
 531 424 l 1,15,-1
 291 424 l 1,16,-1
 207 17 l 2,17,18
 204 3 204 3 203 -7 c 128,-1,19
 202 -17 202 -17 202 -28 c 0,20,21
 202 -74 202 -74 226 -96.5 c 128,-1,22
 250 -119 250 -119 292 -119 c 0,23,24
 329 -119 329 -119 360.5 -108.5 c 128,-1,25
 392 -98 392 -98 418 -84 c 1,26,-1
 443 -139 l 1,27,28
 411 -159 411 -159 367.5 -171 c 128,-1,29
 324 -183 324 -183 273 -183 c 0,0,1
EndSplineSet
Validated: 1
EndChar

StartChar: uni0289
Encoding: 649 649 520
Width: 600
GlyphClass: 2
Flags: W
AnchorPoint: "Anchor-3" 249 -20 basechar 0
AnchorPoint: "Anchor-2" 393 0 basechar 0
AnchorPoint: "Anchor-0" 337 507 basechar 0
LayerCount: 2
Fore
SplineSet
232 54 m 0,0,1
 260 54 260 54 295.5 75 c 128,-1,2
 331 96 331 96 376 142 c 1,3,-1
 398 254 l 1,4,-1
 181 254 l 1,5,-1
 167 186 l 2,6,7
 163 166 163 166 161 154 c 128,-1,8
 159 142 159 142 159 129 c 0,9,10
 159 54 159 54 232 54 c 0,0,1
197 -12 m 0,11,12
 135 -12 135 -12 108 20.5 c 128,-1,13
 81 53 81 53 81 109 c 0,14,15
 81 126 81 126 83 141 c 128,-1,16
 85 156 85 156 89 176 c 2,17,-1
 105 254 l 1,18,-1
 18 254 l 1,19,-1
 26 308 l 1,20,-1
 117 314 l 1,21,-1
 151 486 l 1,22,-1
 228 486 l 1,23,-1
 193 314 l 1,24,-1
 410 314 l 1,25,-1
 444 486 l 1,26,-1
 521 486 l 1,27,-1
 487 314 l 1,28,-1
 572 314 l 1,29,-1
 562 254 l 1,30,-1
 475 254 l 1,31,-1
 424 0 l 1,32,-1
 361 0 l 1,33,-1
 368 74 l 1,34,-1
 364 74 l 1,35,36
 324 39 324 39 283 13.5 c 128,-1,37
 242 -12 242 -12 197 -12 c 0,11,12
EndSplineSet
Validated: 1
EndChar

StartChar: uni028A
Encoding: 650 650 521
Width: 600
GlyphClass: 2
Flags: W
AnchorPoint: "Anchor-3" 236 -20 basechar 0
AnchorPoint: "Anchor-0" 339 507 basechar 0
LayerCount: 2
Fore
SplineSet
238 -12 m 0,0,1
 193 -12 193 -12 160 2 c 128,-1,2
 127 16 127 16 104.5 39.5 c 128,-1,3
 82 63 82 63 71 95 c 128,-1,4
 60 127 60 127 60 163 c 0,5,6
 60 206 60 206 72.5 245 c 128,-1,7
 85 284 85 284 104.5 318 c 128,-1,8
 124 352 124 352 147.5 378.5 c 128,-1,9
 171 405 171 405 193 422 c 1,10,-1
 193 425 l 1,11,-1
 93 425 l 1,12,-1
 106 486 l 1,13,-1
 285 486 l 1,14,-1
 275 434 l 1,15,16
 248 414 248 414 223 386 c 128,-1,17
 198 358 198 358 179 324.5 c 128,-1,18
 160 291 160 291 149 254 c 128,-1,19
 138 217 138 217 138 179 c 0,20,21
 138 152 138 152 145 129 c 128,-1,22
 152 106 152 106 165.5 89 c 128,-1,23
 179 72 179 72 200 62 c 128,-1,24
 221 52 221 52 249 52 c 0,25,26
 290 52 290 52 323.5 72 c 128,-1,27
 357 92 357 92 381 124 c 128,-1,28
 405 156 405 156 418 197.5 c 128,-1,29
 431 239 431 239 431 283 c 0,30,31
 431 334 431 334 415.5 371 c 128,-1,32
 400 408 400 408 374 434 c 1,33,-1
 385 486 l 1,34,-1
 564 486 l 1,35,-1
 552 425 l 1,36,-1
 449 425 l 1,37,-1
 448 422 l 1,38,39
 469 398 469 398 486.5 359.5 c 128,-1,40
 504 321 504 321 504 270 c 0,41,42
 504 216 504 216 485 165.5 c 128,-1,43
 466 115 466 115 431 75.5 c 128,-1,44
 396 36 396 36 347 12 c 128,-1,45
 298 -12 298 -12 238 -12 c 0,0,1
EndSplineSet
Validated: 1
EndChar

StartChar: uni028B
Encoding: 651 651 522
Width: 600
GlyphClass: 2
Flags: W
AnchorPoint: "Anchor-3" 248 -20 basechar 0
AnchorPoint: "Anchor-0" 340 507 basechar 0
LayerCount: 2
Fore
SplineSet
243 -12 m 0,0,1
 205 -12 205 -12 172 -3 c 128,-1,2
 139 6 139 6 114.5 25 c 128,-1,3
 90 44 90 44 75.5 74 c 128,-1,4
 61 104 61 104 61 146 c 0,5,6
 61 159 61 159 63 174.5 c 128,-1,7
 65 190 65 190 68 205 c 2,8,-1
 125 486 l 1,9,-1
 201 486 l 1,10,-1
 146 213 l 2,11,12
 143 198 143 198 141.5 184 c 128,-1,13
 140 170 140 170 140 161 c 0,14,15
 140 129 140 129 149.5 108.5 c 128,-1,16
 159 88 159 88 174 75 c 128,-1,17
 189 62 189 62 208.5 57 c 128,-1,18
 228 52 228 52 249 52 c 0,19,20
 293 52 293 52 330.5 79.5 c 128,-1,21
 368 107 368 107 395 149 c 128,-1,22
 422 191 422 191 437 241.5 c 128,-1,23
 452 292 452 292 452 337 c 0,24,25
 452 385 452 385 434.5 409 c 128,-1,26
 417 433 417 433 379 433 c 0,27,28
 368 433 368 433 361.5 432 c 128,-1,29
 355 431 355 431 345 427 c 1,30,-1
 345 490 l 1,31,32
 359 495 359 495 372.5 496.5 c 128,-1,33
 386 498 386 498 403 498 c 0,34,35
 463 498 463 498 496 462.5 c 128,-1,36
 529 427 529 427 529 351 c 0,37,38
 529 287 529 287 508.5 222 c 128,-1,39
 488 157 488 157 450.5 105 c 128,-1,40
 413 53 413 53 360 20.5 c 128,-1,41
 307 -12 307 -12 243 -12 c 0,0,1
EndSplineSet
Validated: 1
EndChar

StartChar: uni028C
Encoding: 652 652 523
Width: 600
GlyphClass: 2
Flags: W
AnchorPoint: "Anchor-3" 240 -20 basechar 0
AnchorPoint: "Anchor-0" 340 520 basechar 0
LayerCount: 2
Fore
SplineSet
383 486 m 1,0,-1
 493 0 l 1,1,-1
 417 0 l 1,2,-1
 356 283 l 2,3,4
 348 318 348 318 342 354.5 c 128,-1,5
 336 391 336 391 328 426 c 1,6,-1
 324 426 l 1,7,8
 307 391 307 391 286.5 355.5 c 128,-1,9
 266 320 266 320 243 282 c 2,10,-1
 76 0 l 1,11,-1
 -2 0 l 1,12,-1
 293 486 l 1,13,-1
 383 486 l 1,0,-1
EndSplineSet
Validated: 1
EndChar

